<svg xmlns="http://www.w3.org/2000/svg" xmlns:xlink="http://www.w3.org/1999/xlink" width="500" zoomAndPan="magnify" viewBox="0 0 375 374.999991" height="500" preserveAspectRatio="xMidYMid meet" version="1.0"><defs><clipPath id="ab5e850e3f"><path d="M 205 142 L 208 142 L 208 148 L 205 148 Z M 205 142 " clip-rule="nonzero"/></clipPath><clipPath id="8b60e1e31f"><path d="M 59.988281 54.988281 L 201.042969 3.960938 L 315.34375 319.921875 L 174.289062 370.949219 Z M 59.988281 54.988281 " clip-rule="nonzero"/></clipPath><clipPath id="498bb24a64"><path d="M 59.988281 54.988281 L 201.042969 3.960938 L 315.34375 319.921875 L 174.289062 370.949219 Z M 59.988281 54.988281 " clip-rule="nonzero"/></clipPath><clipPath id="ba513eaa1c"><path d="M 202 144 L 205 144 L 205 151 L 202 151 Z M 202 144 " clip-rule="nonzero"/></clipPath><clipPath id="f3eca3f9fd"><path d="M 59.988281 54.988281 L 201.042969 3.960938 L 315.34375 319.921875 L 174.289062 370.949219 Z M 59.988281 54.988281 " clip-rule="nonzero"/></clipPath><clipPath id="30bb41f754"><path d="M 59.988281 54.988281 L 201.042969 3.960938 L 315.34375 319.921875 L 174.289062 370.949219 Z M 59.988281 54.988281 " clip-rule="nonzero"/></clipPath><clipPath id="86d10b2751"><path d="M 202 152 L 205 152 L 205 158 L 202 158 Z M 202 152 " clip-rule="nonzero"/></clipPath><clipPath id="d75c7383e1"><path d="M 59.988281 54.988281 L 201.042969 3.960938 L 315.34375 319.921875 L 174.289062 370.949219 Z M 59.988281 54.988281 " clip-rule="nonzero"/></clipPath><clipPath id="c21632cff7"><path d="M 59.988281 54.988281 L 201.042969 3.960938 L 315.34375 319.921875 L 174.289062 370.949219 Z M 59.988281 54.988281 " clip-rule="nonzero"/></clipPath><clipPath id="7cad547590"><path d="M 207 155 L 210 155 L 210 159 L 207 159 Z M 207 155 " clip-rule="nonzero"/></clipPath><clipPath id="92ccb63b9e"><path d="M 59.988281 54.988281 L 201.042969 3.960938 L 315.34375 319.921875 L 174.289062 370.949219 Z M 59.988281 54.988281 " clip-rule="nonzero"/></clipPath><clipPath id="930ce63d8b"><path d="M 59.988281 54.988281 L 201.042969 3.960938 L 315.34375 319.921875 L 174.289062 370.949219 Z M 59.988281 54.988281 " clip-rule="nonzero"/></clipPath><clipPath id="1b13da89b0"><path d="M 206 155 L 208 155 L 208 158 L 206 158 Z M 206 155 " clip-rule="nonzero"/></clipPath><clipPath id="f9d7364607"><path d="M 59.988281 54.988281 L 201.042969 3.960938 L 315.34375 319.921875 L 174.289062 370.949219 Z M 59.988281 54.988281 " clip-rule="nonzero"/></clipPath><clipPath id="83613f75d7"><path d="M 59.988281 54.988281 L 201.042969 3.960938 L 315.34375 319.921875 L 174.289062 370.949219 Z M 59.988281 54.988281 " clip-rule="nonzero"/></clipPath><clipPath id="69ae08f847"><path d="M 211 152 L 214 152 L 214 156 L 211 156 Z M 211 152 " clip-rule="nonzero"/></clipPath><clipPath id="48284ace0c"><path d="M 59.988281 54.988281 L 201.042969 3.960938 L 315.34375 319.921875 L 174.289062 370.949219 Z M 59.988281 54.988281 " clip-rule="nonzero"/></clipPath><clipPath id="4e37edb788"><path d="M 59.988281 54.988281 L 201.042969 3.960938 L 315.34375 319.921875 L 174.289062 370.949219 Z M 59.988281 54.988281 " clip-rule="nonzero"/></clipPath><clipPath id="eaf86ba790"><path d="M 215 147 L 217 147 L 217 151 L 215 151 Z M 215 147 " clip-rule="nonzero"/></clipPath><clipPath id="83d803890b"><path d="M 59.988281 54.988281 L 201.042969 3.960938 L 315.34375 319.921875 L 174.289062 370.949219 Z M 59.988281 54.988281 " clip-rule="nonzero"/></clipPath><clipPath id="82e6f913ff"><path d="M 59.988281 54.988281 L 201.042969 3.960938 L 315.34375 319.921875 L 174.289062 370.949219 Z M 59.988281 54.988281 " clip-rule="nonzero"/></clipPath><clipPath id="f6a1729f25"><path d="M 208 147 L 210 147 L 210 152 L 208 152 Z M 208 147 " clip-rule="nonzero"/></clipPath><clipPath id="53aefe8952"><path d="M 59.988281 54.988281 L 201.042969 3.960938 L 315.34375 319.921875 L 174.289062 370.949219 Z M 59.988281 54.988281 " clip-rule="nonzero"/></clipPath><clipPath id="abf856ed6d"><path d="M 59.988281 54.988281 L 201.042969 3.960938 L 315.34375 319.921875 L 174.289062 370.949219 Z M 59.988281 54.988281 " clip-rule="nonzero"/></clipPath><clipPath id="cb40404b59"><path d="M 204 155 L 206 155 L 206 159 L 204 159 Z M 204 155 " clip-rule="nonzero"/></clipPath><clipPath id="18f64fbc61"><path d="M 59.988281 54.988281 L 201.042969 3.960938 L 315.34375 319.921875 L 174.289062 370.949219 Z M 59.988281 54.988281 " clip-rule="nonzero"/></clipPath><clipPath id="6fee38446e"><path d="M 59.988281 54.988281 L 201.042969 3.960938 L 315.34375 319.921875 L 174.289062 370.949219 Z M 59.988281 54.988281 " clip-rule="nonzero"/></clipPath><clipPath id="cc3b06a32d"><path d="M 204 153 L 207 153 L 207 157 L 204 157 Z M 204 153 " clip-rule="nonzero"/></clipPath><clipPath id="08f6678529"><path d="M 59.988281 54.988281 L 201.042969 3.960938 L 315.34375 319.921875 L 174.289062 370.949219 Z M 59.988281 54.988281 " clip-rule="nonzero"/></clipPath><clipPath id="e4a5ca22cc"><path d="M 59.988281 54.988281 L 201.042969 3.960938 L 315.34375 319.921875 L 174.289062 370.949219 Z M 59.988281 54.988281 " clip-rule="nonzero"/></clipPath><clipPath id="d846d7032b"><path d="M 215 132 L 217 132 L 217 138 L 215 138 Z M 215 132 " clip-rule="nonzero"/></clipPath><clipPath id="618abbb813"><path d="M 59.988281 54.988281 L 201.042969 3.960938 L 315.34375 319.921875 L 174.289062 370.949219 Z M 59.988281 54.988281 " clip-rule="nonzero"/></clipPath><clipPath id="feeee69c4b"><path d="M 59.988281 54.988281 L 201.042969 3.960938 L 315.34375 319.921875 L 174.289062 370.949219 Z M 59.988281 54.988281 " clip-rule="nonzero"/></clipPath><clipPath id="4e8d993cf1"><path d="M 96 5 L 252 5 L 252 345 L 96 345 Z M 96 5 " clip-rule="nonzero"/></clipPath><clipPath id="abd57853d9"><path d="M 59.988281 54.988281 L 201.042969 3.960938 L 315.34375 319.921875 L 174.289062 370.949219 Z M 59.988281 54.988281 " clip-rule="nonzero"/></clipPath><clipPath id="105eba0a22"><path d="M 59.988281 54.988281 L 201.042969 3.960938 L 315.34375 319.921875 L 174.289062 370.949219 Z M 59.988281 54.988281 " clip-rule="nonzero"/></clipPath></defs><g clip-path="url(#ab5e850e3f)"><g clip-path="url(#8b60e1e31f)"><g clip-path="url(#498bb24a64)"><path fill="#e5dfd0" d="M 207.027344 144.847656 C 206.824219 144.359375 206.339844 144.007812 205.8125 143.945312 C 205.402344 143.902344 205.171875 143.363281 205.363281 143.003906 C 205.628906 142.539062 206.363281 142.546875 206.773438 142.890625 C 207.183594 143.234375 207.359375 143.78125 207.5 144.304688 C 207.773438 145.289062 208.011719 146.410156 207.488281 147.285156 C 207.238281 146.5 207.074219 145.671875 207.027344 144.847656 Z M 207.027344 144.847656 " fill-opacity="1" fill-rule="nonzero"/></g></g></g><g clip-path="url(#ba513eaa1c)"><g clip-path="url(#f3eca3f9fd)"><g clip-path="url(#30bb41f754)"><path fill="#e5dfd0" d="M 203.230469 146.691406 C 202.8125 147.789062 203.550781 149.058594 203.199219 150.179688 C 202.578125 148.761719 202.414062 147.140625 202.722656 145.613281 C 202.78125 145.34375 202.867188 145.046875 203.058594 144.847656 C 203.316406 144.574219 203.808594 144.539062 204.09375 144.796875 C 204.367188 145.054688 204.34375 145.582031 204.015625 145.769531 C 203.65625 145.972656 203.378906 146.300781 203.230469 146.691406 Z M 203.230469 146.691406 " fill-opacity="1" fill-rule="nonzero"/></g></g></g><g clip-path="url(#86d10b2751)"><g clip-path="url(#d75c7383e1)"><g clip-path="url(#c21632cff7)"><path fill="#e5dfd0" d="M 203.917969 153.121094 C 204.148438 153.335938 204.132812 153.722656 204 154.011719 C 203.863281 154.300781 203.65625 154.558594 203.53125 154.84375 C 203.132812 155.789062 203.769531 156.960938 203.34375 157.894531 C 202.863281 156.773438 202.625 155.554688 202.667969 154.339844 C 202.675781 153.964844 202.714844 153.578125 202.941406 153.28125 C 203.175781 152.992188 203.644531 152.871094 203.917969 153.121094 Z M 203.917969 153.121094 " fill-opacity="1" fill-rule="nonzero"/></g></g></g><g clip-path="url(#7cad547590)"><g clip-path="url(#92ccb63b9e)"><g clip-path="url(#930ce63d8b)"><path fill="#e5dfd0" d="M 207.628906 158.011719 C 207.640625 157.910156 207.722656 157.84375 207.804688 157.769531 C 208.496094 157.160156 208.980469 156.3125 209.167969 155.40625 C 209.554688 155.445312 209.828125 155.835938 209.835938 156.230469 C 209.847656 156.621094 209.640625 156.984375 209.398438 157.273438 C 209.089844 157.648438 208.714844 157.964844 208.289062 158.179688 C 208.039062 158.320312 207.585938 158.292969 207.628906 158.011719 Z M 207.628906 158.011719 " fill-opacity="1" fill-rule="nonzero"/></g></g></g><g clip-path="url(#1b13da89b0)"><g clip-path="url(#f9d7364607)"><g clip-path="url(#83613f75d7)"><path fill="#e5dfd0" d="M 206.363281 157.164062 C 206.460938 156.574219 206.558594 155.988281 206.644531 155.394531 C 206.6875 155.113281 207.113281 155.03125 207.335938 155.214844 C 207.558594 155.398438 207.601562 155.71875 207.574219 156.003906 C 207.527344 156.609375 207.230469 157.183594 206.777344 157.585938 C 206.734375 157.628906 206.679688 157.671875 206.609375 157.683594 C 206.382812 157.71875 206.320312 157.382812 206.363281 157.164062 Z M 206.363281 157.164062 " fill-opacity="1" fill-rule="nonzero"/></g></g></g><g clip-path="url(#69ae08f847)"><g clip-path="url(#48284ace0c)"><g clip-path="url(#4e37edb788)"><path fill="#e5dfd0" d="M 213.027344 153.589844 C 212.8125 154.050781 212.605469 154.507812 212.390625 154.96875 C 212.28125 155.203125 211.894531 155.125 211.785156 154.890625 C 211.679688 154.664062 211.785156 154.386719 211.921875 154.167969 C 212.058594 153.953125 212.226562 153.757812 212.292969 153.507812 C 212.386719 153.078125 212.179688 152.46875 212.582031 152.285156 C 212.859375 152.164062 213.175781 152.433594 213.230469 152.722656 C 213.277344 153.019531 213.148438 153.316406 213.027344 153.589844 Z M 213.027344 153.589844 " fill-opacity="1" fill-rule="nonzero"/></g></g></g><g clip-path="url(#eaf86ba790)"><g clip-path="url(#83d803890b)"><g clip-path="url(#82e6f913ff)"><path fill="#e5dfd0" d="M 215.703125 147.394531 C 215.953125 147.351562 216.179688 147.582031 216.222656 147.828125 C 216.273438 148.074219 216.1875 148.332031 216.105469 148.566406 C 215.894531 149.148438 215.652344 149.703125 215.371094 150.246094 C 215.113281 150.171875 215.046875 149.847656 215.105469 149.585938 C 215.171875 149.335938 215.316406 149.105469 215.355469 148.851562 C 215.398438 148.570312 215.300781 148.304688 215.300781 148.03125 C 215.296875 147.757812 215.429688 147.433594 215.703125 147.394531 Z M 215.703125 147.394531 " fill-opacity="1" fill-rule="nonzero"/></g></g></g><g clip-path="url(#f6a1729f25)"><g clip-path="url(#53aefe8952)"><g clip-path="url(#abf856ed6d)"><path fill="#e5dfd0" d="M 208.898438 147.839844 C 209.097656 147.890625 209.179688 148.121094 209.21875 148.324219 C 209.390625 149.257812 209.199219 150.261719 208.675781 151.0625 C 208.410156 150.894531 208.390625 150.507812 208.476562 150.210938 C 208.554688 149.90625 208.714844 149.609375 208.695312 149.292969 C 208.667969 148.992188 208.492188 148.730469 208.445312 148.4375 C 208.398438 148.140625 208.621094 147.761719 208.898438 147.839844 Z M 208.898438 147.839844 " fill-opacity="1" fill-rule="nonzero"/></g></g></g><g clip-path="url(#cb40404b59)"><g clip-path="url(#18f64fbc61)"><g clip-path="url(#6fee38446e)"><path fill="#e5dfd0" d="M 205.167969 158.207031 C 204.949219 158.226562 204.769531 158.027344 204.640625 157.84375 C 204.191406 157.191406 203.773438 156.300781 204.214844 155.636719 C 204.667969 155.664062 204.847656 156.222656 204.925781 156.675781 C 205.003906 157.1875 205.082031 157.699219 205.167969 158.207031 Z M 205.167969 158.207031 " fill-opacity="1" fill-rule="nonzero"/></g></g></g><g clip-path="url(#cc3b06a32d)"><g clip-path="url(#08f6678529)"><g clip-path="url(#e4a5ca22cc)"><path fill="#e5dfd0" d="M 205.902344 156.128906 C 205.703125 156.203125 205.558594 155.941406 205.507812 155.734375 C 205.332031 154.980469 205.144531 154.234375 204.96875 153.480469 C 204.941406 153.371094 204.933594 153.21875 205.046875 153.167969 C 205.101562 153.148438 205.15625 153.164062 205.199219 153.183594 C 205.726562 153.386719 205.867188 154.042969 205.929688 154.609375 C 205.972656 154.964844 206.011719 155.335938 206.058594 155.691406 C 206.066406 155.855469 206.058594 156.0625 205.902344 156.128906 Z M 205.902344 156.128906 " fill-opacity="1" fill-rule="nonzero"/></g></g></g><g clip-path="url(#d846d7032b)"><g clip-path="url(#618abbb813)"><g clip-path="url(#feeee69c4b)"><path fill="#e5dfd0" d="M 216.933594 136.480469 C 216.945312 136.671875 216.957031 136.871094 216.859375 137.035156 C 216.765625 137.203125 216.515625 137.28125 216.382812 137.136719 C 216.300781 137.046875 216.304688 136.925781 216.308594 136.804688 C 216.335938 136.183594 216.445312 135.554688 216.324219 134.953125 C 216.199219 134.347656 215.769531 133.75 215.152344 133.671875 C 214.984375 133.171875 215.554688 132.59375 216.054688 132.757812 C 216.597656 132.933594 216.726562 133.621094 216.761719 134.183594 C 216.824219 134.949219 216.878906 135.722656 216.933594 136.480469 Z M 216.933594 136.480469 " fill-opacity="1" fill-rule="nonzero"/></g></g></g><g clip-path="url(#4e8d993cf1)"><g clip-path="url(#abd57853d9)"><g clip-path="url(#105eba0a22)"><path fill="#e5dfd0" d="M 146.085938 124.394531 C 145.570312 110.386719 150.957031 96.242188 160.664062 86.117188 C 170.371094 75.996094 184.273438 70.019531 198.292969 69.9375 C 192.851562 71.03125 188.039062 74.867188 185.757812 79.925781 C 183.328125 85.300781 178.660156 89.640625 173.121094 91.65625 C 169.394531 93.015625 165.347656 93.363281 161.65625 94.832031 C 151.550781 98.847656 146.316406 110.621094 146.582031 121.492188 C 146.847656 132.367188 151.46875 142.589844 156 152.46875 C 155.214844 143.472656 157.480469 134.25 162.324219 126.636719 C 151.539062 145.078125 159.667969 171.921875 178.878906 181.277344 C 188.964844 186.1875 189.644531 199.871094 192.863281 210.625 C 195.761719 220.332031 201.890625 229.046875 210.03125 235.082031 C 201.949219 215.886719 199.042969 194.53125 201.710938 173.867188 C 196.957031 171.5 190.785156 172.328125 186.828125 175.882812 C 184.320312 169.8125 184.703125 162.613281 187.832031 156.839844 C 182.265625 156.9375 176.820312 153.320312 174.75 148.15625 C 173.253906 144.453125 173.597656 139.835938 176.328125 136.914062 C 179.066406 134.007812 184.359375 133.628906 186.949219 136.671875 C 187.335938 131.351562 187.742188 126.039062 188.128906 120.71875 C 188.285156 118.660156 188.480469 116.480469 189.691406 114.792969 C 192.464844 110.960938 198.785156 112.1875 202.167969 115.484375 C 205.570312 118.785156 207.300781 123.433594 210.375 127.03125 C 213.03125 123.964844 215.765625 120.816406 219.378906 118.980469 C 222.992188 117.132812 227.726562 116.894531 230.863281 119.464844 C 235.84375 123.5625 234.074219 131.457031 231.875 137.515625 C 234.867188 140.316406 239.34375 140.59375 243.3125 141.589844 C 247.296875 142.59375 251.644531 145.398438 251.4375 149.5 C 251.28125 152.578125 248.609375 154.839844 246.167969 156.707031 C 243.789062 158.515625 241.414062 160.332031 239.042969 162.136719 C 242.246094 165.6875 240.960938 171.875 237.144531 174.777344 C 233.335938 177.675781 227.933594 177.726562 223.445312 176.050781 C 218.957031 174.378906 215.195312 171.242188 211.578125 168.105469 C 205.472656 171.738281 202.183594 178.921875 201.480469 185.988281 C 200.773438 193.054688 202.285156 200.144531 203.777344 207.085938 C 208.296875 198.136719 216.636719 191.199219 226.246094 188.371094 C 216.714844 193.101562 205.914062 199.609375 205.027344 210.21875 C 204.757812 213.539062 205.550781 216.863281 206.40625 220.089844 C 210.964844 237.335938 217.34375 254.101562 225.382812 270.027344 C 225.722656 247.90625 233.667969 225.980469 247.566406 208.761719 C 249.703125 223.8125 251.363281 240.765625 241.941406 252.695312 C 238.847656 256.609375 234.769531 259.65625 231.625 263.523438 C 228.488281 267.40625 226.316406 272.675781 227.992188 277.371094 C 235.84375 299.308594 242.246094 321.777344 247.128906 344.5625 C 243.886719 334.429688 240.644531 324.308594 237.398438 314.175781 C 236.375 310.988281 235.21875 307.59375 232.601562 305.492188 C 225.972656 300.195312 216.722656 306.632812 208.398438 308.351562 C 197.171875 310.660156 186.339844 303.71875 176.972656 297.109375 C 185.773438 297.605469 194.433594 294.402344 203.242188 294.628906 C 213.359375 294.890625 222.757812 299.59375 231.773438 304.199219 C 220.773438 289.101562 203.949219 278.382812 185.625 274.796875 C 179.871094 273.664062 173.90625 273.183594 168.554688 270.792969 C 157.71875 265.925781 151.1875 253.972656 140.109375 249.695312 C 153.003906 252.332031 166.210938 255.09375 177.351562 262.09375 C 187.671875 268.589844 196.003906 278.59375 207.601562 282.382812 C 200.109375 275.5625 195.761719 265.398438 196.019531 255.269531 C 191.628906 253.871094 187.222656 252.46875 182.835938 251.070312 C 181.234375 253.941406 176.402344 254.539062 174.703125 251.722656 C 173.011719 248.90625 177.070312 244.753906 179.628906 246.8125 C 184.390625 250.664062 190.113281 253.332031 196.140625 254.484375 C 196.691406 251.226562 197.25 247.96875 197.796875 244.710938 C 191.894531 240.386719 184.546875 238.078125 177.222656 238.246094 C 180.828125 237.242188 184.792969 237.558594 188.203125 239.132812 C 180.328125 232.078125 170.300781 224.507812 160.234375 227.738281 C 158.535156 228.28125 157.875 225.09375 159.421875 224.199219 C 160.96875 223.304688 162.914062 224.074219 164.523438 224.847656 C 166.132812 225.617188 168.078125 226.390625 169.625 225.492188 C 166.378906 218.371094 155.648438 216.1875 149.875 221.476562 C 148.011719 223.183594 145.390625 219.214844 147.117188 217.367188 C 148.847656 215.519531 151.871094 215.957031 154.253906 216.8125 C 156.636719 217.664062 159.257812 218.777344 161.59375 217.8125 C 160.550781 211.34375 153.832031 207.0625 147.316406 206.445312 C 140.800781 205.828125 134.371094 207.976562 128.085938 209.828125 C 124.878906 210.773438 121.078125 211.535156 118.488281 209.441406 C 115.890625 207.335938 117.703125 201.667969 120.835938 202.835938 C 117.613281 201.222656 114.238281 199.480469 112.230469 196.488281 C 110.226562 193.5 110.164062 188.855469 113.097656 186.753906 C 109.554688 183.359375 111.5 176.902344 115.597656 174.207031 C 119.695312 171.515625 124.929688 171.503906 129.828125 171.589844 C 131.726562 165.769531 140.929688 165.917969 144.894531 170.585938 C 148.871094 175.25 149.0625 181.941406 149.097656 188.070312 C 149.132812 194.195312 149.398438 200.898438 153.453125 205.484375 C 158.652344 211.371094 163.859375 217.246094 169.058594 223.132812 C 167.570312 218.515625 166.082031 213.910156 164.59375 209.296875 C 163.65625 206.410156 164.339844 201.640625 167.265625 202.429688 C 169.683594 203.089844 169.09375 206.625 168.417969 209.039062 C 166.0625 217.5625 170.769531 227.464844 178.875 231.007812 C 178.921875 228.390625 176.394531 226.605469 174.832031 224.507812 C 173.269531 222.414062 173.578125 218.296875 176.195312 218.40625 C 175.757812 224.320312 178.964844 230.039062 183.339844 234.042969 C 187.714844 238.046875 193.160156 240.644531 198.527344 243.1875 C 199.625 238.65625 200.71875 234.125 201.8125 229.59375 C 202.386719 242.980469 209.886719 255.886719 221.238281 263.015625 C 212.496094 239.839844 196.992188 219.945312 181.703125 200.457031 C 179.742188 197.953125 177.746094 195.414062 175.175781 193.550781 C 166.921875 187.566406 160.53125 179.042969 157.113281 169.429688 C 159.925781 173.722656 164.589844 176.746094 169.65625 177.585938 C 161.25 164.226562 148.089844 153.929688 133.101562 148.992188 C 129.089844 147.675781 124.765625 146.722656 120.667969 147.761719 C 116.410156 148.84375 112.988281 151.917969 109.292969 154.296875 C 105.597656 156.675781 100.855469 158.414062 96.871094 156.546875 C 106.9375 148.050781 121.050781 144.578125 133.910156 147.441406 C 122.613281 140.414062 110.132812 131.5625 108.785156 118.320312 C 116 119.742188 116.617188 129.730469 120.726562 135.824219 C 122.953125 139.128906 126.402344 141.371094 129.753906 143.515625 C 140.304688 150.273438 150.851562 157.03125 161.402344 163.789062 C 143.539062 145.828125 140.964844 114.519531 118.976562 101.988281 C 126.714844 106.152344 133.398438 112.257812 138.234375 119.597656 C 136.292969 112.804688 135.464844 105.710938 135.753906 98.652344 C 132.839844 97.628906 130.117188 96.0625 127.765625 94.070312 C 128.972656 93.765625 130.285156 93.914062 131.398438 94.472656 C 129.433594 90.566406 127.605469 85.976562 129.316406 81.953125 C 131.027344 77.929688 138.066406 76.808594 139.359375 80.980469 C 139.667969 78.160156 139.238281 75.246094 138.125 72.628906 C 133.921875 72.542969 130.292969 69.3125 128.476562 65.519531 C 126.664062 61.726562 126.292969 57.425781 125.964844 53.238281 C 135.480469 54.882812 142.238281 65.769531 139.480469 75.015625 C 144.117188 72.628906 145.121094 66.453125 144.808594 61.242188 C 144.484375 56.039062 143.503906 50.421875 146.101562 45.898438 C 146.816406 51.550781 147.539062 57.199219 148.25 62.839844 C 150.925781 56.210938 156.472656 50.800781 163.167969 48.296875 C 156.753906 58.179688 144.445312 64.289062 141.429688 75.664062 C 140.097656 80.703125 140.921875 86.265625 143.652344 90.699219 C 137.476562 99.046875 136.734375 110.453125 139.246094 120.539062 C 141.765625 130.621094 147.160156 139.699219 152.488281 148.621094 C 139.824219 120.507812 142.800781 85.921875 160.097656 60.398438 C 163.21875 55.792969 166.914062 51.027344 166.851562 45.464844 C 166.734375 34.800781 175.148438 25.871094 184.289062 20.355469 C 189.929688 16.949219 197.082031 12.335938 195.65625 5.910156 C 198.28125 13.890625 198.65625 22.84375 195.328125 30.558594 C 192.003906 38.269531 184.625 44.453125 176.246094 45.050781 C 189.628906 41.371094 198.949219 26.671875 196.566406 13 C 189.359375 17.203125 182.039062 21.492188 176.382812 27.628906 C 170.726562 33.761719 166.878906 42.121094 168.113281 50.367188 C 179.738281 40.847656 189.105469 28.660156 195.332031 15.019531 C 190.203125 35.242188 169.328125 46.964844 158.0625 64.515625 C 146.910156 81.90625 145.9375 103.742188 146.085938 124.394531 M 109.617188 119.265625 C 109.726562 121.984375 110.386719 124.671875 111.539062 127.132812 C 112.960938 130.167969 115.230469 132.894531 118.25 134.34375 C 115.921875 131.589844 113.859375 128.605469 112.097656 125.457031 C 112.09375 125.289062 112.308594 125.1875 112.464844 125.25 C 112.621094 125.316406 112.722656 125.46875 112.796875 125.609375 C 114.527344 128.496094 116.453125 131.265625 118.554688 133.898438 C 118.597656 133.75 118.625 133.597656 118.667969 133.449219 C 117.6875 127.785156 114.34375 122.558594 109.617188 119.265625 M 220.898438 173.222656 C 218.773438 170.09375 217.015625 166.726562 215.65625 163.199219 C 217.203125 165.757812 218.742188 168.316406 220.289062 170.875 C 221.089844 172.191406 221.933594 173.566406 223.269531 174.339844 C 224.117188 174.824219 225.09375 175.035156 226.054688 175.179688 C 228.53125 175.53125 231.078125 175.449219 233.53125 174.933594 C 235.011719 174.613281 236.53125 174.113281 237.574219 173.015625 C 238.613281 171.917969 239.035156 170.101562 238.160156 168.871094 C 237.761719 168.296875 237.144531 167.917969 236.558594 167.554688 C 231.898438 164.6875 227.222656 161.796875 222.207031 159.605469 C 222.636719 159.234375 223.285156 159.433594 223.808594 159.652344 C 229.203125 161.910156 234.421875 164.601562 239.386719 167.683594 C 239.714844 164.652344 238.214844 161.632812 236.003906 159.53125 C 233.804688 157.425781 230.96875 156.113281 228.105469 155.0625 C 227.527344 154.855469 226.902344 154.648438 226.308594 154.839844 C 223.757812 155.675781 221.003906 155.582031 218.328125 155.878906 C 215.167969 156.21875 212.066406 157.089844 209.1875 158.441406 C 211.136719 156.539062 213.90625 155.777344 216.578125 155.242188 C 218.386719 154.875 220.222656 154.582031 222.058594 154.351562 C 223.847656 154.132812 225.761719 153.921875 227.152344 152.757812 C 223.902344 152.953125 220.65625 153.324219 217.433594 153.863281 C 217.207031 153.574219 217.691406 153.257812 218.058594 153.207031 C 220.332031 152.863281 222.609375 152.53125 224.882812 152.1875 C 226.851562 151.898438 228.875 151.585938 230.5625 150.554688 C 232.851562 149.164062 234.300781 146.46875 234.183594 143.789062 C 234.0625 141.109375 232.394531 138.550781 229.988281 137.371094 C 229.101562 136.9375 228.097656 136.675781 227.125 136.847656 C 225.140625 137.195312 223.890625 139.132812 222.988281 140.945312 C 222.09375 142.753906 221.132812 144.769531 219.265625 145.542969 C 221.285156 143 222.945312 140.167969 224.199219 137.175781 C 217.164062 141.21875 214.886719 150.601562 208.296875 155.359375 C 207.894531 154.835938 208.363281 154.113281 208.792969 153.609375 C 212.53125 149.226562 214.074219 143.054688 212.839844 137.421875 C 212.28125 140.15625 211.316406 142.792969 210 145.25 C 209.625 144.339844 210.0625 143.332031 210.460938 142.445312 C 211.683594 139.699219 212.652344 136.699219 212.222656 133.726562 C 211.738281 130.363281 209.542969 127.515625 207.121094 125.128906 C 205.519531 123.550781 203.496094 122.003906 201.277344 122.292969 C 198.480469 122.65625 196.863281 125.699219 196.441406 128.476562 C 195.851562 132.382812 196.710938 136.351562 197.554688 140.207031 C 195.722656 135.941406 195.214844 131.125 196.140625 126.585938 C 193.910156 128.015625 192.445312 130.558594 192.324219 133.203125 C 192.199219 135.839844 193.40625 138.519531 195.472656 140.15625 C 197.929688 142.109375 198.304688 145.929688 200.851562 147.765625 C 202.003906 148.597656 202.289062 150.183594 202.222656 151.585938 C 202.144531 152.992188 201.792969 154.414062 202.023438 155.808594 C 202.25 157.199219 203.308594 158.628906 204.726562 158.605469 C 206.277344 158.585938 207.839844 158.570312 209.335938 158.953125 C 210.828125 159.335938 212.277344 160.191406 213.046875 161.53125 C 213.820312 162.867188 213.742188 164.742188 212.617188 165.808594 C 212.101562 166.296875 212.460938 167.160156 212.886719 167.738281 C 214.640625 170.171875 217.035156 172.148438 219.765625 173.402344 C 220.1875 173.574219 220.8125 173.648438 220.898438 173.222656 M 244.066406 247.601562 C 244.960938 246.234375 245.800781 244.8125 246.304688 243.253906 C 247.382812 239.9375 246.835938 236.335938 246.273438 232.894531 C 244.238281 234.890625 242.207031 236.894531 240.171875 238.890625 C 239.820312 238.453125 240.242188 237.832031 240.652344 237.433594 C 243.265625 234.882812 245.855469 232.003906 246.585938 228.417969 C 247.027344 226.230469 246.726562 223.964844 246.648438 221.730469 C 246.511719 218.011719 246.984375 214.28125 248.046875 210.71875 C 247.777344 210.734375 247.550781 210.9375 247.367188 211.121094 C 240.253906 218.105469 235.539062 227.246094 232.476562 236.746094 C 229.414062 246.234375 227.890625 256.148438 226.386719 266.007812 C 226.332031 266.386719 226.292969 266.84375 226.597656 267.082031 C 228.589844 259.277344 232.890625 252.074219 238.816406 246.609375 C 238.960938 247.347656 238.386719 248.011719 237.867188 248.558594 C 233.167969 253.496094 229.6875 259.585938 227.816406 266.152344 C 230.339844 263.511719 232.867188 260.859375 235.390625 258.21875 C 236.519531 257.03125 237.652344 255.855469 238.730469 254.625 C 240.679688 252.421875 242.464844 250.074219 244.066406 247.601562 M 209.914062 261.96875 C 210.253906 268.210938 206.285156 274.441406 207.976562 280.472656 C 208.261719 281.496094 208.71875 282.496094 209.488281 283.222656 C 210.058594 283.773438 210.753906 284.144531 211.457031 284.523438 C 221.285156 289.914062 229.796875 297.671875 236.097656 306.9375 C 233.40625 296.1875 230.023438 285.601562 225.789062 275.359375 C 225.429688 274.496094 225.066406 273.632812 224.515625 272.871094 C 224.023438 272.199219 223.398438 271.632812 222.769531 271.09375 C 218.804688 267.625 214.488281 264.570312 209.914062 261.96875 M 229.621094 132.839844 C 229.402344 132.4375 229.722656 131.964844 230.015625 131.605469 C 231.097656 130.253906 231.902344 128.667969 232.367188 127.003906 C 232.886719 125.136719 232.929688 123 231.84375 121.390625 C 230.835938 119.894531 229.011719 119.128906 227.21875 118.972656 C 225.425781 118.820312 223.640625 119.191406 221.878906 119.5625 C 221.480469 119.648438 220.972656 119.867188 221.023438 120.28125 C 221.390625 123.144531 220.960938 126.105469 219.800781 128.753906 C 220.085938 125.773438 220.378906 122.804688 220.667969 119.820312 C 216.753906 120.867188 213.867188 124.089844 211.226562 127.15625 C 211.011719 127.402344 210.792969 127.757812 210.988281 128.023438 C 212.335938 129.835938 213.121094 132.070312 213.195312 134.332031 C 213.214844 134.84375 213.199219 135.363281 213.285156 135.871094 C 213.382812 136.398438 213.582031 136.890625 213.757812 137.402344 C 214.628906 140.011719 214.433594 142.890625 213.664062 145.53125 C 212.890625 148.171875 211.554688 150.609375 210.128906 152.960938 C 211.050781 152 211.914062 150.96875 212.695312 149.882812 C 214.445312 147.464844 215.800781 144.78125 217.46875 142.296875 C 219.132812 139.808594 221.179688 137.476562 223.859375 136.171875 C 224.453125 135.882812 225.382812 135.773438 225.585938 136.398438 C 226.925781 135.625 228.714844 135.699219 229.996094 136.5625 C 230.457031 136.875 231.109375 136.75 231.539062 136.414062 C 231.964844 136.066406 232.222656 135.554688 232.417969 135.039062 C 233.199219 132.984375 233.222656 130.660156 232.5 128.597656 C 231.851562 130.1875 230.867188 131.644531 229.621094 132.839844 M 197.699219 155.128906 C 196.199219 153.527344 193.542969 153.480469 191.621094 154.523438 C 189.695312 155.566406 188.390625 157.492188 187.4375 159.464844 C 186.347656 161.730469 185.59375 164.246094 185.894531 166.738281 C 187.253906 162.46875 190.3125 158.761719 194.246094 156.617188 C 194.3125 157.097656 193.859375 157.464844 193.464844 157.738281 C 190.96875 159.519531 188.890625 161.890625 187.449219 164.605469 C 186.980469 165.492188 186.570312 166.421875 186.359375 167.394531 C 185.820312 169.941406 186.625 172.5625 187.425781 175.042969 C 188.769531 170.179688 191.65625 165.757812 195.5625 162.570312 C 195.691406 163.0625 195.28125 163.519531 194.910156 163.882812 C 192.089844 166.59375 189.890625 169.929688 188.519531 173.59375 C 190.414062 171.839844 193.257812 171.578125 195.816406 171.863281 C 198.378906 172.148438 200.910156 172.886719 203.488281 172.78125 C 204.445312 172.746094 205.640625 172.339844 205.6875 171.375 C 205.792969 168.949219 206.652344 166.554688 208.125 164.617188 C 207.648438 166.058594 207.175781 167.503906 206.703125 168.945312 C 206.433594 169.761719 206.171875 170.695312 206.582031 171.457031 C 207.226562 171.847656 207.976562 171.167969 208.417969 170.566406 C 209.164062 169.550781 209.914062 168.539062 210.660156 167.523438 C 211.363281 166.574219 212.066406 165.613281 212.417969 164.492188 C 212.765625 163.371094 212.722656 162.054688 211.984375 161.136719 C 210.871094 159.75 208.804688 159.804688 207.039062 159.664062 C 203.53125 159.351562 200.132812 157.714844 197.699219 155.128906 M 191.152344 274.460938 C 189.324219 273.289062 187.925781 271.578125 186.429688 269.996094 C 180.578125 263.792969 173 259.246094 164.773438 256.992188 C 158.054688 255.15625 150.777344 254.753906 144.828125 251.140625 C 147.871094 253.421875 150.917969 255.710938 153.75 258.234375 C 156.886719 261.035156 159.765625 264.128906 163.085938 266.703125 C 166.402344 269.28125 170.269531 271.359375 174.464844 271.710938 C 180.089844 272.183594 185.671875 273.101562 191.152344 274.460938 M 208.078125 268.292969 C 209.425781 264.664062 208.945312 260.617188 208 256.871094 C 206.0625 249.203125 202.265625 242.015625 201.121094 234.183594 C 200.792969 237.082031 200.238281 239.957031 199.46875 242.765625 C 199.042969 244.308594 198.542969 245.84375 198.15625 247.398438 C 195.21875 259.15625 198.699219 272.320312 207.078125 281.074219 C 206.214844 276.832031 206.574219 272.347656 208.078125 268.292969 M 198.121094 299.792969 C 205.539062 299.289062 213.042969 299.8125 220.320312 301.339844 C 216.683594 298.449219 212.246094 296.585938 207.632812 296.027344 C 205.964844 295.828125 204.285156 295.789062 202.617188 295.746094 C 201.167969 295.71875 199.714844 295.679688 198.273438 295.769531 C 192.410156 296.164062 186.789062 298.664062 180.917969 298.628906 C 184.847656 301.34375 189.042969 303.664062 193.417969 305.546875 C 194.980469 306.226562 196.585938 306.847656 198.265625 307.183594 C 200.570312 307.65625 202.949219 307.574219 205.292969 307.316406 C 210.621094 306.707031 215.839844 305.121094 220.601562 302.640625 C 214.414062 300.753906 207.859375 300.65625 201.40625 300.425781 C 200.277344 300.378906 199.105469 300.324219 198.121094 299.792969 M 175.425781 85.535156 C 176.441406 85.09375 177.496094 84.664062 178.597656 84.625 C 179.710938 84.582031 180.871094 84.941406 181.9375 84.582031 C 183.066406 84.183594 183.785156 83.050781 184.109375 81.902344 C 184.449219 80.746094 184.503906 79.539062 184.804688 78.386719 C 185.613281 75.351562 188.316406 72.910156 191.421875 72.410156 C 192.019531 72.3125 192.75 72.207031 193.003906 71.65625 C 192.15625 71.832031 191.300781 72.011719 190.457031 72.195312 C 184.523438 73.464844 178.601562 74.988281 173.175781 77.691406 C 164.164062 82.175781 156.808594 89.90625 152.792969 99.128906 C 155.28125 96.035156 158.828125 93.804688 162.710938 92.902344 C 165.792969 92.183594 169.046875 92.289062 172.113281 91.515625 C 175.1875 90.738281 178.296875 88.726562 178.949219 85.625 C 174.34375 86.753906 169.925781 88.625 165.90625 91.136719 C 165.484375 90.964844 165.882812 90.339844 166.28125 90.113281 C 169.242188 88.417969 172.296875 86.894531 175.425781 85.535156 M 145.269531 202.378906 C 143.785156 201.058594 142.8125 199.167969 142.613281 197.1875 C 143.878906 197.640625 145.132812 198.085938 146.398438 198.539062 C 146.621094 196.375 145.695312 194.214844 144.339844 192.511719 C 142.980469 190.808594 141.199219 189.5 139.445312 188.203125 C 139.441406 187.929688 139.84375 187.914062 140.109375 188.011719 C 142.085938 188.734375 143.871094 189.960938 145.269531 191.539062 C 144.953125 188.777344 143.574219 186.160156 141.484375 184.324219 C 139.394531 182.492188 136.613281 181.472656 133.839844 181.515625 C 132.933594 181.53125 132.007812 181.664062 131.179688 182.023438 C 129.226562 182.886719 128.039062 184.910156 127.3125 186.910156 C 127.238281 187.105469 127.171875 187.320312 127.234375 187.523438 C 127.289062 187.710938 127.457031 187.839844 127.605469 187.953125 C 129.675781 189.59375 131.753906 191.226562 133.820312 192.863281 C 131.894531 191.65625 129.964844 190.433594 128.042969 189.222656 C 127.464844 188.855469 126.863281 188.488281 126.179688 188.386719 C 125.5 188.296875 124.71875 188.554688 124.429688 189.175781 C 125.984375 193.179688 129.273438 196.34375 133.046875 198.417969 C 136.8125 200.511719 141.042969 201.59375 145.269531 202.378906 M 237.890625 159.808594 C 238.136719 160.089844 238.414062 160.398438 238.796875 160.425781 C 238.945312 160.433594 239.089844 160.40625 239.230469 160.367188 C 241.5 159.773438 243.539062 158.316406 244.84375 156.359375 C 242.722656 155.363281 240.410156 154.75 238.0625 154.554688 C 237.582031 154.511719 236.941406 154.335938 236.980469 153.84375 C 239.359375 153.761719 241.769531 154.195312 243.976562 155.089844 C 245.394531 155.667969 247.074219 154.976562 248.089844 153.828125 C 249.101562 152.683594 249.601562 151.183594 250.046875 149.730469 C 250.46875 148.339844 250.785156 146.605469 249.714844 145.628906 C 249.207031 145.152344 248.488281 144.992188 247.796875 144.871094 C 243.730469 144.195312 239.464844 144.769531 235.707031 146.476562 C 235.640625 145.730469 236.449219 145.25 237.15625 144.980469 C 239.527344 144.085938 242.03125 143.550781 244.558594 143.378906 C 243.542969 141.996094 241.796875 141.347656 240.09375 141.148438 C 238.394531 140.949219 236.671875 141.128906 234.96875 141.058594 C 235.230469 143.277344 235.09375 145.582031 234.234375 147.644531 C 233.371094 149.707031 231.71875 151.492188 229.601562 152.207031 C 229.144531 152.363281 228.667969 152.476562 228.273438 152.75 C 227.882812 153.023438 227.601562 153.53125 227.765625 153.988281 C 231.648438 154.777344 235.269531 156.835938 237.890625 159.808594 M 190.058594 150.542969 C 183.617188 148.28125 178.167969 143.324219 175.324219 137.121094 C 175.09375 138.863281 175.03125 140.621094 175.140625 142.378906 C 175.246094 144.128906 175.570312 145.980469 176.707031 147.304688 C 179.585938 150.652344 185.765625 148.980469 188.675781 152.289062 C 189.0625 152.726562 189.363281 153.230469 189.828125 153.578125 C 190.289062 153.925781 190.984375 154.058594 191.425781 153.695312 C 192.660156 152.660156 194.464844 152.582031 196 153.082031 C 197.527344 153.585938 198.832031 154.574219 200.109375 155.554688 C 196.171875 150.96875 193.207031 145.558594 191.449219 139.765625 C 190.753906 137.476562 187.972656 136.058594 185.730469 136.882812 C 186.898438 138.917969 188.070312 140.964844 189.238281 143 C 189.976562 144.28125 190.722656 145.582031 191.753906 146.644531 C 192.660156 147.589844 193.835938 148.421875 194.085938 149.710938 C 191.625 147.578125 189.523438 145.019531 187.910156 142.183594 C 187.199219 140.945312 186.558594 139.605469 185.476562 138.667969 C 184.457031 137.777344 183.128906 137.320312 181.8125 137.03125 C 179.839844 136.582031 177.792969 136.457031 175.78125 136.660156 C 177.386719 140.261719 179.914062 143.449219 183.058594 145.808594 C 185.300781 147.492188 187.859375 148.773438 190.058594 150.542969 M 134.8125 180.203125 C 134.574219 177.355469 132.847656 174.667969 130.363281 173.265625 C 127.867188 171.867188 124.679688 171.773438 122.117188 173.046875 C 123.261719 173.726562 124.40625 174.402344 125.550781 175.078125 C 125.664062 175.253906 125.457031 175.484375 125.257812 175.496094 C 125.058594 175.507812 124.871094 175.386719 124.699219 175.277344 C 123.1875 174.339844 121.273438 174.253906 119.535156 174.652344 C 117.796875 175.054688 116.207031 175.894531 114.625 176.730469 C 113.609375 177.265625 112.550781 177.851562 111.988281 178.847656 C 111.378906 179.941406 111.507812 181.332031 112.03125 182.476562 C 112.550781 183.617188 113.410156 184.566406 114.261719 185.492188 C 114.496094 185.746094 114.796875 186.019531 115.132812 185.945312 C 117.871094 185.265625 120.894531 185.839844 123.207031 187.460938 C 123.996094 188.015625 125.15625 187.570312 125.769531 186.820312 C 126.386719 186.070312 126.648438 185.101562 127.0625 184.230469 C 128.433594 181.421875 131.746094 179.707031 134.8125 180.203125 M 171.367188 183.023438 C 177.417969 184.5 182.984375 187.917969 187.042969 192.648438 C 186.671875 189.332031 184.5 186.410156 181.804688 184.425781 C 179.105469 182.441406 175.925781 181.265625 172.753906 180.195312 C 169.585938 179.121094 166.367188 178.105469 163.492188 176.398438 C 162.253906 175.660156 161.078125 174.792969 160.019531 173.820312 C 160.738281 176.902344 162.75 179.511719 164.695312 182.007812 C 166.734375 184.625 168.800781 187.257812 171.367188 189.351562 C 173.9375 191.445312 177.101562 192.972656 180.414062 193.007812 C 182.988281 193.039062 185.535156 193.914062 187.582031 195.464844 C 184.234375 189.386719 177.609375 186.027344 171.367188 183.023438 M 122.113281 197.953125 C 122.003906 198.3125 121.472656 198.242188 121.125 198.105469 C 117.367188 196.597656 113.335938 194.867188 111.332031 191.347656 C 111.28125 193.5 112.449219 195.535156 114.042969 196.984375 C 115.632812 198.4375 117.605469 199.378906 119.582031 200.234375 C 120.664062 200.707031 121.777344 201.164062 122.945312 201.210938 C 127.660156 201.386719 132.386719 201.558594 137.105469 201.746094 C 130.875 200.03125 125.566406 195.238281 123.230469 189.214844 C 123.046875 188.742188 122.585938 188.453125 122.140625 188.21875 C 120.023438 187.136719 117.535156 186.789062 115.203125 187.238281 C 113.589844 187.546875 111.753906 188.703125 111.984375 190.332031 C 112.082031 191.078125 112.605469 191.691406 113.121094 192.222656 C 115.625 194.796875 118.726562 196.777344 122.113281 197.953125 M 147.792969 189.835938 C 147.328125 188.578125 146.570312 187.414062 146.425781 186.085938 C 146.355469 185.5 146.425781 184.898438 146.371094 184.308594 C 146.164062 182.082031 144.390625 180.324219 143.617188 178.21875 C 142.769531 175.910156 143.160156 173.277344 142.175781 171.019531 C 141.257812 168.917969 139.070312 167.40625 136.773438 167.386719 C 134.472656 167.367188 132.222656 168.902344 131.5 171.078125 C 131.273438 171.773438 131.257812 172.691406 131.871094 173.09375 C 133.84375 174.40625 135.285156 176.496094 135.785156 178.808594 C 135.96875 179.652344 136.242188 180.742188 137.105469 180.835938 C 140.777344 181.246094 143.5 184.566406 144.824219 188.019531 C 146.144531 191.476562 146.5 195.242188 147.789062 198.707031 C 148.320312 195.761719 148.835938 192.648438 147.792969 189.835938 M 187.746094 134.070312 C 187.503906 134.828125 188.1875 135.5625 188.886719 135.933594 C 189.585938 136.304688 190.421875 136.566406 190.851562 137.226562 C 190.992188 133.207031 191.917969 128.804688 195.128906 126.375 C 196.285156 125.5 196.996094 124.175781 197.9375 123.070312 C 198.867188 121.964844 200.246094 121 201.671875 121.261719 C 202.003906 121.320312 202.070312 120.804688 201.976562 120.480469 C 201.53125 118.953125 201.046875 117.414062 200.214844 116.046875 C 199.386719 114.679688 198.15625 113.503906 196.625 113.050781 C 194.035156 112.289062 191.15625 113.867188 189.796875 116.207031 C 188.433594 118.546875 188.335938 121.421875 188.785156 124.089844 C 189.234375 126.757812 190.175781 129.316406 190.769531 131.957031 C 190.8125 132.144531 190.785156 132.429688 190.59375 132.425781 C 190.164062 131.347656 189.730469 130.28125 189.304688 129.199219 C 188.78125 130.839844 188.265625 132.453125 187.746094 134.070312 M 144.4375 203.386719 C 141.492188 202.472656 138.351562 202.472656 135.273438 202.480469 C 133.210938 202.484375 131.152344 202.496094 129.09375 202.5 C 127.019531 202.503906 124.9375 202.515625 122.902344 202.917969 C 121.636719 203.171875 120.355469 203.597656 119.414062 204.476562 C 118.472656 205.359375 117.945312 206.785156 118.429688 207.988281 C 119.160156 209.84375 121.636719 210.195312 123.621094 210.007812 C 127.15625 209.675781 130.613281 208.589844 133.707031 206.835938 C 135.25 205.964844 136.769531 204.902344 138.53125 204.730469 C 137.179688 205.53125 135.816406 206.335938 134.464844 207.136719 C 137.976562 206.515625 141.375 205.238281 144.4375 203.386719 M 131.25 82.09375 C 130.347656 85.96875 131.949219 89.957031 133.757812 93.5 C 134.453125 94.863281 135.195312 96.214844 135.96875 97.554688 C 137.082031 93.109375 138.199219 88.617188 138.230469 84.027344 C 138.238281 82.824219 138.160156 81.582031 137.648438 80.496094 C 137.136719 79.410156 136.097656 78.492188 134.90625 78.445312 C 133.03125 78.367188 131.671875 80.273438 131.25 82.09375 M 134.257812 62.769531 C 134.765625 63.582031 135.234375 64.40625 135.710938 65.230469 C 136.503906 66.621094 137.289062 68.003906 138.082031 69.394531 C 138.476562 66.015625 137.402344 62.519531 135.277344 59.859375 C 133.15625 57.210938 130.023438 55.40625 126.679688 54.78125 C 127.945312 58.410156 128.941406 62.125 129.652344 65.910156 C 130.226562 68.988281 133.578125 71 136.707031 70.863281 C 136.8125 70.859375 136.929688 70.855469 137.011719 70.777344 C 137.164062 70.636719 137.085938 70.390625 136.996094 70.207031 C 134.679688 65.457031 132.328125 60.648438 128.847656 56.667969 C 128.703125 56.496094 128.609375 56.132812 128.84375 56.121094 C 130.914062 58.105469 132.734375 60.347656 134.257812 62.769531 M 192.167969 213.707031 C 192.710938 207.816406 191.105469 201.753906 187.71875 196.902344 C 186.878906 195.707031 185.507812 194.992188 184.097656 194.613281 C 182.691406 194.234375 181.230469 194.140625 179.785156 193.921875 C 179.554688 194.21875 179.753906 194.636719 179.957031 194.960938 C 183.878906 201.300781 187.953125 207.558594 192.167969 213.707031 M 207.28125 251.4375 C 208.394531 254.617188 209.242188 257.882812 209.816406 261.199219 C 214.792969 263.71875 219.441406 266.867188 223.617188 270.546875 C 223.460938 269.320312 223.007812 268.128906 222.320312 267.097656 C 221.773438 266.285156 221.089844 265.585938 220.421875 264.894531 C 216.03125 260.414062 211.652344 255.933594 207.28125 251.4375 M 198.601562 146.148438 C 198.589844 147.613281 198.496094 149.074219 198.300781 150.523438 C 197.648438 149.417969 198.027344 148.007812 198.054688 146.726562 C 198.09375 145.144531 197.527344 143.550781 196.511719 142.335938 C 195.691406 141.351562 194.582031 140.609375 193.753906 139.640625 C 192.675781 138.386719 192.058594 136.753906 192.054688 135.113281 C 191.5625 138.660156 192.910156 142.1875 194.5 145.386719 C 196.496094 149.414062 198.910156 153.230469 201.671875 156.761719 C 201.226562 154.933594 201.652344 152.992188 201.398438 151.128906 C 201.128906 149.191406 200.113281 147.375 198.601562 146.148438 M 182.152344 154.832031 C 184.171875 155.839844 186.648438 156.394531 188.65625 155.34375 C 188.949219 155.191406 189.234375 154.992188 189.324219 154.671875 C 189.464844 154.140625 188.96875 153.660156 188.511719 153.359375 C 186.28125 151.863281 183.691406 150.90625 181.023438 150.585938 C 179.546875 150.414062 178.144531 149.6875 177.164062 148.566406 C 177.101562 148.492188 177.019531 148.402344 176.917969 148.417969 C 176.742188 148.429688 176.742188 148.695312 176.800781 148.855469 C 177.492188 150.894531 178.855469 152.714844 180.628906 153.933594 C 181.113281 154.285156 181.625 154.566406 182.152344 154.832031 M 112.34375 150.699219 C 112.363281 150.65625 112.378906 150.601562 112.371094 150.546875 C 112.34375 150.398438 112.128906 150.40625 111.980469 150.460938 C 111.183594 150.734375 110.4375 151.125 109.699219 151.535156 C 108.101562 152.425781 106.570312 153.433594 105.117188 154.523438 C 104.960938 154.449219 104.789062 154.378906 104.632812 154.304688 C 106.847656 152.171875 109.519531 150.511719 112.417969 149.484375 C 112.621094 149.414062 112.804688 149.09375 112.59375 149.074219 C 110.582031 148.878906 108.5 149.355469 106.769531 150.402344 C 106.128906 150.789062 105.53125 151.257812 104.945312 151.722656 C 103.148438 153.152344 101.382812 154.640625 99.65625 156.164062 C 100.945312 156.105469 102.230469 156.011719 103.5 155.878906 C 105.550781 155.652344 107.664062 155.292969 109.398438 154.1875 C 110.714844 153.351562 111.746094 152.125 112.34375 150.699219 M 143.652344 174.96875 C 143.828125 176.390625 144.011719 177.859375 144.664062 179.132812 C 145.179688 180.125 145.949219 180.960938 146.421875 181.964844 C 147.566406 184.402344 146.898438 187.59375 148.683594 189.609375 C 148.78125 185.246094 148.066406 180.878906 146.570312 176.777344 C 145.773438 174.574219 144.726562 172.410156 143.125 170.699219 C 143.296875 172.136719 143.472656 173.546875 143.652344 174.96875 M 146.300781 64.25 C 146.476562 64.066406 146.566406 63.820312 146.636719 63.578125 C 146.898438 62.753906 147.164062 61.925781 147.25 61.066406 C 147.351562 60.09375 147.246094 59.101562 147.121094 58.128906 C 146.765625 55.390625 146.316406 52.652344 145.757812 49.953125 C 145.027344 52.566406 144.292969 55.277344 144.699219 57.960938 C 144.800781 58.644531 144.988281 59.320312 145.15625 59.988281 C 145.539062 61.410156 145.921875 62.832031 146.300781 64.25 M 157.523438 52.386719 C 156.808594 52.765625 156.078125 53.089844 155.410156 53.535156 C 153.394531 54.886719 152.160156 57.109375 151 59.242188 C 150.914062 59.40625 150.832031 59.640625 150.980469 59.753906 C 152.785156 58.609375 154.484375 57.308594 156.066406 55.875 C 157.714844 54.367188 159.242188 52.6875 160.246094 50.695312 C 159.382812 51.328125 158.472656 51.886719 157.523438 52.386719 M 130.183594 81.867188 C 128.859375 83.90625 129.320312 86.566406 129.863281 88.9375 C 130.019531 89.597656 130.175781 90.261719 130.417969 90.894531 C 130.902344 92.132812 131.703125 93.222656 132.496094 94.289062 C 132.609375 94.441406 132.726562 94.589844 132.839844 94.742188 C 133.308594 95.375 133.808594 96.03125 134.53125 96.371094 C 133.898438 95.183594 133.277344 93.996094 132.6875 92.792969 C 131.683594 90.785156 130.742188 88.714844 130.398438 86.5 C 130.136719 84.820312 130.253906 83.089844 130.71875 81.457031 C 130.484375 81.46875 130.304688 81.667969 130.183594 81.867188 M 141.335938 92.375 C 141.410156 92.253906 141.441406 92.109375 141.472656 91.964844 C 141.824219 90.28125 142.082031 88.542969 141.847656 86.832031 C 141.710938 85.824219 141.402344 84.84375 140.953125 83.929688 C 140.878906 83.789062 140.75 83.632812 140.609375 83.707031 C 140.496094 83.757812 140.496094 83.925781 140.515625 84.050781 C 140.96875 86.957031 140.511719 90 139.210938 92.640625 C 138.992188 93.089844 138.753906 93.65625 139.066406 94.058594 C 139.699219 93.617188 140.332031 93.183594 140.953125 92.742188 C 141.089844 92.632812 141.246094 92.527344 141.335938 92.375 M 176.222656 247.746094 C 176.113281 247.699219 175.988281 247.660156 175.871094 247.703125 C 175.765625 247.742188 175.695312 247.839844 175.632812 247.933594 C 174.878906 249.070312 174.941406 250.703125 175.789062 251.773438 C 176.191406 252.300781 176.890625 252.574219 177.542969 252.484375 C 177.953125 252.429688 178.378906 252.179688 178.460938 251.777344 C 178.75 250.125 177.765625 248.363281 176.222656 247.746094 M 144.210938 198.757812 C 144.058594 198.800781 144.09375 199.027344 144.164062 199.15625 C 144.480469 199.761719 144.894531 200.320312 145.367188 200.820312 C 146.632812 202.171875 148.296875 203.152344 150.089844 203.609375 C 150.222656 203.644531 150.378906 203.671875 150.496094 203.605469 C 149.730469 202.574219 148.949219 201.550781 148.183594 200.519531 C 148.023438 200.316406 147.875 200.105469 147.675781 199.949219 C 147.308594 199.625 146.8125 199.480469 146.34375 199.351562 C 145.6875 199.15625 145.019531 198.96875 144.363281 198.773438 C 144.316406 198.753906 144.265625 198.738281 144.210938 198.757812 M 202.703125 121.164062 C 204.105469 121.53125 205.449219 122.160156 206.632812 123.015625 C 206.15625 120.636719 204.460938 118.539062 202.238281 117.558594 C 202.097656 117.5 201.941406 117.4375 201.796875 117.464844 C 201.648438 117.492188 201.523438 117.671875 201.582031 117.804688 C 201.746094 118.15625 201.914062 118.488281 202.078125 118.835938 C 202.316406 119.339844 202.574219 119.878906 202.507812 120.429688 C 202.480469 120.71875 202.4375 121.09375 202.703125 121.164062 M 179.269531 247.578125 C 178.746094 247.492188 178.222656 247.40625 177.6875 247.320312 C 177.683594 247.574219 177.875 247.769531 178.039062 247.960938 C 179.105469 249.113281 179.589844 250.757812 179.34375 252.296875 C 179.316406 252.488281 179.3125 252.742188 179.5 252.792969 C 179.570312 252.816406 179.652344 252.785156 179.71875 252.761719 C 180.378906 252.535156 181.066406 252.15625 181.296875 251.496094 C 181.375 251.25 181.386719 250.984375 181.390625 250.730469 C 181.390625 249.566406 181.078125 248.207031 180.007812 247.765625 C 179.765625 247.660156 179.511719 247.621094 179.269531 247.578125 M 137.945312 94.34375 C 138.34375 92.894531 138.785156 91.464844 139.292969 90.046875 C 140.214844 87.457031 140.199219 84.5625 139.242188 81.984375 C 139.175781 81.804688 139.023438 81.582031 138.839844 81.636719 C 138.625 81.703125 138.667969 82.023438 138.75 82.246094 C 139.0625 83.113281 139.039062 84.070312 138.976562 84.992188 C 138.800781 87.789062 138.378906 90.566406 137.71875 93.289062 C 137.628906 93.667969 137.597656 94.171875 137.945312 94.34375 M 137.53125 97.277344 C 137.90625 96.949219 138.386719 96.785156 138.84375 96.585938 C 139.792969 96.171875 140.65625 95.570312 141.382812 94.828125 C 142.097656 94.089844 142.667969 93.210938 143.226562 92.339844 C 143.332031 92.167969 143.335938 91.84375 143.148438 91.886719 C 143.117188 91.898438 143.085938 91.910156 143.058594 91.933594 C 141.828125 92.808594 140.617188 93.703125 139.414062 94.617188 C 138.539062 95.28125 137.660156 95.972656 137.085938 96.898438 C 136.972656 97.082031 136.90625 97.371094 137.105469 97.453125 C 137.265625 97.527344 137.40625 97.394531 137.53125 97.277344 M 150.582031 204.664062 C 150.738281 204.535156 150.492188 204.324219 150.300781 204.285156 C 149.203125 204.035156 148.109375 203.796875 147.023438 203.542969 C 146.785156 203.484375 146.539062 203.429688 146.296875 203.433594 C 145.308594 203.417969 144.515625 204.171875 143.824219 204.878906 C 145.039062 205.386719 146.40625 205.226562 147.714844 205.066406 C 148.632812 204.949219 149.539062 204.835938 150.453125 204.710938 C 150.484375 204.699219 150.53125 204.695312 150.582031 204.664062 M 148.417969 216.777344 C 148.144531 216.816406 147.796875 217.085938 148.003906 217.261719 C 148.109375 217.355469 148.277344 217.285156 148.421875 217.253906 C 149.011719 217.125 149.472656 217.738281 149.746094 218.261719 C 150.070312 218.863281 150.410156 219.535156 150.269531 220.207031 C 150.238281 220.351562 150.195312 220.535156 150.304688 220.636719 C 150.398438 220.734375 150.566406 220.699219 150.691406 220.644531 C 151.332031 220.363281 151.808594 219.722656 151.878906 219.027344 C 151.960938 218.324219 151.640625 217.601562 151.078125 217.179688 C 150.351562 216.628906 149.34375 216.65625 148.417969 216.777344 M 164.511719 205.621094 C 164.265625 206.199219 164.558594 206.910156 165.074219 207.273438 C 165.589844 207.640625 166.277344 207.691406 166.890625 207.5625 C 167.386719 207.46875 167.878906 207.242188 168.144531 206.824219 C 168.414062 206.402344 168.316406 205.742188 167.855469 205.523438 C 167.796875 205.496094 167.730469 205.476562 167.667969 205.472656 C 167.445312 205.445312 167.226562 205.574219 167.015625 205.648438 C 166.535156 205.824219 165.976562 205.738281 165.5625 205.445312 C 165.414062 205.339844 165.285156 205.207031 165.109375 205.1875 C 164.855469 205.148438 164.609375 205.367188 164.511719 205.621094 M 148.15625 220.695312 C 148.628906 220.875 149.230469 220.824219 149.523438 220.40625 C 149.789062 220.007812 149.667969 219.476562 149.492188 219.027344 C 149.371094 218.722656 149.238281 218.421875 149.023438 218.1875 C 148.640625 217.761719 148.03125 217.566406 147.472656 217.683594 C 147.316406 217.714844 147.203125 217.863281 147.125 218.011719 C 146.632812 218.96875 147.152344 220.304688 148.15625 220.695312 M 203.597656 240.429688 C 203.515625 239.273438 203.421875 238.121094 203.339844 236.964844 C 203.273438 236.015625 202.921875 235.113281 202.578125 234.230469 C 202.414062 233.808594 202.191406 233.328125 201.746094 233.222656 C 202.066406 235.636719 202.5625 238.035156 203.242188 240.378906 C 203.285156 240.53125 203.449219 240.714844 203.554688 240.605469 C 203.609375 240.558594 203.605469 240.488281 203.597656 240.429688 M 160.589844 224.351562 C 160.425781 224.363281 160.261719 224.398438 160.160156 224.519531 C 160.058594 224.636719 160.070312 224.863281 160.210938 224.917969 C 161.160156 225.332031 161.757812 226.410156 161.609375 227.433594 C 161.597656 227.558594 161.75 227.648438 161.871094 227.628906 C 161.992188 227.59375 162.089844 227.5 162.164062 227.402344 C 162.582031 226.902344 163.023438 226.300781 162.851562 225.664062 C 162.800781 225.457031 162.6875 225.269531 162.546875 225.117188 C 162.0625 224.574219 161.3125 224.292969 160.589844 224.351562 M 167.066406 204.828125 C 167.324219 204.6875 167.539062 204.488281 167.703125 204.238281 C 167.933594 203.878906 167.503906 203.457031 167.121094 203.296875 C 166.550781 203.046875 165.777344 202.957031 165.394531 203.453125 C 165.082031 203.855469 165.242188 204.492188 165.648438 204.789062 C 166.03125 205.082031 166.609375 205.0625 167.066406 204.828125 M 134.65625 97.707031 C 134.847656 97.777344 135.152344 97.789062 135.1875 97.585938 C 133.601562 96.382812 131.875 95.355469 130.050781 94.527344 C 129.867188 94.449219 129.660156 94.371094 129.484375 94.445312 C 129.296875 94.523438 129.257812 94.851562 129.445312 94.902344 C 131.351562 95.4375 132.8125 96.980469 134.65625 97.707031 M 160.886719 227.550781 C 161.246094 226.761719 160.792969 225.703125 159.964844 225.441406 C 159.667969 225.34375 159.394531 225.683594 159.328125 225.996094 C 159.1875 226.632812 159.464844 227.371094 160.046875 227.6875 C 160.320312 227.839844 160.75 227.839844 160.886719 227.550781 M 174.171875 220.828125 C 174.453125 221.074219 174.894531 220.972656 175.214844 220.796875 C 175.71875 220.53125 176.125 220.097656 176.386719 219.59375 C 176.113281 219.273438 175.617188 219.261719 175.203125 219.339844 C 174.832031 219.402344 174.441406 219.519531 174.183594 219.804688 C 173.9375 220.085938 173.890625 220.582031 174.171875 220.828125 M 174.050781 221.988281 C 174.417969 222.441406 175.085938 222.632812 175.636719 222.429688 C 176.191406 222.230469 176.597656 221.664062 176.589844 221.082031 C 176.585938 221.046875 176.582031 221 176.570312 220.96875 C 176.503906 220.847656 176.328125 220.886719 176.191406 220.949219 C 175.480469 221.300781 174.765625 221.644531 174.050781 221.988281 M 151.453125 205.320312 C 151.605469 205.445312 151.882812 205.34375 151.917969 205.152344 C 151.769531 205.039062 151.496094 205.136719 151.453125 205.320312 Z M 151.453125 205.320312 " fill-opacity="1" fill-rule="nonzero"/></g></g></g></svg>