<svg xmlns="http://www.w3.org/2000/svg" xmlns:xlink="http://www.w3.org/1999/xlink" width="500" zoomAndPan="magnify" viewBox="0 0 375 374.999991" height="500" preserveAspectRatio="xMidYMid meet" version="1.0"><defs><clipPath id="cd51fa5618"><path d="M 167 142 L 171 142 L 171 148 L 167 148 Z M 167 142 " clip-rule="nonzero"/></clipPath><clipPath id="2b28cf9d6f"><path d="M 176.601562 3.996094 L 316.296875 56.535156 L 198.011719 371.027344 L 58.316406 318.484375 Z M 176.601562 3.996094 " clip-rule="nonzero"/></clipPath><clipPath id="0bcbb5ab4c"><path d="M 316.625 56.660156 L 176.929688 4.117188 L 58.644531 318.609375 L 198.339844 371.152344 Z M 316.625 56.660156 " clip-rule="nonzero"/></clipPath><clipPath id="fc4c2cdf35"><path d="M 171 144 L 173 144 L 173 150 L 171 150 Z M 171 144 " clip-rule="nonzero"/></clipPath><clipPath id="fd530d5655"><path d="M 176.601562 3.996094 L 316.296875 56.535156 L 198.011719 371.027344 L 58.316406 318.484375 Z M 176.601562 3.996094 " clip-rule="nonzero"/></clipPath><clipPath id="26212a0043"><path d="M 316.625 56.660156 L 176.929688 4.117188 L 58.644531 318.609375 L 198.339844 371.152344 Z M 316.625 56.660156 " clip-rule="nonzero"/></clipPath><clipPath id="4de571d223"><path d="M 171 152 L 173 152 L 173 158 L 171 158 Z M 171 152 " clip-rule="nonzero"/></clipPath><clipPath id="7ee0834ae8"><path d="M 176.601562 3.996094 L 316.296875 56.535156 L 198.011719 371.027344 L 58.316406 318.484375 Z M 176.601562 3.996094 " clip-rule="nonzero"/></clipPath><clipPath id="50471a1107"><path d="M 316.625 56.660156 L 176.929688 4.117188 L 58.644531 318.609375 L 198.339844 371.152344 Z M 316.625 56.660156 " clip-rule="nonzero"/></clipPath><clipPath id="2b9f3a80bc"><path d="M 165 155 L 168 155 L 168 159 L 165 159 Z M 165 155 " clip-rule="nonzero"/></clipPath><clipPath id="8189065192"><path d="M 176.601562 3.996094 L 316.296875 56.535156 L 198.011719 371.027344 L 58.316406 318.484375 Z M 176.601562 3.996094 " clip-rule="nonzero"/></clipPath><clipPath id="5ef4ce91c8"><path d="M 316.625 56.660156 L 176.929688 4.117188 L 58.644531 318.609375 L 198.339844 371.152344 Z M 316.625 56.660156 " clip-rule="nonzero"/></clipPath><clipPath id="d29ada7462"><path d="M 167 154 L 170 154 L 170 158 L 167 158 Z M 167 154 " clip-rule="nonzero"/></clipPath><clipPath id="6b77235445"><path d="M 176.601562 3.996094 L 316.296875 56.535156 L 198.011719 371.027344 L 58.316406 318.484375 Z M 176.601562 3.996094 " clip-rule="nonzero"/></clipPath><clipPath id="6875c46638"><path d="M 316.625 56.660156 L 176.929688 4.117188 L 58.644531 318.609375 L 198.339844 371.152344 Z M 316.625 56.660156 " clip-rule="nonzero"/></clipPath><clipPath id="04882e8ba1"><path d="M 162 151 L 164 151 L 164 155 L 162 155 Z M 162 151 " clip-rule="nonzero"/></clipPath><clipPath id="7989733843"><path d="M 176.601562 3.996094 L 316.296875 56.535156 L 198.011719 371.027344 L 58.316406 318.484375 Z M 176.601562 3.996094 " clip-rule="nonzero"/></clipPath><clipPath id="6a2a9e3fa4"><path d="M 316.625 56.660156 L 176.929688 4.117188 L 58.644531 318.609375 L 198.339844 371.152344 Z M 316.625 56.660156 " clip-rule="nonzero"/></clipPath><clipPath id="d9fa047fbe"><path d="M 159 147 L 161 147 L 161 150 L 159 150 Z M 159 147 " clip-rule="nonzero"/></clipPath><clipPath id="f90ced270d"><path d="M 176.601562 3.996094 L 316.296875 56.535156 L 198.011719 371.027344 L 58.316406 318.484375 Z M 176.601562 3.996094 " clip-rule="nonzero"/></clipPath><clipPath id="950f6f1e3a"><path d="M 316.625 56.660156 L 176.929688 4.117188 L 58.644531 318.609375 L 198.339844 371.152344 Z M 316.625 56.660156 " clip-rule="nonzero"/></clipPath><clipPath id="c5d6553597"><path d="M 166 147 L 168 147 L 168 151 L 166 151 Z M 166 147 " clip-rule="nonzero"/></clipPath><clipPath id="d26d114672"><path d="M 176.601562 3.996094 L 316.296875 56.535156 L 198.011719 371.027344 L 58.316406 318.484375 Z M 176.601562 3.996094 " clip-rule="nonzero"/></clipPath><clipPath id="141cd59d58"><path d="M 316.625 56.660156 L 176.929688 4.117188 L 58.644531 318.609375 L 198.339844 371.152344 Z M 316.625 56.660156 " clip-rule="nonzero"/></clipPath><clipPath id="24a5865a3e"><path d="M 170 155 L 172 155 L 172 158 L 170 158 Z M 170 155 " clip-rule="nonzero"/></clipPath><clipPath id="fe587bc459"><path d="M 176.601562 3.996094 L 316.296875 56.535156 L 198.011719 371.027344 L 58.316406 318.484375 Z M 176.601562 3.996094 " clip-rule="nonzero"/></clipPath><clipPath id="73733b3385"><path d="M 316.625 56.660156 L 176.929688 4.117188 L 58.644531 318.609375 L 198.339844 371.152344 Z M 316.625 56.660156 " clip-rule="nonzero"/></clipPath><clipPath id="d530ecb414"><path d="M 169 152 L 171 152 L 171 156 L 169 156 Z M 169 152 " clip-rule="nonzero"/></clipPath><clipPath id="9e37b180c5"><path d="M 176.601562 3.996094 L 316.296875 56.535156 L 198.011719 371.027344 L 58.316406 318.484375 Z M 176.601562 3.996094 " clip-rule="nonzero"/></clipPath><clipPath id="32a2f97c76"><path d="M 316.625 56.660156 L 176.929688 4.117188 L 58.644531 318.609375 L 198.339844 371.152344 Z M 316.625 56.660156 " clip-rule="nonzero"/></clipPath><clipPath id="f38fdfed75"><path d="M 158 132 L 161 132 L 161 137 L 158 137 Z M 158 132 " clip-rule="nonzero"/></clipPath><clipPath id="acca3bfa4a"><path d="M 176.601562 3.996094 L 316.296875 56.535156 L 198.011719 371.027344 L 58.316406 318.484375 Z M 176.601562 3.996094 " clip-rule="nonzero"/></clipPath><clipPath id="97531909c7"><path d="M 316.625 56.660156 L 176.929688 4.117188 L 58.644531 318.609375 L 198.339844 371.152344 Z M 316.625 56.660156 " clip-rule="nonzero"/></clipPath><clipPath id="188e07bb1c"><path d="M 124 5 L 279 5 L 279 344 L 124 344 Z M 124 5 " clip-rule="nonzero"/></clipPath><clipPath id="26e28902ab"><path d="M 176.601562 3.996094 L 316.296875 56.535156 L 198.011719 371.027344 L 58.316406 318.484375 Z M 176.601562 3.996094 " clip-rule="nonzero"/></clipPath><clipPath id="8ac3fab6f5"><path d="M 316.625 56.660156 L 176.929688 4.117188 L 58.644531 318.609375 L 198.339844 371.152344 Z M 316.625 56.660156 " clip-rule="nonzero"/></clipPath></defs><g clip-path="url(#cd51fa5618)"><g clip-path="url(#2b28cf9d6f)"><g clip-path="url(#0bcbb5ab4c)"><path fill="#e5dfd0" d="M 168.515625 144.621094 C 168.722656 144.132812 169.214844 143.785156 169.742188 143.730469 C 170.152344 143.695312 170.390625 143.15625 170.199219 142.796875 C 169.945312 142.328125 169.210938 142.328125 168.792969 142.664062 C 168.378906 143.003906 168.195312 143.546875 168.046875 144.070312 C 167.765625 145.046875 167.511719 146.167969 168.023438 147.046875 C 168.28125 146.265625 168.460938 145.441406 168.515625 144.621094 Z M 168.515625 144.621094 " fill-opacity="1" fill-rule="nonzero"/></g></g></g><g clip-path="url(#fc4c2cdf35)"><g clip-path="url(#fd530d5655)"><g clip-path="url(#26212a0043)"><path fill="#e5dfd0" d="M 172.285156 146.507812 C 172.6875 147.609375 171.9375 148.867188 172.273438 149.996094 C 172.910156 148.585938 173.097656 146.96875 172.808594 145.4375 C 172.753906 145.167969 172.671875 144.871094 172.484375 144.667969 C 172.226562 144.390625 171.734375 144.351562 171.449219 144.601562 C 171.171875 144.859375 171.191406 145.386719 171.515625 145.578125 C 171.871094 145.785156 172.144531 146.117188 172.285156 146.507812 Z M 172.285156 146.507812 " fill-opacity="1" fill-rule="nonzero"/></g></g></g><g clip-path="url(#4de571d223)"><g clip-path="url(#7ee0834ae8)"><g clip-path="url(#50471a1107)"><path fill="#e5dfd0" d="M 171.519531 152.925781 C 171.285156 153.136719 171.292969 153.527344 171.425781 153.816406 C 171.558594 154.109375 171.761719 154.367188 171.882812 154.652344 C 172.269531 155.605469 171.617188 156.765625 172.035156 157.707031 C 172.527344 156.589844 172.777344 155.375 172.753906 154.160156 C 172.75 153.785156 172.714844 153.398438 172.492188 153.097656 C 172.261719 152.808594 171.792969 152.679688 171.519531 152.925781 Z M 171.519531 152.925781 " fill-opacity="1" fill-rule="nonzero"/></g></g></g><g clip-path="url(#2b9f3a80bc)"><g clip-path="url(#8189065192)"><g clip-path="url(#5ef4ce91c8)"><path fill="#e5dfd0" d="M 167.75 157.769531 C 167.738281 157.667969 167.65625 157.601562 167.574219 157.523438 C 166.894531 156.90625 166.417969 156.050781 166.242188 155.144531 C 165.855469 155.179688 165.578125 155.566406 165.5625 155.960938 C 165.546875 156.351562 165.75 156.714844 165.988281 157.007812 C 166.289062 157.386719 166.664062 157.710938 167.085938 157.929688 C 167.332031 158.070312 167.789062 158.046875 167.75 157.769531 Z M 167.75 157.769531 " fill-opacity="1" fill-rule="nonzero"/></g></g></g><g clip-path="url(#d29ada7462)"><g clip-path="url(#6b77235445)"><g clip-path="url(#6875c46638)"><path fill="#e5dfd0" d="M 169.023438 156.9375 C 168.933594 156.347656 168.839844 155.757812 168.765625 155.164062 C 168.726562 154.882812 168.300781 154.796875 168.074219 154.976562 C 167.851562 155.15625 167.804688 155.476562 167.828125 155.761719 C 167.867188 156.367188 168.152344 156.945312 168.601562 157.355469 C 168.648438 157.394531 168.703125 157.441406 168.769531 157.453125 C 168.996094 157.492188 169.0625 157.15625 169.023438 156.9375 Z M 169.023438 156.9375 " fill-opacity="1" fill-rule="nonzero"/></g></g></g><g clip-path="url(#04882e8ba1)"><g clip-path="url(#7989733843)"><g clip-path="url(#6a2a9e3fa4)"><path fill="#e5dfd0" d="M 162.40625 153.277344 C 162.617188 153.742188 162.816406 154.203125 163.027344 154.667969 C 163.132812 154.898438 163.519531 154.828125 163.632812 154.59375 C 163.742188 154.371094 163.640625 154.09375 163.507812 153.875 C 163.371094 153.652344 163.203125 153.457031 163.144531 153.207031 C 163.050781 152.773438 163.269531 152.171875 162.867188 151.984375 C 162.589844 151.855469 162.273438 152.121094 162.214844 152.410156 C 162.164062 152.707031 162.289062 153.007812 162.40625 153.277344 Z M 162.40625 153.277344 " fill-opacity="1" fill-rule="nonzero"/></g></g></g><g clip-path="url(#d9fa047fbe)"><g clip-path="url(#f90ced270d)"><g clip-path="url(#950f6f1e3a)"><path fill="#e5dfd0" d="M 159.808594 147.054688 C 159.5625 147.007812 159.332031 147.234375 159.289062 147.480469 C 159.230469 147.726562 159.316406 147.984375 159.394531 148.222656 C 159.597656 148.804688 159.832031 149.359375 160.109375 149.910156 C 160.363281 149.835938 160.4375 149.515625 160.378906 149.253906 C 160.316406 149 160.175781 148.769531 160.140625 148.511719 C 160.101562 148.234375 160.199219 147.96875 160.207031 147.695312 C 160.214844 147.421875 160.082031 147.09375 159.808594 147.054688 Z M 159.808594 147.054688 " fill-opacity="1" fill-rule="nonzero"/></g></g></g><g clip-path="url(#c5d6553597)"><g clip-path="url(#d26d114672)"><g clip-path="url(#141cd59d58)"><path fill="#e5dfd0" d="M 166.605469 147.585938 C 166.40625 147.632812 166.320312 147.863281 166.28125 148.066406 C 166.097656 148.996094 166.273438 150 166.789062 150.808594 C 167.054688 150.644531 167.082031 150.257812 167 149.960938 C 166.921875 149.65625 166.769531 149.355469 166.792969 149.039062 C 166.820312 148.738281 167.003906 148.480469 167.054688 148.1875 C 167.105469 147.894531 166.886719 147.511719 166.605469 147.585938 Z M 166.605469 147.585938 " fill-opacity="1" fill-rule="nonzero"/></g></g></g><g clip-path="url(#24a5865a3e)"><g clip-path="url(#fe587bc459)"><g clip-path="url(#73733b3385)"><path fill="#e5dfd0" d="M 170.203125 157.992188 C 170.425781 158.015625 170.605469 157.820312 170.734375 157.640625 C 171.195312 156.992188 171.625 156.109375 171.1875 155.4375 C 170.734375 155.460938 170.550781 156.015625 170.464844 156.464844 C 170.382812 156.976562 170.296875 157.488281 170.203125 157.992188 Z M 170.203125 157.992188 " fill-opacity="1" fill-rule="nonzero"/></g></g></g><g clip-path="url(#d530ecb414)"><g clip-path="url(#9e37b180c5)"><g clip-path="url(#32a2f97c76)"><path fill="#e5dfd0" d="M 169.496094 155.910156 C 169.695312 155.984375 169.839844 155.726562 169.894531 155.515625 C 170.082031 154.769531 170.277344 154.023438 170.460938 153.273438 C 170.492188 153.164062 170.5 153.011719 170.386719 152.957031 C 170.335938 152.9375 170.28125 152.953125 170.238281 152.972656 C 169.707031 153.171875 169.554688 153.824219 169.488281 154.390625 C 169.441406 154.746094 169.398438 155.113281 169.347656 155.46875 C 169.335938 155.632812 169.339844 155.839844 169.496094 155.910156 Z M 169.496094 155.910156 " fill-opacity="1" fill-rule="nonzero"/></g></g></g><g clip-path="url(#f38fdfed75)"><g clip-path="url(#acca3bfa4a)"><g clip-path="url(#97531909c7)"><path fill="#e5dfd0" d="M 158.71875 136.128906 C 158.707031 136.320312 158.691406 136.519531 158.785156 136.6875 C 158.878906 136.851562 159.125 136.933594 159.261719 136.792969 C 159.34375 136.703125 159.34375 136.582031 159.339844 136.460938 C 159.320312 135.839844 159.21875 135.210938 159.347656 134.609375 C 159.480469 134.007812 159.917969 133.414062 160.535156 133.347656 C 160.710938 132.847656 160.148438 132.261719 159.644531 132.421875 C 159.097656 132.589844 158.960938 133.273438 158.917969 133.835938 C 158.847656 134.601562 158.785156 135.375 158.71875 136.128906 Z M 158.71875 136.128906 " fill-opacity="1" fill-rule="nonzero"/></g></g></g><g clip-path="url(#188e07bb1c)"><g clip-path="url(#26e28902ab)"><g clip-path="url(#8ac3fab6f5)"><path fill="#e5dfd0" d="M 229.6875 124.945312 C 230.378906 110.949219 225.171875 96.746094 215.601562 86.5 C 206.027344 76.261719 192.203125 70.113281 178.191406 69.851562 C 183.617188 71.015625 188.378906 74.910156 190.59375 79.996094 C 192.957031 85.398438 197.566406 89.792969 203.078125 91.878906 C 206.789062 93.285156 210.828125 93.683594 214.496094 95.199219 C 224.546875 99.339844 229.628906 111.171875 229.226562 122.039062 C 228.824219 132.902344 224.078125 143.0625 219.421875 152.882812 C 220.320312 143.902344 218.175781 134.652344 213.425781 126.980469 C 223.972656 145.550781 215.511719 172.277344 196.191406 181.386719 C 186.046875 186.167969 185.191406 199.835938 181.839844 210.542969 C 178.820312 220.207031 172.585938 228.84375 164.371094 234.773438 C 172.691406 215.6875 175.867188 194.378906 173.460938 173.691406 C 178.242188 171.382812 184.402344 172.292969 188.3125 175.894531 C 190.894531 169.859375 190.605469 162.65625 187.550781 156.847656 C 193.113281 157.015625 198.601562 153.46875 200.734375 148.335938 C 202.277344 144.652344 201.992188 140.03125 199.296875 137.078125 C 196.601562 134.136719 191.3125 133.6875 188.6875 136.699219 C 188.367188 131.375 188.03125 126.0625 187.707031 120.738281 C 187.578125 118.679688 187.414062 116.496094 186.222656 114.796875 C 183.5 110.929688 177.167969 112.078125 173.742188 115.328125 C 170.300781 118.585938 168.511719 123.210938 165.394531 126.769531 C 162.777344 123.667969 160.085938 120.488281 156.496094 118.605469 C 152.90625 116.714844 148.179688 116.417969 145.011719 118.945312 C 139.980469 122.976562 141.652344 130.890625 143.769531 136.972656 C 140.746094 139.738281 136.269531 139.957031 132.289062 140.902344 C 128.292969 141.855469 123.910156 144.605469 124.066406 148.707031 C 124.183594 151.785156 126.824219 154.078125 129.242188 155.976562 C 131.597656 157.8125 133.949219 159.660156 136.292969 161.492188 C 133.046875 165.003906 134.257812 171.203125 138.035156 174.152344 C 141.804688 177.097656 147.203125 177.214844 151.710938 175.601562 C 156.21875 173.984375 160.015625 170.898438 163.671875 167.804688 C 169.730469 171.515625 172.925781 178.738281 173.539062 185.808594 C 174.15625 192.878906 172.558594 199.949219 170.976562 206.867188 C 166.574219 197.867188 158.324219 190.828125 148.753906 187.878906 C 158.222656 192.726562 168.933594 199.367188 169.6875 209.980469 C 169.917969 213.308594 169.082031 216.617188 168.183594 219.832031 C 163.410156 237.011719 156.824219 253.691406 148.585938 269.507812 C 148.523438 247.390625 140.863281 225.378906 127.1875 207.988281 C 124.859375 223.007812 122.988281 239.929688 132.253906 251.976562 C 135.296875 255.925781 139.332031 259.019531 142.425781 262.929688 C 145.515625 266.847656 147.617188 272.144531 145.886719 276.8125 C 137.757812 298.644531 131.078125 321.019531 125.90625 343.730469 C 129.277344 333.644531 132.644531 323.570312 136.019531 313.484375 C 137.082031 310.308594 138.277344 306.929688 140.921875 304.867188 C 147.613281 299.652344 156.78125 306.207031 165.078125 308.027344 C 176.269531 310.480469 187.183594 303.675781 196.632812 297.1875 C 187.828125 297.574219 179.214844 294.261719 170.402344 294.378906 C 160.289062 294.511719 150.835938 299.09375 141.765625 303.582031 C 152.949219 288.632812 169.90625 278.128906 188.265625 274.777344 C 194.03125 273.71875 200 273.3125 205.375 270.988281 C 216.269531 266.261719 222.949219 254.398438 234.074219 250.261719 C 221.152344 252.734375 207.917969 255.332031 196.695312 262.1875 C 186.296875 268.546875 177.84375 278.441406 166.203125 282.082031 C 173.777344 275.359375 178.25 265.253906 178.125 255.128906 C 182.527344 253.789062 186.949219 252.441406 191.355469 251.097656 C 192.917969 253.984375 197.738281 254.644531 199.472656 251.851562 C 201.199219 249.058594 197.195312 244.855469 194.613281 246.882812 C 189.804688 250.671875 184.050781 253.265625 178.011719 254.339844 C 177.503906 251.078125 176.984375 247.8125 176.476562 244.550781 C 182.433594 240.304688 189.804688 238.089844 197.125 238.351562 C 193.535156 237.300781 189.566406 237.566406 186.140625 239.097656 C 194.101562 232.144531 204.21875 224.703125 214.238281 228.0625 C 215.929688 228.625 216.628906 225.449219 215.097656 224.53125 C 213.5625 223.617188 211.609375 224.363281 209.988281 225.117188 C 208.371094 225.867188 206.414062 226.613281 204.878906 225.699219 C 208.214844 218.621094 218.96875 216.574219 224.671875 221.933594 C 226.511719 223.660156 229.183594 219.730469 227.480469 217.859375 C 225.773438 215.992188 222.746094 216.394531 220.351562 217.214844 C 217.960938 218.039062 215.328125 219.117188 213.003906 218.125 C 214.128906 211.671875 220.898438 207.476562 227.417969 206.941406 C 233.941406 206.410156 240.339844 208.636719 246.597656 210.566406 C 249.792969 211.550781 253.578125 212.363281 256.199219 210.300781 C 258.820312 208.226562 257.082031 202.542969 253.933594 203.671875 C 257.175781 202.097656 260.570312 200.398438 262.613281 197.433594 C 264.65625 194.46875 264.773438 189.832031 261.871094 187.691406 C 265.453125 184.34375 263.59375 177.863281 259.53125 175.121094 C 255.472656 172.375 250.238281 172.300781 245.339844 172.324219 C 243.515625 166.484375 234.316406 166.515625 230.292969 171.128906 C 226.257812 175.742188 225.984375 182.429688 225.871094 188.550781 C 225.761719 194.675781 225.410156 201.371094 221.296875 205.902344 C 216.027344 211.722656 210.746094 217.527344 205.476562 223.347656 C 207.023438 218.753906 208.566406 214.167969 210.117188 209.570312 C 211.089844 206.699219 210.464844 201.925781 207.53125 202.675781 C 205.105469 203.304688 205.652344 206.84375 206.292969 209.265625 C 208.542969 217.816406 203.710938 227.65625 195.566406 231.09375 C 195.550781 228.476562 198.101562 226.726562 199.6875 224.648438 C 201.277344 222.574219 201.019531 218.457031 198.402344 218.53125 C 198.765625 224.449219 195.484375 230.125 191.0625 234.074219 C 186.640625 238.019531 181.164062 240.546875 175.765625 243.019531 C 174.730469 238.476562 173.695312 233.933594 172.65625 229.390625 C 171.914062 242.761719 164.253906 255.570312 152.816406 262.550781 C 161.847656 239.496094 177.597656 219.808594 193.125 200.519531 C 195.117188 198.042969 197.144531 195.53125 199.734375 193.699219 C 208.0625 187.824219 214.558594 179.382812 218.097656 169.816406 C 215.230469 174.074219 210.527344 177.039062 205.457031 177.816406 C 214.027344 164.566406 227.3125 154.441406 242.351562 149.695312 C 246.382812 148.429688 250.714844 147.53125 254.796875 148.621094 C 259.042969 149.757812 262.421875 152.871094 266.085938 155.296875 C 269.746094 157.722656 274.464844 159.523438 278.472656 157.707031 C 268.519531 149.085938 254.457031 145.433594 241.566406 148.136719 C 252.945312 141.253906 265.53125 132.5625 267.046875 119.347656 C 259.820312 120.671875 259.074219 130.652344 254.890625 136.6875 C 252.625 139.964844 249.148438 142.160156 245.769531 144.261719 C 235.140625 150.882812 224.511719 157.503906 213.878906 164.125 C 231.960938 146.402344 234.929688 115.140625 257.066406 102.890625 C 249.277344 106.957031 242.523438 112.976562 237.59375 120.25 C 239.621094 113.484375 240.539062 106.402344 240.339844 99.34375 C 243.261719 98.359375 246.007812 96.828125 248.382812 94.867188 C 247.179688 94.546875 245.863281 94.679688 244.746094 95.222656 C 246.757812 91.34375 248.644531 86.777344 246.984375 82.734375 C 245.328125 78.691406 238.304688 77.484375 236.960938 81.636719 C 236.683594 78.8125 237.152344 75.90625 238.300781 73.304688 C 242.503906 73.269531 246.167969 70.085938 248.03125 66.320312 C 249.890625 62.554688 250.316406 58.257812 250.695312 54.078125 C 241.167969 55.597656 234.277344 66.394531 236.914062 75.671875 C 232.308594 73.230469 231.382812 67.042969 231.761719 61.839844 C 232.152344 56.640625 233.199219 51.039062 230.664062 46.484375 C 229.878906 52.125 229.082031 57.761719 228.300781 63.390625 C 225.710938 56.734375 220.234375 51.253906 213.578125 48.664062 C 219.859375 58.625 232.085938 64.886719 234.957031 76.296875 C 236.226562 81.347656 235.328125 86.898438 232.542969 91.292969 C 238.613281 99.71875 239.207031 111.125 236.570312 121.175781 C 233.925781 131.222656 228.417969 140.226562 222.984375 149.082031 C 235.996094 121.140625 233.457031 86.53125 216.488281 60.800781 C 213.429688 56.160156 209.796875 51.347656 209.925781 45.789062 C 210.179688 35.128906 201.882812 26.097656 192.816406 20.472656 C 187.222656 16.996094 180.128906 12.292969 181.636719 5.886719 C 178.914062 13.832031 178.425781 22.777344 181.652344 30.527344 C 184.878906 38.28125 192.175781 44.550781 200.542969 45.253906 C 187.214844 41.410156 178.085938 26.597656 180.636719 12.964844 C 187.789062 17.257812 195.050781 21.636719 200.628906 27.839844 C 206.203125 34.042969 209.945312 42.445312 208.605469 50.671875 C 197.105469 41.011719 187.898438 28.710938 181.847656 14.996094 C 186.71875 35.277344 207.433594 47.257812 218.472656 64.941406 C 229.398438 82.464844 230.09375 104.304688 229.6875 124.945312 M 266.203125 120.28125 C 266.0625 122.996094 265.367188 125.671875 264.183594 128.117188 C 262.722656 131.132812 260.421875 133.832031 257.386719 135.242188 C 259.746094 132.519531 261.84375 129.5625 263.648438 126.4375 C 263.652344 126.269531 263.4375 126.164062 263.28125 126.226562 C 263.125 126.289062 263.019531 126.441406 262.941406 126.578125 C 261.179688 129.445312 259.222656 132.1875 257.085938 134.792969 C 257.042969 134.644531 257.019531 134.488281 256.976562 134.34375 C 258.03125 128.695312 261.4375 123.507812 266.203125 120.28125 M 154.292969 172.800781 C 156.457031 169.703125 158.257812 166.359375 159.660156 162.851562 C 158.078125 165.390625 156.507812 167.929688 154.929688 170.464844 C 154.113281 171.773438 153.25 173.132812 151.90625 173.890625 C 151.054688 174.367188 150.078125 174.566406 149.113281 174.695312 C 146.632812 175.015625 144.085938 174.898438 141.644531 174.355469 C 140.167969 174.015625 138.65625 173.496094 137.628906 172.386719 C 136.601562 171.277344 136.203125 169.453125 137.09375 168.234375 C 137.5 167.667969 138.121094 167.296875 138.710938 166.941406 C 143.40625 164.132812 148.117188 161.304688 153.15625 159.179688 C 152.730469 158.800781 152.082031 158.992188 151.554688 159.203125 C 146.132812 161.390625 140.882812 164.015625 135.882812 167.035156 C 135.59375 164 137.128906 161 139.367188 158.929688 C 141.59375 156.851562 144.445312 155.578125 147.316406 154.5625 C 147.898438 154.359375 148.527344 154.164062 149.117188 154.359375 C 151.652344 155.230469 154.410156 155.171875 157.078125 155.5 C 160.234375 155.882812 163.324219 156.789062 166.183594 158.179688 C 164.261719 156.253906 161.503906 155.457031 158.839844 154.886719 C 157.035156 154.496094 155.203125 154.179688 153.371094 153.925781 C 151.582031 153.6875 149.675781 153.449219 148.300781 152.269531 C 151.546875 152.503906 154.789062 152.917969 158 153.5 C 158.226562 153.210938 157.75 152.886719 157.382812 152.835938 C 155.113281 152.460938 152.84375 152.101562 150.574219 151.730469 C 148.609375 151.414062 146.59375 151.074219 144.917969 150.023438 C 142.648438 148.605469 141.234375 145.894531 141.386719 143.21875 C 141.539062 140.542969 143.238281 138.003906 145.660156 136.851562 C 146.550781 136.429688 147.558594 136.183594 148.527344 136.367188 C 150.503906 136.738281 151.734375 138.691406 152.613281 140.515625 C 153.480469 142.335938 154.417969 144.363281 156.273438 145.15625 C 154.289062 142.589844 152.664062 139.742188 151.449219 136.730469 C 158.429688 140.863281 160.585938 150.269531 167.109375 155.109375 C 167.523438 154.589844 167.0625 153.863281 166.640625 153.355469 C 162.960938 148.921875 161.492188 142.738281 162.796875 137.125 C 163.320312 139.859375 164.253906 142.511719 165.539062 144.980469 C 165.925781 144.078125 165.5 143.0625 165.113281 142.171875 C 163.925781 139.414062 162.996094 136.402344 163.464844 133.4375 C 163.988281 130.082031 166.21875 127.261719 168.667969 124.90625 C 170.289062 123.351562 172.332031 121.828125 174.546875 122.144531 C 177.335938 122.542969 178.917969 125.605469 179.304688 128.390625 C 179.84375 132.300781 178.933594 136.257812 178.042969 140.101562 C 179.925781 135.859375 180.492188 131.050781 179.628906 126.5 C 181.839844 127.957031 183.269531 130.519531 183.359375 133.164062 C 183.453125 135.800781 182.210938 138.464844 180.121094 140.074219 C 177.640625 141.996094 177.21875 145.808594 174.648438 147.613281 C 173.488281 148.429688 173.183594 150.011719 173.234375 151.414062 C 173.292969 152.820312 173.625 154.246094 173.378906 155.636719 C 173.132812 157.023438 172.058594 158.4375 170.640625 158.398438 C 169.09375 158.359375 167.527344 158.324219 166.03125 158.6875 C 164.53125 159.050781 163.074219 159.886719 162.285156 161.214844 C 161.496094 162.546875 161.550781 164.417969 162.660156 165.5 C 163.175781 165.992188 162.800781 166.851562 162.371094 167.425781 C 160.585938 169.835938 158.167969 171.78125 155.421875 173 C 155 173.164062 154.371094 173.230469 154.292969 172.800781 M 130.195312 246.855469 C 129.316406 245.476562 128.496094 244.046875 128.011719 242.480469 C 126.976562 239.152344 127.570312 235.558594 128.171875 232.128906 C 130.183594 234.148438 132.1875 236.179688 134.199219 238.199219 C 134.554688 237.765625 134.136719 237.140625 133.738281 236.734375 C 131.15625 234.152344 128.601562 231.242188 127.917969 227.648438 C 127.503906 225.457031 127.835938 223.199219 127.941406 220.960938 C 128.121094 217.25 127.695312 213.515625 126.679688 209.941406 C 126.953125 209.957031 127.175781 210.164062 127.355469 210.351562 C 134.378906 217.421875 138.976562 226.617188 141.914062 236.152344 C 144.859375 245.675781 146.253906 255.605469 147.632812 265.476562 C 147.683594 265.859375 147.714844 266.316406 147.410156 266.550781 C 145.515625 258.722656 141.308594 251.46875 135.457031 245.929688 C 135.300781 246.667969 135.867188 247.335938 136.378906 247.890625 C 141.015625 252.886719 144.414062 259.019531 146.203125 265.601562 C 143.714844 262.933594 141.21875 260.25 138.730469 257.578125 C 137.617188 256.378906 136.5 255.1875 135.441406 253.945312 C 133.519531 251.71875 131.761719 249.347656 130.195312 246.855469 M 164.148438 261.648438 C 163.730469 267.882812 167.617188 274.160156 165.851562 280.167969 C 165.550781 281.1875 165.082031 282.179688 164.308594 282.898438 C 163.730469 283.441406 163.027344 283.800781 162.320312 284.175781 C 152.433594 289.4375 143.824219 297.085938 137.410156 306.265625 C 140.234375 295.554688 143.75 285.015625 148.113281 274.832031 C 148.484375 273.972656 148.855469 273.113281 149.414062 272.359375 C 149.917969 271.695312 150.550781 271.136719 151.183594 270.605469 C 155.1875 267.1875 159.542969 264.191406 164.148438 261.648438 M 146.082031 132.328125 C 146.304688 131.929688 145.992188 131.453125 145.707031 131.09375 C 144.640625 129.726562 143.855469 128.132812 143.414062 126.460938 C 142.914062 124.585938 142.898438 122.449219 144.003906 120.855469 C 145.03125 119.375 146.863281 118.632812 148.660156 118.5 C 150.457031 118.371094 152.234375 118.761719 153.988281 119.15625 C 154.386719 119.246094 154.894531 119.472656 154.835938 119.882812 C 154.433594 122.742188 154.824219 125.707031 155.953125 128.371094 C 155.703125 125.386719 155.449219 122.414062 155.199219 119.429688 C 159.097656 120.523438 161.941406 123.785156 164.542969 126.882812 C 164.75 127.128906 164.964844 127.488281 164.769531 127.75 C 163.398438 129.546875 162.585938 131.769531 162.480469 134.03125 C 162.457031 134.539062 162.46875 135.058594 162.371094 135.566406 C 162.269531 136.09375 162.0625 136.582031 161.882812 137.09375 C 160.976562 139.691406 161.136719 142.566406 161.875 145.214844 C 162.609375 147.867188 163.917969 150.320312 165.3125 152.6875 C 164.402344 151.71875 163.554688 150.675781 162.785156 149.582031 C 161.066406 147.140625 159.746094 144.441406 158.113281 141.933594 C 156.476562 139.429688 154.460938 137.070312 151.800781 135.730469 C 151.210938 135.4375 150.28125 135.316406 150.074219 135.9375 C 148.742188 135.148438 146.957031 135.199219 145.660156 136.046875 C 145.195312 136.355469 144.546875 136.21875 144.121094 135.878906 C 143.699219 135.527344 143.449219 135.011719 143.257812 134.492188 C 142.507812 132.429688 142.511719 130.109375 143.261719 128.054688 C 143.886719 129.648438 144.851562 131.121094 146.082031 132.328125 M 177.707031 155.011719 C 179.230469 153.429688 181.882812 153.417969 183.792969 154.484375 C 185.703125 155.550781 186.984375 157.492188 187.910156 159.476562 C 188.96875 161.753906 189.695312 164.277344 189.359375 166.765625 C 188.058594 162.480469 185.046875 158.738281 181.140625 156.542969 C 181.070312 157.023438 181.519531 157.398438 181.90625 157.675781 C 184.378906 159.484375 186.429688 161.882812 187.835938 164.613281 C 188.292969 165.507812 188.6875 166.4375 188.886719 167.417969 C 189.394531 169.96875 188.558594 172.578125 187.726562 175.046875 C 186.441406 170.167969 183.617188 165.710938 179.753906 162.476562 C 179.617188 162.964844 180.019531 163.429688 180.386719 163.796875 C 183.171875 166.542969 185.324219 169.90625 186.652344 173.582031 C 184.777344 171.808594 181.941406 171.511719 179.378906 171.761719 C 176.816406 172.015625 174.273438 172.71875 171.699219 172.582031 C 170.742188 172.535156 169.554688 172.113281 169.519531 171.148438 C 169.441406 168.722656 168.613281 166.316406 167.167969 164.367188 C 167.625 165.8125 168.078125 167.261719 168.535156 168.707031 C 168.792969 169.527344 169.042969 170.464844 168.625 171.222656 C 167.976562 171.605469 167.234375 170.914062 166.800781 170.308594 C 166.066406 169.285156 165.332031 168.261719 164.597656 167.238281 C 163.910156 166.28125 163.214844 165.308594 162.878906 164.183594 C 162.542969 163.058594 162.605469 161.746094 163.355469 160.835938 C 164.484375 159.464844 166.550781 159.546875 168.316406 159.425781 C 171.824219 159.15625 175.242188 157.566406 177.707031 155.011719 M 182.746094 274.375 C 184.585938 273.222656 186.003906 271.53125 187.519531 269.96875 C 193.449219 263.84375 201.082031 259.394531 209.332031 257.246094 C 216.070312 255.492188 223.347656 255.1875 229.339844 251.648438 C 226.269531 253.886719 223.195312 256.140625 220.332031 258.628906 C 217.164062 261.382812 214.246094 264.441406 210.898438 266.972656 C 207.546875 269.507812 203.65625 271.535156 199.460938 271.835938 C 193.832031 272.234375 188.238281 273.082031 182.746094 274.375 M 165.90625 267.992188 C 164.601562 264.347656 165.132812 260.308594 166.128906 256.578125 C 168.160156 248.9375 172.046875 241.800781 173.289062 233.984375 C 173.582031 236.886719 174.097656 239.769531 174.832031 242.585938 C 175.238281 244.132812 175.71875 245.675781 176.082031 247.234375 C 178.875 259.023438 175.230469 272.136719 166.742188 280.78125 C 167.65625 276.550781 167.359375 272.066406 165.90625 267.992188 M 175.457031 299.601562 C 168.050781 299.007812 160.542969 299.433594 153.25 300.871094 C 156.921875 298.023438 161.378906 296.222656 166 295.71875 C 167.667969 295.539062 169.347656 295.523438 171.015625 295.5 C 172.464844 295.492188 173.917969 295.472656 175.359375 295.578125 C 181.214844 296.046875 186.796875 298.617188 192.671875 298.660156 C 188.707031 301.324219 184.484375 303.585938 180.085938 305.414062 C 178.515625 306.074219 176.90625 306.671875 175.21875 306.992188 C 172.910156 307.433594 170.53125 307.324219 168.195312 307.035156 C 162.875 306.355469 157.683594 304.703125 152.953125 302.167969 C 159.160156 300.359375 165.714844 300.34375 172.164062 300.195312 C 173.296875 300.164062 174.46875 300.121094 175.457031 299.601562 M 200.851562 85.730469 C 199.839844 85.277344 198.792969 84.835938 197.691406 84.785156 C 196.582031 84.726562 195.417969 85.070312 194.351562 84.695312 C 193.230469 84.285156 192.53125 83.144531 192.214844 81.988281 C 191.894531 80.832031 191.855469 79.625 191.566406 78.46875 C 190.796875 75.421875 188.128906 72.949219 185.03125 72.410156 C 184.433594 72.308594 183.707031 72.191406 183.457031 71.640625 C 184.300781 71.824219 185.15625 72.015625 185.996094 72.210938 C 191.910156 73.554688 197.8125 75.148438 203.199219 77.921875 C 212.148438 82.515625 219.40625 90.339844 223.300781 99.605469 C 220.851562 96.480469 217.335938 94.207031 213.46875 93.257812 C 210.394531 92.5 207.144531 92.566406 204.089844 91.753906 C 201.023438 90.9375 197.941406 88.886719 197.328125 85.777344 C 201.917969 86.960938 206.308594 88.890625 210.296875 91.449219 C 210.71875 91.285156 210.328125 90.65625 209.933594 90.425781 C 206.996094 88.691406 203.960938 87.128906 200.851562 85.730469 M 229.515625 202.902344 C 231.019531 201.601562 232.011719 199.722656 232.238281 197.75 C 230.964844 198.1875 229.707031 198.617188 228.4375 199.050781 C 228.242188 196.882812 229.191406 194.738281 230.574219 193.054688 C 231.953125 191.367188 233.75 190.082031 235.515625 188.808594 C 235.523438 188.535156 235.121094 188.515625 234.855469 188.609375 C 232.871094 189.304688 231.074219 190.507812 229.65625 192.070312 C 230.003906 189.3125 231.417969 186.710938 233.527344 184.90625 C 235.640625 183.097656 238.429688 182.113281 241.207031 182.195312 C 242.113281 182.222656 243.035156 182.363281 243.855469 182.734375 C 245.800781 183.621094 246.960938 185.660156 247.660156 187.667969 C 247.730469 187.863281 247.792969 188.078125 247.730469 188.285156 C 247.671875 188.46875 247.503906 188.597656 247.351562 188.707031 C 245.265625 190.320312 243.167969 191.925781 241.082031 193.539062 C 243.019531 192.351562 244.964844 191.15625 246.902344 189.972656 C 247.484375 189.613281 248.089844 189.25 248.773438 189.160156 C 249.453125 189.078125 250.230469 189.347656 250.515625 189.96875 C 248.910156 193.953125 245.582031 197.070312 241.785156 199.101562 C 237.992188 201.140625 233.753906 202.171875 229.515625 202.902344 M 137.476562 159.179688 C 137.226562 159.460938 136.945312 159.765625 136.5625 159.789062 C 136.414062 159.792969 136.269531 159.761719 136.128906 159.722656 C 133.871094 159.101562 131.851562 157.621094 130.570312 155.644531 C 132.707031 154.679688 135.019531 154.089844 137.371094 153.929688 C 137.851562 153.894531 138.492188 153.722656 138.460938 153.230469 C 136.085938 153.121094 133.667969 153.523438 131.453125 154.386719 C 130.027344 154.945312 128.355469 154.234375 127.359375 153.078125 C 126.363281 151.917969 125.878906 150.414062 125.453125 148.953125 C 125.050781 147.5625 124.753906 145.824219 125.839844 144.859375 C 126.351562 144.390625 127.070312 144.238281 127.765625 144.125 C 131.839844 143.503906 136.09375 144.128906 139.828125 145.882812 C 139.90625 145.140625 139.101562 144.644531 138.398438 144.371094 C 136.039062 143.445312 133.542969 142.878906 131.019531 142.675781 C 132.050781 141.308594 133.804688 140.679688 135.507812 140.5 C 137.214844 140.324219 138.929688 140.523438 140.632812 140.476562 C 140.34375 142.691406 140.453125 144.996094 141.285156 147.070312 C 142.121094 149.140625 143.753906 150.945312 145.855469 151.691406 C 146.316406 151.851562 146.789062 151.96875 147.175781 152.246094 C 147.566406 152.523438 147.84375 153.039062 147.671875 153.492188 C 143.78125 154.230469 140.136719 156.246094 137.476562 159.179688 M 185.402344 150.527344 C 191.871094 148.347656 197.378906 143.460938 200.300781 137.296875 C 200.511719 139.039062 200.546875 140.796875 200.417969 142.554688 C 200.289062 144.300781 199.945312 146.144531 198.789062 147.457031 C 195.871094 150.765625 189.714844 149.015625 186.761719 152.289062 C 186.371094 152.71875 186.0625 153.21875 185.597656 153.5625 C 185.132812 153.902344 184.433594 154.027344 183.996094 153.65625 C 182.777344 152.609375 180.972656 152.507812 179.429688 152.988281 C 177.902344 153.472656 176.582031 154.445312 175.296875 155.40625 C 179.289062 150.875 182.320312 145.5 184.152344 139.738281 C 184.875 137.457031 187.671875 136.074219 189.902344 136.925781 C 188.710938 138.945312 187.511719 140.976562 186.320312 142.996094 C 185.566406 144.265625 184.804688 145.554688 183.757812 146.609375 C 182.839844 147.539062 181.65625 148.359375 181.386719 149.640625 C 183.875 147.542969 186.007812 145.011719 187.65625 142.199219 C 188.382812 140.96875 189.039062 139.636719 190.136719 138.710938 C 191.164062 137.835938 192.496094 137.398438 193.816406 137.121094 C 195.792969 136.699219 197.839844 136.601562 199.851562 136.828125 C 198.203125 140.410156 195.632812 143.5625 192.457031 145.882812 C 190.199219 147.539062 187.621094 148.785156 185.402344 150.527344 M 240.246094 180.871094 C 240.523438 178.023438 242.28125 175.363281 244.785156 173.992188 C 247.296875 172.625 250.484375 172.574219 253.027344 173.878906 C 251.875 174.539062 250.722656 175.203125 249.570312 175.863281 C 249.457031 176.039062 249.660156 176.269531 249.859375 176.285156 C 250.058594 176.300781 250.246094 176.179688 250.417969 176.074219 C 251.945312 175.15625 253.859375 175.09375 255.589844 175.515625 C 257.320312 175.9375 258.902344 176.796875 260.46875 177.652344 C 261.480469 178.199219 262.53125 178.800781 263.082031 179.800781 C 263.675781 180.90625 263.527344 182.292969 262.992188 183.429688 C 262.457031 184.566406 261.585938 185.5 260.726562 186.417969 C 260.488281 186.664062 260.179688 186.933594 259.847656 186.859375 C 257.121094 186.144531 254.089844 186.679688 251.757812 188.269531 C 250.960938 188.8125 249.808594 188.355469 249.203125 187.597656 C 248.597656 186.839844 248.347656 185.867188 247.945312 184.992188 C 246.609375 182.167969 243.320312 180.414062 240.246094 180.871094 M 203.675781 183.226562 C 197.609375 184.628906 192.003906 187.972656 187.882812 192.648438 C 188.300781 189.339844 190.507812 186.449219 193.226562 184.496094 C 195.945312 182.546875 199.144531 181.414062 202.324219 180.382812 C 205.503906 179.351562 208.738281 178.375 211.628906 176.703125 C 212.875 175.980469 214.0625 175.128906 215.136719 174.171875 C 214.375 177.246094 212.335938 179.824219 210.359375 182.296875 C 208.285156 184.886719 206.1875 187.492188 203.59375 189.550781 C 201 191.609375 197.816406 193.097656 194.507812 193.09375 C 191.933594 193.089844 189.375 193.933594 187.3125 195.457031 C 190.734375 189.421875 197.398438 186.148438 203.675781 183.226562 M 252.71875 198.769531 C 252.824219 199.132812 253.355469 199.070312 253.703125 198.9375 C 257.480469 197.476562 261.53125 195.800781 263.578125 192.308594 C 263.601562 194.457031 262.40625 196.476562 260.796875 197.90625 C 259.1875 199.335938 257.207031 200.253906 255.222656 201.082031 C 254.132812 201.542969 253.015625 201.988281 251.847656 202.019531 C 247.132812 202.136719 242.40625 202.246094 237.6875 202.375 C 243.9375 200.738281 249.300781 196.015625 251.710938 190.023438 C 251.902344 189.550781 252.367188 189.269531 252.816406 189.042969 C 254.945312 187.988281 257.4375 187.671875 259.761719 188.148438 C 261.371094 188.480469 263.191406 189.65625 262.941406 191.285156 C 262.832031 192.027344 262.300781 192.632812 261.777344 193.160156 C 259.246094 195.699219 256.117188 197.640625 252.71875 198.769531 M 227.152344 190.332031 C 227.636719 189.082031 228.40625 187.929688 228.566406 186.605469 C 228.644531 186.019531 228.582031 185.417969 228.644531 184.828125 C 228.878906 182.601562 230.675781 180.871094 231.476562 178.777344 C 232.351562 176.480469 231.996094 173.839844 233.007812 171.597656 C 233.949219 169.507812 236.15625 168.027344 238.453125 168.035156 C 240.75 168.042969 242.980469 169.605469 243.675781 171.792969 C 243.894531 172.488281 243.898438 173.40625 243.28125 173.800781 C 241.292969 175.085938 239.824219 177.160156 239.296875 179.464844 C 239.097656 180.304688 238.8125 181.390625 237.949219 181.476562 C 234.273438 181.839844 231.507812 185.121094 230.144531 188.558594 C 228.78125 191.992188 228.375 195.753906 227.042969 199.203125 C 226.554688 196.25 226.074219 193.132812 227.152344 190.332031 M 187.925781 134.089844 C 188.15625 134.847656 187.460938 135.574219 186.757812 135.9375 C 186.058594 136.300781 185.21875 136.550781 184.777344 137.203125 C 184.6875 133.183594 183.820312 128.773438 180.640625 126.304688 C 179.496094 125.414062 178.804688 124.082031 177.878906 122.964844 C 176.960938 121.847656 175.597656 120.867188 174.167969 121.109375 C 173.832031 121.167969 173.773438 120.652344 173.871094 120.328125 C 174.335938 118.804688 174.839844 117.269531 175.6875 115.914062 C 176.535156 114.5625 177.777344 113.402344 179.3125 112.96875 C 181.910156 112.238281 184.769531 113.855469 186.101562 116.207031 C 187.429688 118.5625 187.492188 121.441406 187.011719 124.097656 C 186.527344 126.757812 185.554688 129.308594 184.929688 131.9375 C 184.882812 132.125 184.90625 132.410156 185.101562 132.410156 C 185.539062 131.335938 185.988281 130.277344 186.425781 129.203125 C 186.929688 130.847656 187.425781 132.46875 187.925781 134.089844 M 230.335938 203.921875 C 233.292969 203.046875 236.433594 203.082031 239.507812 203.132812 C 241.570312 203.160156 243.625 203.199219 245.683594 203.226562 C 247.757812 203.261719 249.835938 203.296875 251.867188 203.722656 C 253.128906 203.992188 254.40625 204.4375 255.335938 205.328125 C 256.261719 206.21875 256.773438 207.652344 256.273438 208.847656 C 255.519531 210.695312 253.039062 211.015625 251.0625 210.800781 C 247.53125 210.425781 244.089844 209.296875 241.019531 207.503906 C 239.488281 206.617188 237.980469 205.53125 236.222656 205.339844 C 237.5625 206.15625 238.917969 206.980469 240.257812 207.796875 C 236.753906 207.128906 233.371094 205.808594 230.335938 203.921875 M 245.050781 82.851562 C 245.902344 86.734375 244.253906 90.703125 242.402344 94.21875 C 241.6875 95.574219 240.929688 96.917969 240.140625 98.246094 C 239.082031 93.789062 238.019531 89.285156 238.046875 84.695312 C 238.054688 83.492188 238.148438 82.253906 238.675781 81.175781 C 239.199219 80.097656 240.25 79.191406 241.445312 79.15625 C 243.316406 79.105469 244.652344 81.027344 245.050781 82.851562 M 242.289062 63.496094 C 241.769531 64.300781 241.292969 65.121094 240.804688 65.9375 C 239.996094 67.320312 239.191406 68.691406 238.382812 70.070312 C 238.03125 66.6875 239.148438 63.207031 241.304688 60.574219 C 243.457031 57.953125 246.613281 56.191406 249.964844 55.609375 C 248.652344 59.222656 247.609375 62.921875 246.851562 66.695312 C 246.242188 69.765625 242.863281 71.734375 239.738281 71.558594 C 239.632812 71.554688 239.515625 71.542969 239.4375 71.46875 C 239.285156 71.324219 239.363281 71.078125 239.457031 70.898438 C 241.832031 66.179688 244.246094 61.402344 247.769531 57.46875 C 247.921875 57.296875 248.019531 56.9375 247.785156 56.917969 C 245.6875 58.875 243.84375 61.097656 242.289062 63.496094 M 182.496094 213.632812 C 182.027344 207.738281 183.710938 201.699219 187.15625 196.890625 C 188.011719 195.707031 189.390625 195.011719 190.804688 194.652344 C 192.214844 194.289062 193.675781 194.214844 195.125 194.011719 C 195.351562 194.3125 195.144531 194.730469 194.941406 195.050781 C 190.9375 201.335938 186.785156 207.539062 182.496094 213.632812 M 166.914062 251.152344 C 165.761719 254.320312 164.875 257.574219 164.257812 260.882812 C 159.25 263.332031 154.5625 266.421875 150.34375 270.050781 C 150.515625 268.824219 150.984375 267.640625 151.683594 266.617188 C 152.238281 265.8125 152.933594 265.121094 153.609375 264.4375 C 158.054688 260.019531 162.488281 255.59375 166.914062 251.152344 M 176.921875 146.023438 C 176.914062 147.488281 176.988281 148.949219 177.164062 150.402344 C 177.832031 149.304688 177.472656 147.890625 177.460938 146.609375 C 177.441406 145.027344 178.027344 143.441406 179.054688 142.238281 C 179.890625 141.265625 181.007812 140.539062 181.847656 139.582031 C 182.941406 138.34375 183.578125 136.714844 183.605469 135.074219 C 184.050781 138.628906 182.65625 142.136719 181.027344 145.316406 C 178.984375 149.316406 176.523438 153.097656 173.714844 156.59375 C 174.183594 154.769531 173.785156 152.828125 174.0625 150.96875 C 174.355469 149.03125 175.394531 147.230469 176.921875 146.023438 M 193.253906 154.910156 C 191.222656 155.894531 188.738281 156.414062 186.746094 155.339844 C 186.457031 155.183594 186.171875 154.980469 186.085938 154.660156 C 185.949219 154.128906 186.453125 153.652344 186.914062 153.359375 C 189.164062 151.890625 191.761719 150.96875 194.433594 150.683594 C 195.914062 150.53125 197.324219 149.820312 198.316406 148.714844 C 198.382812 148.640625 198.460938 148.550781 198.566406 148.566406 C 198.738281 148.582031 198.738281 148.847656 198.675781 149.003906 C 197.960938 151.035156 196.574219 152.835938 194.789062 154.03125 C 194.296875 154.375 193.785156 154.652344 193.253906 154.910156 M 263.082031 151.664062 C 263.0625 151.621094 263.046875 151.566406 263.054688 151.507812 C 263.085938 151.363281 263.296875 151.371094 263.445312 151.429688 C 264.242188 151.714844 264.984375 152.113281 265.714844 152.535156 C 267.300781 153.445312 268.816406 154.472656 270.253906 155.578125 C 270.414062 155.503906 270.582031 155.4375 270.742188 155.363281 C 268.558594 153.207031 265.90625 151.511719 263.019531 150.449219 C 262.820312 150.375 262.640625 150.054688 262.851562 150.035156 C 264.863281 149.867188 266.9375 150.371094 268.65625 151.4375 C 269.289062 151.832031 269.882812 152.308594 270.464844 152.777344 C 272.242188 154.230469 273.984375 155.742188 275.691406 157.285156 C 274.40625 157.210938 273.125 157.101562 271.855469 156.953125 C 269.808594 156.699219 267.699219 156.316406 265.980469 155.1875 C 264.675781 154.335938 263.660156 153.097656 263.082031 151.664062 M 231.480469 175.527344 C 231.285156 176.945312 231.082031 178.410156 230.414062 179.675781 C 229.886719 180.660156 229.109375 181.484375 228.625 182.484375 C 227.449219 184.90625 228.074219 188.105469 226.265625 190.097656 C 226.222656 185.734375 226.992188 181.375 228.539062 177.296875 C 229.363281 175.105469 230.4375 172.953125 232.0625 171.265625 C 231.871094 172.699219 231.679688 174.109375 231.480469 175.527344 M 230.230469 64.824219 C 230.058594 64.640625 229.972656 64.390625 229.90625 64.148438 C 229.652344 63.320312 229.398438 62.492188 229.324219 61.632812 C 229.234375 60.660156 229.351562 59.667969 229.488281 58.695312 C 229.878906 55.964844 230.363281 53.234375 230.957031 50.542969 C 231.65625 53.164062 232.351562 55.882812 231.914062 58.558594 C 231.800781 59.238281 231.609375 59.914062 231.429688 60.582031 C 231.03125 61.996094 230.628906 63.410156 230.230469 64.824219 M 219.164062 52.824219 C 219.871094 53.210938 220.601562 53.546875 221.261719 54 C 223.261719 55.378906 224.464844 57.613281 225.597656 59.761719 C 225.679688 59.925781 225.761719 60.160156 225.609375 60.269531 C 223.820312 59.105469 222.136719 57.785156 220.578125 56.332031 C 218.949219 54.804688 217.445312 53.105469 216.464844 51.101562 C 217.316406 51.746094 218.222656 52.316406 219.164062 52.824219 M 246.117188 82.636719 C 247.417969 84.691406 246.925781 87.347656 246.347656 89.707031 C 246.183594 90.367188 246.019531 91.027344 245.773438 91.65625 C 245.273438 92.890625 244.457031 93.96875 243.652344 95.027344 C 243.535156 95.175781 243.417969 95.324219 243.300781 95.472656 C 242.824219 96.101562 242.316406 96.75 241.589844 97.082031 C 242.238281 95.902344 242.875 94.722656 243.480469 93.527344 C 244.507812 91.53125 245.472656 89.476562 245.847656 87.265625 C 246.128906 85.589844 246.035156 83.859375 245.589844 82.222656 C 245.824219 82.238281 246 82.4375 246.117188 82.636719 M 234.839844 93 C 234.765625 92.875 234.738281 92.734375 234.707031 92.589844 C 234.378906 90.898438 234.140625 89.160156 234.398438 87.453125 C 234.546875 86.449219 234.867188 85.472656 235.328125 84.5625 C 235.40625 84.421875 235.535156 84.269531 235.675781 84.34375 C 235.789062 84.398438 235.785156 84.566406 235.761719 84.691406 C 235.273438 87.589844 235.695312 90.636719 236.957031 93.292969 C 237.171875 93.746094 237.40625 94.3125 237.085938 94.710938 C 236.460938 94.261719 235.832031 93.820312 235.21875 93.371094 C 235.082031 93.257812 234.925781 93.152344 234.839844 93 M 198.003906 247.855469 C 198.117188 247.8125 198.238281 247.777344 198.355469 247.820312 C 198.460938 247.859375 198.53125 247.957031 198.59375 248.054688 C 199.328125 249.199219 199.246094 250.828125 198.390625 251.890625 C 197.976562 252.410156 197.273438 252.675781 196.625 252.574219 C 196.214844 252.515625 195.792969 252.261719 195.714844 251.859375 C 195.445312 250.207031 196.453125 248.453125 198.003906 247.855469 M 230.621094 199.296875 C 230.773438 199.339844 230.734375 199.566406 230.664062 199.695312 C 230.339844 200.296875 229.917969 200.847656 229.441406 201.34375 C 228.15625 202.679688 226.484375 203.640625 224.683594 204.070312 C 224.550781 204.105469 224.394531 204.128906 224.277344 204.0625 C 225.058594 203.042969 225.847656 202.027344 226.628906 201.007812 C 226.789062 200.804688 226.941406 200.597656 227.144531 200.445312 C 227.515625 200.125 228.011719 199.988281 228.480469 199.863281 C 229.140625 199.679688 229.8125 199.496094 230.46875 199.3125 C 230.515625 199.292969 230.566406 199.277344 230.621094 199.296875 M 173.136719 121 C 171.730469 121.351562 170.378906 121.960938 169.183594 122.800781 C 169.691406 120.425781 171.410156 118.351562 173.648438 117.402344 C 173.789062 117.34375 173.945312 117.285156 174.089844 117.3125 C 174.234375 117.34375 174.359375 117.523438 174.296875 117.65625 C 174.132812 118.003906 173.957031 118.335938 173.792969 118.683594 C 173.546875 119.179688 173.28125 119.71875 173.339844 120.269531 C 173.363281 120.554688 173.402344 120.933594 173.136719 121 M 194.960938 247.652344 C 195.484375 247.570312 196.011719 247.492188 196.542969 247.414062 C 196.546875 247.667969 196.351562 247.863281 196.183594 248.050781 C 195.105469 249.1875 194.597656 250.824219 194.824219 252.367188 C 194.851562 252.558594 194.851562 252.8125 194.664062 252.863281 C 194.597656 252.882812 194.511719 252.851562 194.449219 252.828125 C 193.789062 252.59375 193.105469 252.203125 192.886719 251.542969 C 192.808594 251.296875 192.800781 251.027344 192.800781 250.777344 C 192.816406 249.613281 193.144531 248.257812 194.222656 247.832031 C 194.464844 247.730469 194.71875 247.691406 194.960938 247.652344 M 238.203125 95.011719 C 237.820312 93.554688 237.398438 92.121094 236.910156 90.695312 C 236.023438 88.097656 236.074219 85.207031 237.0625 82.640625 C 237.132812 82.460938 237.285156 82.242188 237.46875 82.296875 C 237.683594 82.367188 237.636719 82.6875 237.554688 82.90625 C 237.226562 83.773438 237.242188 84.730469 237.292969 85.652344 C 237.429688 88.449219 237.816406 91.230469 238.441406 93.957031 C 238.527344 94.339844 238.554688 94.84375 238.203125 95.011719 M 238.578125 97.945312 C 238.210938 97.617188 237.730469 97.449219 237.277344 97.242188 C 236.332031 96.8125 235.476562 96.203125 234.761719 95.453125 C 234.054688 94.703125 233.496094 93.820312 232.949219 92.941406 C 232.84375 92.769531 232.847656 92.445312 233.035156 92.488281 C 233.066406 92.5 233.097656 92.511719 233.125 92.535156 C 234.34375 93.425781 235.542969 94.335938 236.734375 95.265625 C 237.597656 95.941406 238.46875 96.640625 239.03125 97.574219 C 239.140625 97.761719 239.203125 98.050781 239.003906 98.128906 C 238.84375 98.203125 238.703125 98.066406 238.578125 97.945312 M 224.179688 205.121094 C 224.023438 204.988281 224.269531 204.78125 224.464844 204.746094 C 225.566406 204.511719 226.660156 204.285156 227.75 204.042969 C 227.988281 203.988281 228.238281 203.9375 228.476562 203.941406 C 229.464844 203.941406 230.246094 204.707031 230.929688 205.421875 C 229.710938 205.914062 228.34375 205.734375 227.039062 205.558594 C 226.121094 205.429688 225.21875 205.308594 224.304688 205.167969 C 224.273438 205.15625 224.226562 205.152344 224.179688 205.121094 M 226.191406 217.253906 C 226.460938 217.296875 226.804688 217.570312 226.59375 217.746094 C 226.488281 217.835938 226.324219 217.761719 226.179688 217.734375 C 225.589844 217.597656 225.121094 218.203125 224.84375 218.722656 C 224.511719 219.320312 224.164062 219.984375 224.292969 220.660156 C 224.324219 220.804688 224.363281 220.988281 224.253906 221.089844 C 224.15625 221.1875 223.992188 221.148438 223.867188 221.089844 C 223.230469 220.800781 222.761719 220.15625 222.699219 219.457031 C 222.625 218.757812 222.957031 218.039062 223.523438 217.625 C 224.257812 217.082031 225.265625 217.125 226.191406 217.253906 M 210.246094 205.898438 C 210.484375 206.484375 210.179688 207.1875 209.660156 207.546875 C 209.140625 207.90625 208.453125 207.945312 207.839844 207.8125 C 207.347656 207.710938 206.855469 207.480469 206.59375 207.054688 C 206.332031 206.632812 206.4375 205.972656 206.902344 205.761719 C 206.960938 205.734375 207.027344 205.714844 207.089844 205.710938 C 207.3125 205.6875 207.53125 205.816406 207.742188 205.898438 C 208.214844 206.074219 208.773438 205.996094 209.195312 205.710938 C 209.34375 205.609375 209.476562 205.476562 209.652344 205.460938 C 209.90625 205.421875 210.148438 205.648438 210.246094 205.898438 M 226.402344 221.175781 C 225.925781 221.347656 225.324219 221.289062 225.035156 220.867188 C 224.777344 220.46875 224.902344 219.9375 225.085938 219.488281 C 225.210938 219.1875 225.347656 218.890625 225.566406 218.65625 C 225.953125 218.238281 226.566406 218.046875 227.121094 218.171875 C 227.277344 218.207031 227.390625 218.355469 227.464844 218.503906 C 227.945312 219.46875 227.410156 220.796875 226.402344 221.175781 M 170.734375 240.199219 C 170.832031 239.046875 170.941406 237.894531 171.035156 236.738281 C 171.117188 235.792969 171.476562 234.894531 171.832031 234.015625 C 172 233.597656 172.230469 233.117188 172.675781 233.019531 C 172.324219 235.429688 171.796875 237.820312 171.089844 240.152344 C 171.042969 240.304688 170.878906 240.484375 170.777344 240.375 C 170.722656 240.328125 170.726562 240.257812 170.734375 240.199219 M 213.925781 224.671875 C 214.089844 224.683594 214.253906 224.722656 214.351562 224.84375 C 214.453125 224.964844 214.441406 225.1875 214.296875 225.246094 C 213.34375 225.644531 212.734375 226.714844 212.867188 227.738281 C 212.878906 227.867188 212.726562 227.953125 212.601562 227.929688 C 212.484375 227.898438 212.386719 227.800781 212.316406 227.703125 C 211.902344 227.195312 211.46875 226.589844 211.648438 225.957031 C 211.699219 225.75 211.820312 225.5625 211.960938 225.414062 C 212.449219 224.875 213.203125 224.605469 213.925781 224.671875 M 207.699219 205.074219 C 207.441406 204.929688 207.230469 204.730469 207.070312 204.476562 C 206.847656 204.117188 207.277344 203.699219 207.664062 203.542969 C 208.234375 203.300781 209.011719 203.222656 209.390625 203.722656 C 209.695312 204.128906 209.527344 204.761719 209.117188 205.054688 C 208.730469 205.34375 208.152344 205.316406 207.699219 205.074219 M 241.449219 98.414062 C 241.253906 98.484375 240.953125 98.488281 240.917969 98.285156 C 242.519531 97.105469 244.257812 96.097656 246.089844 95.292969 C 246.273438 95.21875 246.484375 95.140625 246.660156 95.21875 C 246.847656 95.300781 246.878906 95.625 246.691406 95.675781 C 244.78125 96.183594 243.300781 97.710938 241.449219 98.414062 M 213.589844 227.867188 C 213.238281 227.074219 213.707031 226.019531 214.535156 225.765625 C 214.835938 225.675781 215.105469 226.015625 215.167969 226.328125 C 215.300781 226.96875 215.011719 227.703125 214.425781 228.011719 C 214.152344 228.164062 213.722656 228.15625 213.589844 227.867188 M 200.394531 220.980469 C 200.113281 221.222656 199.667969 221.113281 199.351562 220.933594 C 198.851562 220.664062 198.453125 220.222656 198.195312 219.71875 C 198.472656 219.402344 198.96875 219.394531 199.382812 219.476562 C 199.753906 219.546875 200.140625 219.667969 200.394531 219.953125 C 200.636719 220.238281 200.679688 220.734375 200.394531 220.980469 M 200.5 222.136719 C 200.128906 222.585938 199.457031 222.769531 198.910156 222.5625 C 198.359375 222.355469 197.960938 221.785156 197.976562 221.199219 C 197.976562 221.164062 197.984375 221.117188 197.996094 221.085938 C 198.0625 220.96875 198.238281 221.011719 198.375 221.074219 C 199.078125 221.433594 199.789062 221.785156 200.5 222.136719 M 223.300781 205.765625 C 223.144531 205.886719 222.871094 205.785156 222.835938 205.589844 C 222.984375 205.480469 223.257812 205.582031 223.300781 205.765625 Z M 223.300781 205.765625 " fill-opacity="1" fill-rule="nonzero"/></g></g></g></svg>