<svg xmlns="http://www.w3.org/2000/svg" xmlns:xlink="http://www.w3.org/1999/xlink" width="500" zoomAndPan="magnify" viewBox="0 0 375 374.999991" height="500" preserveAspectRatio="xMidYMid meet" version="1.0"><defs><clipPath id="e186bcafe2"><path d="M 7.5 7.5 L 367.5 7.5 L 367.5 367.5 L 7.5 367.5 Z M 7.5 7.5 " clip-rule="nonzero"/></clipPath></defs><g clip-path="url(#e186bcafe2)"><path fill="#e5dfd0" d="M 188.492188 7.5 C 138.90625 7.5 132.953125 7.5 114.113281 8.492188 C 95.269531 8.492188 81.382812 12.457031 70.476562 16.425781 C 58.574219 21.382812 48.65625 27.335938 38.738281 37.253906 C 28.824219 47.167969 22.871094 57.085938 17.914062 68.988281 C 12.953125 80.886719 9.980469 93.78125 9.980469 112.625 C 7.996094 133.449219 7.996094 139.402344 7.996094 187.996094 C 7.996094 237.582031 7.996094 243.53125 8.988281 262.375 C 8.988281 281.21875 12.953125 295.101562 16.921875 306.011719 C 21.878906 317.914062 27.832031 327.832031 37.746094 337.746094 C 47.664062 347.664062 57.582031 353.617188 69.484375 358.574219 C 81.382812 363.53125 94.277344 366.507812 113.121094 366.507812 C 131.960938 366.507812 138.90625 367.5 187.5 367.5 C 236.09375 367.5 243.039062 367.5 261.878906 366.507812 C 280.722656 366.507812 294.609375 362.542969 305.515625 358.574219 C 317.417969 353.617188 327.335938 347.664062 337.253906 337.746094 C 347.167969 327.832031 353.121094 317.914062 358.078125 306.011719 C 362.046875 294.113281 366.011719 281.21875 366.011719 262.375 C 366.011719 243.53125 367.003906 236.589844 367.003906 187.996094 C 367.003906 138.410156 367.003906 132.457031 366.011719 113.617188 C 366.011719 94.773438 362.046875 80.886719 358.078125 69.980469 C 353.121094 58.078125 347.167969 48.160156 337.253906 38.242188 C 327.335938 28.328125 317.417969 22.375 305.515625 17.417969 C 293.617188 12.457031 280.722656 9.484375 261.878906 9.484375 C 244.027344 7.5 238.078125 7.5 188.492188 7.5 Z M 172.625 40.226562 C 177.582031 40.226562 182.542969 40.226562 188.492188 40.226562 C 237.085938 40.226562 242.046875 40.226562 261.878906 41.21875 C 279.730469 41.21875 288.65625 45.1875 295.597656 47.167969 C 304.523438 50.144531 310.476562 54.113281 316.425781 61.054688 C 322.375 67.003906 326.34375 72.953125 330.308594 81.878906 C 332.292969 87.832031 335.269531 97.746094 336.261719 115.597656 C 336.261719 134.441406 337.253906 140.390625 337.253906 188.988281 C 337.253906 237.582031 337.253906 242.542969 336.261719 262.375 C 336.261719 280.226562 332.292969 289.152344 330.308594 296.09375 C 327.335938 305.019531 323.367188 310.972656 316.425781 316.921875 C 310.476562 322.871094 304.523438 326.839844 295.597656 330.804688 C 289.648438 333.78125 279.730469 335.765625 261.878906 336.757812 C 243.039062 336.757812 237.085938 337.746094 188.492188 337.746094 C 139.898438 337.746094 134.9375 337.746094 115.101562 336.757812 C 97.253906 336.757812 88.328125 332.789062 81.382812 330.804688 C 72.457031 327.832031 66.507812 323.863281 60.558594 316.921875 C 54.609375 310.972656 50.640625 305.019531 46.671875 296.09375 C 44.691406 290.144531 41.714844 280.226562 40.722656 262.375 C 40.722656 243.53125 39.730469 237.582031 39.730469 188.988281 C 39.730469 140.390625 39.730469 135.433594 40.722656 115.597656 C 40.722656 97.746094 44.691406 88.824219 46.671875 81.878906 C 49.648438 72.953125 53.617188 67.003906 60.558594 61.054688 C 66.507812 55.101562 72.457031 51.136719 81.382812 47.167969 C 87.335938 44.195312 97.253906 42.210938 115.101562 41.21875 C 131.960938 41.21875 137.914062 41.21875 171.632812 40.226562 Z M 188.492188 95.765625 C 136.921875 95.765625 95.269531 137.417969 95.269531 188.988281 C 95.269531 240.558594 136.921875 282.210938 188.492188 282.210938 C 240.0625 282.210938 281.714844 240.558594 281.714844 188.988281 C 281.714844 137.417969 240.0625 95.765625 188.492188 95.765625 Z M 188.492188 128.492188 C 222.210938 128.492188 248.988281 155.269531 248.988281 188.988281 C 248.988281 222.707031 222.210938 249.484375 188.492188 249.484375 C 154.773438 249.484375 127.996094 222.707031 127.996094 188.988281 C 127.996094 155.269531 154.773438 128.492188 188.492188 128.492188 Z M 188.492188 128.492188 " fill-opacity="1" fill-rule="nonzero"/></g></svg>