<svg xmlns="http://www.w3.org/2000/svg" xmlns:xlink="http://www.w3.org/1999/xlink" width="500" zoomAndPan="magnify" viewBox="0 0 375 374.999991" height="500" preserveAspectRatio="xMidYMid meet" version="1.0"><defs><clipPath id="6ceaa85efb"><path d="M 66 76 L 337.5 76 L 337.5 367.320312 L 66 367.320312 Z M 66 76 " clip-rule="nonzero"/></clipPath><clipPath id="f24ce35041"><path d="M 112 7.320312 L 272 7.320312 L 272 310 L 112 310 Z M 112 7.320312 " clip-rule="nonzero"/></clipPath><clipPath id="218e2ce974"><path d="M 37.5 129 L 176 129 L 176 317 L 37.5 317 Z M 37.5 129 " clip-rule="nonzero"/></clipPath></defs><path fill="#e5dfd0" d="M 287.183594 48.480469 C 282.324219 40.332031 279.390625 30.90625 279.003906 20.824219 C 278.972656 20.078125 278.957031 19.320312 278.957031 18.5625 L 271.328125 18.5625 C 273.574219 30.113281 279.21875 40.445312 287.183594 48.484375 Z M 287.183594 48.480469 " fill-opacity="1" fill-rule="nonzero"/><path fill="#e5dfd0" d="M 95.417969 240.039062 C 95.417969 256.09375 101.882812 270.632812 112.355469 281.203125 C 107.140625 272.453125 104.136719 262.226562 104.136719 251.296875 C 104.136719 218.988281 127.652344 187.582031 184.714844 197.617188 L 184.648438 145.484375 C 181.710938 144.679688 178.8125 143.996094 175.941406 143.414062 L 176 186.363281 C 118.9375 176.328125 95.421875 207.734375 95.421875 240.039062 Z M 95.417969 240.039062 " fill-opacity="1" fill-rule="nonzero"/><g clip-path="url(#6ceaa85efb)"><path fill="#e5dfd0" d="M 328.742188 76.417969 L 328.742188 123.675781 C 307.4375 123.675781 287.46875 117.953125 270.292969 107.953125 L 270.292969 240.039062 C 270.292969 242.140625 270.234375 244.234375 270.121094 246.304688 C 266.820312 307.285156 215.65625 356.40625 153.921875 356.40625 C 119.03125 356.40625 87.726562 341.046875 66.398438 316.726562 C 87.34375 347.472656 122.628906 367.664062 162.636719 367.664062 C 224.375 367.664062 275.535156 318.539062 278.839844 257.5625 C 278.949219 255.488281 279.007812 253.394531 279.007812 251.296875 L 279.007812 119.207031 C 296.1875 129.207031 316.15625 134.929688 337.460938 134.929688 L 337.460938 77.0625 C 334.5 77.0625 331.585938 76.839844 328.742188 76.414062 Z M 328.742188 76.417969 " fill-opacity="1" fill-rule="nonzero"/></g><path fill="#e5dfd0" d="M 153.921875 356.410156 C 215.65625 356.410156 266.820312 307.289062 270.121094 246.308594 C 270.230469 244.238281 270.292969 242.140625 270.292969 240.042969 L 270.292969 107.957031 C 287.46875 117.957031 307.4375 123.679688 328.742188 123.679688 L 328.742188 76.417969 C 311.066406 73.78125 295.976562 63.226562 287.183594 48.484375 C 279.222656 40.445312 273.582031 30.113281 271.332031 18.5625 L 221.09375 18.5625 L 221.09375 256.21875 L 220.929688 256.21875 C 218.4375 286.222656 193.289062 309.796875 162.636719 309.796875 C 141.257812 309.796875 122.558594 298.328125 112.355469 281.207031 C 101.886719 270.636719 95.417969 256.09375 95.417969 240.042969 C 95.417969 207.734375 118.933594 176.332031 175.996094 186.367188 L 175.941406 143.414062 C 98.660156 127.621094 46.269531 189.746094 46.269531 251.296875 C 46.269531 275.558594 53.695312 298.085938 66.398438 316.730469 C 87.726562 341.054688 119.027344 356.414062 153.921875 356.414062 Z M 153.921875 356.410156 " fill-opacity="1" fill-rule="nonzero"/><g clip-path="url(#f24ce35041)"><path fill="#e5dfd0" d="M 162.636719 309.796875 C 193.289062 309.796875 218.433594 286.222656 220.929688 256.214844 L 221.09375 256.214844 L 221.09375 18.5625 L 271.332031 18.5625 C 270.761719 15.636719 270.40625 12.636719 270.289062 9.574219 C 270.257812 8.824219 270.242188 8.066406 270.242188 7.3125 L 212.371094 7.3125 L 212.371094 244.960938 L 212.207031 244.960938 C 209.714844 274.96875 184.566406 298.542969 153.914062 298.542969 C 137.660156 298.542969 122.953125 291.910156 112.347656 281.207031 C 122.554688 298.328125 141.253906 309.796875 162.632812 309.796875 Z M 162.636719 309.796875 " fill-opacity="1" fill-rule="nonzero"/></g><g clip-path="url(#218e2ce974)"><path fill="#e5dfd0" d="M 175.941406 143.414062 L 175.929688 134.234375 C 93.898438 111.738281 37.550781 176.210938 37.550781 240.042969 C 37.550781 269.421875 48.441406 296.25 66.398438 316.726562 C 53.695312 298.082031 46.269531 275.558594 46.269531 251.296875 C 46.269531 189.746094 98.660156 127.617188 175.941406 143.414062 Z M 175.941406 143.414062 " fill-opacity="1" fill-rule="nonzero"/></g><path fill="#e5dfd0" d="M 328.742188 76.417969 L 328.742188 65.808594 C 312.492188 65.808594 297.785156 59.179688 287.183594 48.480469 C 295.976562 63.222656 311.066406 73.773438 328.742188 76.417969 Z M 328.742188 76.417969 " fill-opacity="1" fill-rule="nonzero"/></svg>