<svg xmlns="http://www.w3.org/2000/svg" xmlns:xlink="http://www.w3.org/1999/xlink" width="100" zoomAndPan="magnify" viewBox="0 0 75 74.999997" height="100" preserveAspectRatio="xMidYMid meet" version="1.0"><defs><clipPath id="06b702ab17"><path d="M 9.613281 0.445312 L 65.535156 0.445312 L 65.535156 74.222656 L 9.613281 74.222656 Z M 9.613281 0.445312 " clip-rule="nonzero"/></clipPath><clipPath id="10807f8629"><path d="M 33.105469 28.398438 L 33.828125 28.398438 L 33.828125 29.410156 L 33.105469 29.410156 Z M 33.105469 28.398438 " clip-rule="nonzero"/></clipPath><clipPath id="5b80b35694"><path d="M 30.945312 25.292969 L 49.523438 31.359375 L 36.828125 70.074219 L 18.25 64.007812 Z M 30.945312 25.292969 " clip-rule="nonzero"/></clipPath><clipPath id="21da5d5cdd"><path d="M 30.945312 25.292969 L 49.523438 31.359375 L 36.828125 70.074219 L 18.25 64.007812 Z M 30.945312 25.292969 " clip-rule="nonzero"/></clipPath><clipPath id="502c764042"><path d="M 32.089844 28 L 34.117188 28 L 34.117188 31.429688 L 32.089844 31.429688 Z M 32.089844 28 " clip-rule="nonzero"/></clipPath><clipPath id="f543773d39"><path d="M 30.945312 25.292969 L 49.523438 31.359375 L 36.828125 70.074219 L 18.25 64.007812 Z M 30.945312 25.292969 " clip-rule="nonzero"/></clipPath><clipPath id="05e483e460"><path d="M 30.945312 25.292969 L 49.523438 31.359375 L 36.828125 70.074219 L 18.25 64.007812 Z M 30.945312 25.292969 " clip-rule="nonzero"/></clipPath><clipPath id="cf26b8b1c9"><path d="M 35.566406 27.242188 L 35.855469 27.242188 L 35.855469 28.398438 L 35.566406 28.398438 Z M 35.566406 27.242188 " clip-rule="nonzero"/></clipPath><clipPath id="d0876990c4"><path d="M 30.945312 25.292969 L 49.523438 31.359375 L 36.828125 70.074219 L 18.25 64.007812 Z M 30.945312 25.292969 " clip-rule="nonzero"/></clipPath><clipPath id="928b453d06"><path d="M 30.945312 25.292969 L 49.523438 31.359375 L 36.828125 70.074219 L 18.25 64.007812 Z M 30.945312 25.292969 " clip-rule="nonzero"/></clipPath><clipPath id="89cda218f4"><path d="M 35.277344 27.386719 L 35.710938 27.386719 L 35.710938 28.832031 L 35.277344 28.832031 Z M 35.277344 27.386719 " clip-rule="nonzero"/></clipPath><clipPath id="7aa168d72b"><path d="M 30.945312 25.292969 L 49.523438 31.359375 L 36.828125 70.074219 L 18.25 64.007812 Z M 30.945312 25.292969 " clip-rule="nonzero"/></clipPath><clipPath id="aa7edb2815"><path d="M 30.945312 25.292969 L 49.523438 31.359375 L 36.828125 70.074219 L 18.25 64.007812 Z M 30.945312 25.292969 " clip-rule="nonzero"/></clipPath><clipPath id="15e562f34c"><path d="M 36.433594 32.730469 L 36.726562 32.730469 L 36.726562 33.886719 L 36.433594 33.886719 Z M 36.433594 32.730469 " clip-rule="nonzero"/></clipPath><clipPath id="2e738e4557"><path d="M 30.945312 25.292969 L 49.523438 31.359375 L 36.828125 70.074219 L 18.25 64.007812 Z M 30.945312 25.292969 " clip-rule="nonzero"/></clipPath><clipPath id="0486d9e2ba"><path d="M 30.945312 25.292969 L 49.523438 31.359375 L 36.828125 70.074219 L 18.25 64.007812 Z M 30.945312 25.292969 " clip-rule="nonzero"/></clipPath><clipPath id="4e5eca25e3"><path d="M 37.304688 32.296875 L 38 32.296875 L 38 33.742188 L 37.304688 33.742188 Z M 37.304688 32.296875 " clip-rule="nonzero"/></clipPath><clipPath id="787ff7422e"><path d="M 30.945312 25.292969 L 49.523438 31.359375 L 36.828125 70.074219 L 18.25 64.007812 Z M 30.945312 25.292969 " clip-rule="nonzero"/></clipPath><clipPath id="2135d2184b"><path d="M 30.945312 25.292969 L 49.523438 31.359375 L 36.828125 70.074219 L 18.25 64.007812 Z M 30.945312 25.292969 " clip-rule="nonzero"/></clipPath><clipPath id="435024f435"><path d="M 36.289062 33.886719 L 36.726562 33.886719 L 36.726562 34.464844 L 36.289062 34.464844 Z M 36.289062 33.886719 " clip-rule="nonzero"/></clipPath><clipPath id="fb3c7a1ba5"><path d="M 30.945312 25.292969 L 49.523438 31.359375 L 36.828125 70.074219 L 18.25 64.007812 Z M 30.945312 25.292969 " clip-rule="nonzero"/></clipPath><clipPath id="fbdc03187b"><path d="M 30.945312 25.292969 L 49.523438 31.359375 L 36.828125 70.074219 L 18.25 64.007812 Z M 30.945312 25.292969 " clip-rule="nonzero"/></clipPath><clipPath id="bd066eec5b"><path d="M 34 33.742188 L 34.40625 33.742188 L 34.40625 34.464844 L 34 34.464844 Z M 34 33.742188 " clip-rule="nonzero"/></clipPath><clipPath id="24efba35e8"><path d="M 30.945312 25.292969 L 49.523438 31.359375 L 36.828125 70.074219 L 18.25 64.007812 Z M 30.945312 25.292969 " clip-rule="nonzero"/></clipPath><clipPath id="ba8059b049"><path d="M 30.945312 25.292969 L 49.523438 31.359375 L 36.828125 70.074219 L 18.25 64.007812 Z M 30.945312 25.292969 " clip-rule="nonzero"/></clipPath><clipPath id="a4178fafa8"><path d="M 34.84375 33.886719 L 35.277344 33.886719 L 35.277344 34.464844 L 34.84375 34.464844 Z M 34.84375 33.886719 " clip-rule="nonzero"/></clipPath><clipPath id="620d11035f"><path d="M 30.945312 25.292969 L 49.523438 31.359375 L 36.828125 70.074219 L 18.25 64.007812 Z M 30.945312 25.292969 " clip-rule="nonzero"/></clipPath><clipPath id="0946dd1c3c"><path d="M 30.945312 25.292969 L 49.523438 31.359375 L 36.828125 70.074219 L 18.25 64.007812 Z M 30.945312 25.292969 " clip-rule="nonzero"/></clipPath><clipPath id="d9740a44ca"><path d="M 35.132812 33.886719 L 35.421875 33.886719 L 35.421875 34.464844 L 35.132812 34.464844 Z M 35.132812 33.886719 " clip-rule="nonzero"/></clipPath><clipPath id="7474f0bc9b"><path d="M 30.945312 25.292969 L 49.523438 31.359375 L 36.828125 70.074219 L 18.25 64.007812 Z M 30.945312 25.292969 " clip-rule="nonzero"/></clipPath><clipPath id="a91c494a0a"><path d="M 30.945312 25.292969 L 49.523438 31.359375 L 36.828125 70.074219 L 18.25 64.007812 Z M 30.945312 25.292969 " clip-rule="nonzero"/></clipPath><clipPath id="65b5ea35f6"><path d="M 35.421875 34.03125 L 35.710938 34.03125 L 35.710938 34.898438 L 35.421875 34.898438 Z M 35.421875 34.03125 " clip-rule="nonzero"/></clipPath><clipPath id="73099be1e9"><path d="M 30.945312 25.292969 L 49.523438 31.359375 L 36.828125 70.074219 L 18.25 64.007812 Z M 30.945312 25.292969 " clip-rule="nonzero"/></clipPath><clipPath id="1d8e28e88f"><path d="M 30.945312 25.292969 L 49.523438 31.359375 L 36.828125 70.074219 L 18.25 64.007812 Z M 30.945312 25.292969 " clip-rule="nonzero"/></clipPath><clipPath id="f6af8d7d9b"><path d="M 39.042969 33.019531 L 39.332031 33.019531 L 39.332031 33.308594 L 39.042969 33.308594 Z M 39.042969 33.019531 " clip-rule="nonzero"/></clipPath><clipPath id="2bdedac544"><path d="M 30.945312 25.292969 L 49.523438 31.359375 L 36.828125 70.074219 L 18.25 64.007812 Z M 30.945312 25.292969 " clip-rule="nonzero"/></clipPath><clipPath id="268e258cbc"><path d="M 30.945312 25.292969 L 49.523438 31.359375 L 36.828125 70.074219 L 18.25 64.007812 Z M 30.945312 25.292969 " clip-rule="nonzero"/></clipPath><clipPath id="ec3a4e5cc3"><path d="M 39.042969 33.164062 L 39.1875 33.164062 L 39.1875 33.308594 L 39.042969 33.308594 Z M 39.042969 33.164062 " clip-rule="nonzero"/></clipPath><clipPath id="26fd23a887"><path d="M 30.945312 25.292969 L 49.523438 31.359375 L 36.828125 70.074219 L 18.25 64.007812 Z M 30.945312 25.292969 " clip-rule="nonzero"/></clipPath><clipPath id="790adc1521"><path d="M 30.945312 25.292969 L 49.523438 31.359375 L 36.828125 70.074219 L 18.25 64.007812 Z M 30.945312 25.292969 " clip-rule="nonzero"/></clipPath><clipPath id="9a13c0efb4"><path d="M 30.789062 29.410156 L 33.683594 29.410156 L 33.683594 33.886719 L 30.789062 33.886719 Z M 30.789062 29.410156 " clip-rule="nonzero"/></clipPath><clipPath id="55584f689d"><path d="M 30.945312 25.292969 L 49.523438 31.359375 L 36.828125 70.074219 L 18.25 64.007812 Z M 30.945312 25.292969 " clip-rule="nonzero"/></clipPath><clipPath id="fc8aa9083b"><path d="M 30.945312 25.292969 L 49.523438 31.359375 L 36.828125 70.074219 L 18.25 64.007812 Z M 30.945312 25.292969 " clip-rule="nonzero"/></clipPath><clipPath id="582d9d632b"><path d="M 39.1875 31.574219 L 40.34375 31.574219 L 40.34375 33.164062 L 39.1875 33.164062 Z M 39.1875 31.574219 " clip-rule="nonzero"/></clipPath><clipPath id="32d66f0dcf"><path d="M 30.945312 25.292969 L 49.523438 31.359375 L 36.828125 70.074219 L 18.25 64.007812 Z M 30.945312 25.292969 " clip-rule="nonzero"/></clipPath><clipPath id="0aabb0ffb7"><path d="M 30.945312 25.292969 L 49.523438 31.359375 L 36.828125 70.074219 L 18.25 64.007812 Z M 30.945312 25.292969 " clip-rule="nonzero"/></clipPath><clipPath id="88b0d40de2"><path d="M 27.023438 27.097656 L 42.515625 27.097656 L 42.515625 68.554688 L 27.023438 68.554688 Z M 27.023438 27.097656 " clip-rule="nonzero"/></clipPath><clipPath id="93b6f72466"><path d="M 30.945312 25.292969 L 49.523438 31.359375 L 36.828125 70.074219 L 18.25 64.007812 Z M 30.945312 25.292969 " clip-rule="nonzero"/></clipPath><clipPath id="56dab0b469"><path d="M 30.945312 25.292969 L 49.523438 31.359375 L 36.828125 70.074219 L 18.25 64.007812 Z M 30.945312 25.292969 " clip-rule="nonzero"/></clipPath></defs><g clip-path="url(#06b702ab17)"><path fill="#631e2e" d="M 65.546875 67.378906 L 56.785156 20.597656 C 56.785156 20.582031 56.785156 20.566406 56.769531 20.554688 C 56.769531 20.539062 56.769531 20.539062 56.753906 20.523438 C 56.742188 20.507812 56.742188 20.480469 56.726562 20.464844 C 56.726562 20.464844 56.726562 20.449219 56.726562 20.449219 C 56.710938 20.421875 56.695312 20.40625 56.679688 20.390625 C 56.679688 20.390625 56.667969 20.390625 56.667969 20.375 C 56.652344 20.359375 56.636719 20.347656 56.621094 20.332031 L 56.605469 20.316406 C 56.59375 20.300781 56.578125 20.289062 56.546875 20.289062 L 56.535156 20.289062 C 56.519531 20.273438 56.488281 20.273438 56.472656 20.273438 L 56.460938 20.273438 C 56.445312 20.273438 56.414062 20.273438 56.398438 20.273438 L 47.476562 20.273438 L 47.035156 9.539062 C 46.8125 4.449219 42.800781 0.445312 37.902344 0.445312 C 35.699219 0.445312 33.566406 1.273438 31.941406 2.75 C 30.269531 4.269531 29.1875 6.308594 28.878906 8.535156 L 27.191406 20.273438 L 19.628906 20.273438 C 19.4375 20.273438 19.261719 20.40625 19.214844 20.613281 L 9.65625 68.484375 C 9.613281 68.707031 9.746094 68.929688 9.96875 68.972656 C 9.980469 68.972656 9.996094 68.972656 10.011719 68.972656 L 52.566406 74.257812 L 52.613281 74.257812 C 52.640625 74.257812 52.671875 74.257812 52.699219 74.242188 L 52.730469 74.242188 C 52.761719 74.242188 52.773438 74.230469 52.804688 74.214844 L 52.820312 74.214844 L 65.324219 67.820312 C 65.484375 67.746094 65.574219 67.554688 65.546875 67.378906 Z M 29.707031 8.640625 C 30.328125 4.359375 33.777344 1.257812 37.902344 1.257812 C 42.359375 1.257812 45.996094 4.921875 46.191406 9.570312 L 46.632812 20.257812 L 28.019531 20.257812 Z M 19.96875 21.085938 L 27.074219 21.085938 L 26.066406 28.050781 C 25.609375 28.183594 25.296875 28.613281 25.296875 29.101562 C 25.265625 29.675781 25.695312 30.164062 26.273438 30.191406 C 26.851562 30.222656 27.339844 29.792969 27.367188 29.21875 C 27.367188 29.175781 27.367188 29.144531 27.367188 29.101562 C 27.367188 28.730469 27.191406 28.390625 26.878906 28.183594 L 27.902344 21.085938 L 46.648438 21.085938 L 46.945312 28.125 C 46.589844 28.316406 46.367188 28.6875 46.367188 29.101562 C 46.339844 29.675781 46.796875 30.148438 47.359375 30.179688 C 47.9375 30.207031 48.410156 29.75 48.4375 29.1875 C 48.4375 29.160156 48.4375 29.128906 48.4375 29.101562 C 48.4375 28.65625 48.171875 28.257812 47.773438 28.097656 L 47.476562 21.085938 L 55.898438 21.085938 L 53.292969 58.210938 L 52.242188 73.371094 L 10.558594 68.207031 Z M 53.085938 73.136719 L 54.269531 56.234375 L 56.546875 23.933594 L 64.65625 67.230469 Z M 53.085938 73.136719 " fill-opacity="1" fill-rule="nonzero"/></g><g clip-path="url(#10807f8629)"><g clip-path="url(#5b80b35694)"><g clip-path="url(#21da5d5cdd)"><path fill="#631e2e" d="M 33.25 28.617188 C 33.226562 28.582031 33.226562 28.519531 33.269531 28.523438 C 33.453125 28.738281 33.597656 28.988281 33.695312 29.253906 C 33.707031 29.28125 33.710938 29.320312 33.683594 29.332031 C 33.660156 29.339844 33.636719 29.3125 33.625 29.289062 C 33.5625 29.175781 33.496094 29.0625 33.433594 28.949219 C 33.371094 28.839844 33.308594 28.730469 33.25 28.617188 Z M 33.25 28.617188 " fill-opacity="1" fill-rule="nonzero"/></g></g></g><g clip-path="url(#502c764042)"><g clip-path="url(#f543773d39)"><g clip-path="url(#05e483e460)"><path fill="#631e2e" d="M 33.949219 30.859375 C 34.023438 31.003906 34.097656 31.164062 34.054688 31.320312 C 33.515625 30.1875 32.863281 29.109375 32.113281 28.105469 C 32.140625 28.046875 32.222656 28.09375 32.261719 28.144531 C 32.894531 29.003906 33.457031 29.910156 33.949219 30.859375 Z M 33.949219 30.859375 " fill-opacity="1" fill-rule="nonzero"/></g></g></g><g clip-path="url(#cf26b8b1c9)"><g clip-path="url(#d0876990c4)"><g clip-path="url(#928b453d06)"><path fill="#631e2e" d="M 35.695312 28.277344 C 35.644531 28.011719 35.601562 27.742188 35.570312 27.472656 C 35.5625 27.429688 35.578125 27.367188 35.621094 27.375 C 35.683594 27.621094 35.726562 27.871094 35.75 28.125 C 35.753906 28.183594 35.75 28.257812 35.695312 28.277344 Z M 35.695312 28.277344 " fill-opacity="1" fill-rule="nonzero"/></g></g></g><g clip-path="url(#89cda218f4)"><g clip-path="url(#7aa168d72b)"><g clip-path="url(#aa7edb2815)"><path fill="#631e2e" d="M 35.535156 28.632812 C 35.472656 28.367188 35.40625 28.101562 35.34375 27.835938 C 35.324219 27.757812 35.304688 27.679688 35.292969 27.605469 C 35.285156 27.566406 35.300781 27.507812 35.335938 27.523438 C 35.351562 27.527344 35.359375 27.546875 35.363281 27.5625 C 35.484375 27.933594 35.574219 28.316406 35.625 28.707031 C 35.59375 28.738281 35.546875 28.679688 35.535156 28.632812 Z M 35.535156 28.632812 " fill-opacity="1" fill-rule="nonzero"/></g></g></g><g clip-path="url(#15e562f34c)"><g clip-path="url(#2e738e4557)"><g clip-path="url(#0486d9e2ba)"><path fill="#631e2e" d="M 36.574219 33.792969 C 36.519531 33.757812 36.515625 33.679688 36.519531 33.613281 C 36.53125 33.347656 36.507812 33.074219 36.457031 32.8125 C 36.488281 32.773438 36.539062 32.832031 36.550781 32.878906 C 36.628906 33.175781 36.636719 33.492188 36.574219 33.792969 Z M 36.574219 33.792969 " fill-opacity="1" fill-rule="nonzero"/></g></g></g><g clip-path="url(#4e5eca25e3)"><g clip-path="url(#787ff7422e)"><g clip-path="url(#2135d2184b)"><path fill="#631e2e" d="M 37.777344 32.96875 C 37.699219 33.164062 37.625 33.363281 37.546875 33.5625 C 37.523438 33.632812 37.488281 33.703125 37.425781 33.738281 C 37.4375 33.433594 37.636719 33.175781 37.734375 32.886719 C 37.789062 32.722656 37.8125 32.546875 37.84375 32.375 C 37.847656 32.335938 37.875 32.285156 37.914062 32.300781 C 37.941406 32.3125 37.941406 32.347656 37.941406 32.378906 C 37.921875 32.519531 37.886719 32.660156 37.839844 32.796875 C 37.824219 32.851562 37.800781 32.910156 37.777344 32.96875 Z M 37.777344 32.96875 " fill-opacity="1" fill-rule="nonzero"/></g></g></g><g clip-path="url(#435024f435)"><g clip-path="url(#fb3c7a1ba5)"><g clip-path="url(#fbdc03187b)"><path fill="#631e2e" d="M 36.613281 33.988281 C 36.65625 34.058594 36.695312 34.132812 36.703125 34.21875 C 36.707031 34.300781 36.660156 34.390625 36.582031 34.410156 C 36.5 34.285156 36.441406 34.140625 36.40625 33.996094 C 36.4375 33.964844 36.488281 34 36.503906 34.042969 C 36.515625 34.082031 36.507812 34.128906 36.523438 34.167969 C 36.539062 34.207031 36.59375 34.238281 36.625 34.207031 C 36.582031 34.144531 36.578125 34.054688 36.613281 33.988281 Z M 36.613281 33.988281 " fill-opacity="1" fill-rule="nonzero"/></g></g></g><g clip-path="url(#bd066eec5b)"><g clip-path="url(#24efba35e8)"><g clip-path="url(#ba8059b049)"><path fill="#631e2e" d="M 34.378906 33.816406 C 34.332031 33.96875 34.269531 34.117188 34.191406 34.253906 C 34.171875 34.289062 34.136719 34.3125 34.097656 34.324219 C 34.113281 34.125 34.21875 33.9375 34.378906 33.816406 Z M 34.378906 33.816406 " fill-opacity="1" fill-rule="nonzero"/></g></g></g><g clip-path="url(#a4178fafa8)"><g clip-path="url(#620d11035f)"><g clip-path="url(#0946dd1c3c)"><path fill="#631e2e" d="M 35.132812 33.929688 C 35.199219 34.078125 35.128906 34.246094 35.0625 34.394531 C 35.058594 34.410156 35.050781 34.425781 35.035156 34.429688 C 34.988281 34.449219 34.976562 34.367188 34.992188 34.324219 C 35.039062 34.191406 35.085938 34.0625 35.132812 33.929688 Z M 35.132812 33.929688 " fill-opacity="1" fill-rule="nonzero"/></g></g></g><g clip-path="url(#d9740a44ca)"><g clip-path="url(#7474f0bc9b)"><g clip-path="url(#a91c494a0a)"><path fill="#631e2e" d="M 35.261719 33.96875 C 35.308594 34.0625 35.324219 34.167969 35.300781 34.269531 C 35.292969 34.320312 35.269531 34.371094 35.238281 34.40625 C 35.191406 34.371094 35.199219 34.300781 35.210938 34.242188 C 35.226562 34.148438 35.246094 34.058594 35.261719 33.96875 Z M 35.261719 33.96875 " fill-opacity="1" fill-rule="nonzero"/></g></g></g><g clip-path="url(#65b5ea35f6)"><g clip-path="url(#73099be1e9)"><g clip-path="url(#1d8e28e88f)"><path fill="#631e2e" d="M 35.460938 34.101562 C 35.457031 34.070312 35.503906 34.050781 35.527344 34.070312 C 35.554688 34.085938 35.5625 34.121094 35.566406 34.152344 C 35.601562 34.351562 35.601562 34.554688 35.566406 34.753906 C 35.558594 34.78125 35.550781 34.8125 35.527344 34.828125 C 35.503906 34.84375 35.460938 34.828125 35.464844 34.796875 C 35.507812 34.566406 35.507812 34.328125 35.460938 34.101562 Z M 35.460938 34.101562 " fill-opacity="1" fill-rule="nonzero"/></g></g></g><g clip-path="url(#f6af8d7d9b)"><g clip-path="url(#2bdedac544)"><g clip-path="url(#268e258cbc)"><path fill="#631e2e" d="M 39.234375 33.121094 C 39.246094 33.15625 39.210938 33.199219 39.171875 33.195312 C 39.175781 33.15625 39.203125 33.097656 39.242188 33.117188 Z M 39.234375 33.121094 " fill-opacity="1" fill-rule="nonzero"/></g></g></g><g clip-path="url(#ec3a4e5cc3)"><g clip-path="url(#26fd23a887)"><g clip-path="url(#790adc1521)"><path fill="#631e2e" d="M 39.128906 33.183594 C 39.148438 33.167969 39.175781 33.207031 39.15625 33.222656 C 39.132812 33.238281 39.105469 33.199219 39.125 33.183594 Z M 39.128906 33.183594 " fill-opacity="1" fill-rule="nonzero"/></g></g></g><g clip-path="url(#9a13c0efb4)"><g clip-path="url(#55584f689d)"><g clip-path="url(#fc8aa9083b)"><path fill="#631e2e" d="M 30.960938 29.511719 C 31.097656 30.832031 31.71875 32.097656 32.683594 33.011719 C 32.90625 33.222656 33.144531 33.414062 33.382812 33.605469 C 33.480469 33.683594 33.578125 33.765625 33.675781 33.84375 C 32.183594 33.011719 31.125 31.457031 30.90625 29.765625 C 30.894531 29.675781 30.890625 29.570312 30.960938 29.511719 Z M 30.960938 29.511719 " fill-opacity="1" fill-rule="nonzero"/></g></g></g><g clip-path="url(#582d9d632b)"><g clip-path="url(#32d66f0dcf)"><g clip-path="url(#0aabb0ffb7)"><path fill="#631e2e" d="M 39.226562 33.113281 C 39.351562 32.941406 39.476562 32.769531 39.601562 32.597656 C 39.6875 32.476562 39.777344 32.355469 39.855469 32.230469 C 39.949219 32.085938 40.03125 31.933594 40.105469 31.777344 C 40.132812 31.710938 40.171875 31.636719 40.242188 31.613281 C 40.253906 31.699219 40.214844 31.777344 40.171875 31.851562 C 39.933594 32.296875 39.640625 32.714844 39.304688 33.09375 C 39.285156 33.117188 39.246094 33.136719 39.226562 33.113281 Z M 39.226562 33.113281 " fill-opacity="1" fill-rule="nonzero"/></g></g></g><g clip-path="url(#88b0d40de2)"><g clip-path="url(#93b6f72466)"><g clip-path="url(#56dab0b469)"><path fill="#631e2e" d="M 31.128906 46.453125 C 30.71875 46.089844 30.257812 45.765625 29.933594 45.320312 C 29.5 44.730469 29.339844 43.984375 28.96875 43.351562 C 28.597656 42.722656 27.832031 42.1875 27.15625 42.476562 C 28.183594 41.886719 29.558594 42.269531 30.417969 43.085938 C 31.277344 43.902344 31.71875 45.054688 32.050781 46.191406 C 32.382812 47.324219 32.640625 48.5 33.222656 49.53125 C 32.90625 47.804688 32.589844 46.078125 32.269531 44.347656 C 32.082031 43.324219 31.890625 42.261719 32.121094 41.242188 C 32.464844 39.71875 33.679688 38.558594 34.832031 37.5 C 35.074219 39.492188 33.714844 41.28125 33.09375 43.1875 C 32.507812 44.976562 32.585938 46.96875 33.304688 48.707031 C 33.222656 46.929688 34.042969 45.136719 35.433594 44.023438 C 35.773438 43.753906 35.816406 43.261719 35.828125 42.828125 C 35.886719 40.46875 35.851562 38.105469 35.714844 35.75 C 34.816406 35.890625 33.859375 35.621094 33.167969 35.03125 C 32.453125 35.449219 31.644531 36.023438 31.65625 36.855469 C 31.390625 36.449219 31.253906 35.960938 31.265625 35.472656 C 30.246094 35.472656 29.3125 34.578125 29.273438 33.558594 C 29.722656 33.980469 30.417969 34.105469 30.988281 33.871094 C 30.109375 33.816406 29.207031 33.238281 29.058594 32.371094 C 28.910156 31.507812 29.859375 30.574219 30.660156 30.9375 C 30.59375 30.15625 30.730469 29.363281 31.046875 28.648438 C 31.183594 28.339844 31.378906 28.027344 31.695312 27.917969 C 32.394531 27.679688 33.046875 28.582031 33.78125 28.496094 C 34.230469 27.722656 35.117188 27.226562 36.011719 27.242188 C 36.902344 27.257812 37.769531 27.789062 38.1875 28.578125 C 38.414062 29.007812 38.953125 29.136719 39.40625 29.316406 C 39.863281 29.496094 40.34375 29.914062 40.199219 30.378906 C 40.066406 30.804688 40.496094 31.183594 40.644531 31.605469 C 40.835938 32.144531 40.523438 32.757812 40.066406 33.101562 C 39.605469 33.441406 39.027344 33.574219 38.464844 33.695312 C 38.929688 33.859375 39.40625 34.027344 39.757812 34.371094 C 40.105469 34.710938 40.292969 35.277344 40.050781 35.699219 C 39.550781 35.351562 38.902344 35.230469 38.308594 35.378906 C 39.117188 35.648438 39.460938 36.789062 38.945312 37.457031 C 38.160156 36.492188 37.03125 35.804688 35.808594 35.5625 C 36.054688 38.226562 36.074219 40.910156 35.871094 43.578125 C 37.269531 43.21875 38.828125 43.539062 39.972656 44.417969 C 38.378906 44.386719 36.777344 45.054688 35.675781 46.207031 C 35.511719 46.382812 35.441406 46.625 35.375 46.859375 C 34.5 50.0625 33.625 53.269531 32.75 56.476562 C 33.992188 54.34375 36.015625 52.679688 38.347656 51.863281 C 39.105469 51.59375 39.929688 51.417969 40.714844 51.585938 C 41.503906 51.757812 42.242188 52.351562 42.375 53.144531 C 41.382812 52.398438 39.835938 52.53125 38.984375 53.429688 C 37.582031 54.917969 35.714844 55.964844 33.714844 56.390625 C 33.421875 56.453125 33.105469 56.507812 32.878906 56.707031 C 32.585938 56.960938 32.507812 57.375 32.453125 57.757812 C 31.945312 61.320312 31.878906 64.933594 32.011719 68.53125 C 31.546875 64.574219 31.753906 60.542969 32.613281 56.652344 C 33.050781 54.6875 33.65625 52.691406 33.386719 50.699219 C 33.167969 49.078125 32.351562 47.542969 31.128906 46.453125 M 31.628906 35.296875 C 31.667969 35.1875 31.726562 35.082031 31.816406 35.003906 C 31.972656 34.867188 32.199219 34.835938 32.351562 34.695312 C 32.359375 34.6875 32.367188 34.679688 32.371094 34.671875 C 32.386719 34.640625 32.363281 34.609375 32.332031 34.597656 C 32.304688 34.585938 32.273438 34.589844 32.242188 34.597656 C 31.882812 34.671875 31.570312 34.933594 31.425781 35.269531 C 31.410156 35.3125 31.390625 35.355469 31.382812 35.402344 C 31.363281 35.476562 31.359375 35.550781 31.359375 35.625 C 31.359375 35.886719 31.417969 36.148438 31.527344 36.382812 C 31.527344 36.277344 31.527344 36.175781 31.53125 36.070312 C 31.535156 35.8125 31.539062 35.542969 31.628906 35.296875 M 29.402344 33.789062 C 29.648438 34.101562 30.054688 34.246094 30.339844 34.519531 C 30.453125 34.625 30.554688 34.757812 30.707031 34.796875 C 30.757812 34.8125 30.8125 34.8125 30.867188 34.8125 C 31.03125 34.816406 31.199219 34.816406 31.363281 34.820312 C 31.453125 34.820312 31.546875 34.820312 31.625 34.777344 C 31.757812 34.707031 31.8125 34.546875 31.941406 34.472656 C 31.957031 34.464844 31.972656 34.457031 31.976562 34.441406 C 31.980469 34.417969 31.953125 34.402344 31.929688 34.394531 C 31.765625 34.328125 31.601562 34.265625 31.433594 34.203125 C 31.230469 34.121094 31.011719 34.042969 30.796875 34.089844 C 30.304688 34.203125 29.757812 34.054688 29.390625 33.707031 C 29.363281 33.722656 29.382812 33.765625 29.402344 33.789062 M 37.347656 31.855469 C 37.898438 31.839844 38.441406 31.652344 38.878906 31.316406 C 38.996094 31.226562 39.109375 31.128906 39.242188 31.074219 C 39.378906 31.015625 39.550781 31.011719 39.664062 31.105469 C 39.816406 31.234375 39.796875 31.472656 39.761719 31.675781 C 39.734375 31.851562 39.703125 32.03125 39.671875 32.207031 C 39.765625 31.984375 39.898438 31.78125 40.058594 31.601562 C 39.875 32.183594 39.4375 32.644531 39.109375 33.164062 C 39.078125 33.21875 39.046875 33.285156 39.078125 33.339844 C 39.464844 33.226562 39.859375 33.101562 40.171875 32.847656 C 40.484375 32.59375 40.695312 32.175781 40.597656 31.789062 C 40.460938 31.261719 39.851562 31 39.585938 30.523438 C 39.515625 30.394531 39.441406 30.230469 39.292969 30.222656 C 39.246094 30.21875 39.199219 30.234375 39.160156 30.25 C 38.761719 30.40625 38.441406 30.734375 38.296875 31.132812 C 38.21875 31.347656 38.152344 31.625 37.925781 31.679688 C 38.042969 31.496094 38.152344 31.3125 38.253906 31.121094 C 37.855469 31.207031 37.511719 31.488281 37.347656 31.855469 M 35.574219 33.84375 C 35.824219 33.878906 36.082031 33.867188 36.332031 33.8125 C 36.355469 33.589844 36.378906 33.367188 36.40625 33.148438 C 36.472656 33.351562 36.476562 33.574219 36.421875 33.78125 C 36.675781 33.816406 36.9375 33.8125 37.191406 33.769531 C 37.410156 33.3125 37.546875 32.820312 37.601562 32.316406 C 37.679688 32.679688 37.621094 33.066406 37.445312 33.390625 C 37.378906 33.515625 37.289062 33.660156 37.355469 33.789062 C 37.457031 33.832031 37.582031 33.789062 37.660156 33.710938 C 37.738281 33.632812 37.78125 33.527344 37.824219 33.425781 C 38 32.996094 38.175781 32.566406 38.351562 32.136719 C 38.28125 32.664062 38.089844 33.171875 37.796875 33.617188 C 37.75 33.691406 37.714844 33.8125 37.796875 33.839844 C 37.84375 33.855469 37.890625 33.824219 37.925781 33.792969 C 38.476562 33.308594 38.902344 32.691406 39.160156 32.007812 C 39.160156 32.371094 38.96875 32.710938 38.753906 33.003906 C 38.53125 33.308594 38.273438 33.589844 37.992188 33.84375 C 38.089844 33.933594 38.246094 33.863281 38.355469 33.785156 C 39.113281 33.234375 39.605469 32.332031 39.660156 31.398438 C 39.667969 31.328125 39.664062 31.246094 39.617188 31.199219 C 39.550781 31.132812 39.4375 31.148438 39.351562 31.183594 C 38.992188 31.320312 38.714844 31.617188 38.359375 31.773438 C 37.992188 31.933594 37.574219 31.929688 37.1875 32.03125 C 36.796875 32.128906 36.398438 32.40625 36.378906 32.808594 C 36.367188 33.042969 36.117188 33.179688 35.914062 33.296875 C 35.707031 33.410156 35.484375 33.625 35.574219 33.84375 M 34.136719 32.484375 C 34.238281 32.496094 34.3125 32.578125 34.378906 32.65625 C 34.445312 32.734375 34.519531 32.816406 34.617188 32.835938 C 34.71875 32.851562 34.835938 32.757812 34.800781 32.664062 C 34.6875 32.570312 34.597656 32.453125 34.539062 32.316406 C 34.65625 32.328125 34.722656 32.445312 34.800781 32.53125 C 34.875 32.617188 35.042969 32.660156 35.089844 32.550781 C 35.046875 32.390625 35.007812 32.226562 34.96875 32.066406 C 35.105469 32.167969 35.183594 32.339844 35.171875 32.511719 C 35.253906 32.550781 35.355469 32.507812 35.410156 32.433594 C 35.460938 32.363281 35.480469 32.273438 35.492188 32.183594 C 35.605469 31.34375 35.300781 30.507812 34.972656 29.726562 C 34.847656 29.417969 34.703125 29.097656 34.4375 28.894531 C 34.230469 28.734375 33.964844 28.664062 33.710938 28.59375 C 33.410156 28.515625 33.109375 28.4375 32.808594 28.359375 C 33.207031 28.789062 33.503906 29.3125 33.671875 29.875 C 33.484375 29.5625 33.296875 29.253906 33.113281 28.945312 C 32.953125 28.675781 32.78125 28.394531 32.527344 28.207031 C 32.277344 28.015625 31.917969 27.925781 31.636719 28.078125 C 31.464844 28.167969 31.351562 28.332031 31.253906 28.5 C 31.167969 28.652344 31.09375 28.820312 31.097656 28.992188 C 31.027344 29.007812 30.996094 29.082031 30.972656 29.148438 C 30.746094 29.820312 30.746094 30.5625 30.960938 31.234375 C 31.320312 32.347656 32.226562 33.183594 33.09375 33.96875 C 33.199219 34.066406 33.367188 34.070312 33.5 34.019531 C 33.636719 33.96875 33.746094 33.867188 33.851562 33.773438 C 32.519531 32.90625 31.535156 31.523438 31.160156 29.980469 C 31.082031 29.664062 31.027344 29.328125 31.109375 29.015625 C 31.246094 30.835938 32.273438 32.546875 33.765625 33.605469 C 33.855469 33.671875 33.953125 33.734375 34.0625 33.726562 C 34.171875 33.71875 34.273438 33.601562 34.226562 33.503906 C 34.054688 33.5 33.882812 33.492188 33.714844 33.488281 C 33.796875 33.390625 33.945312 33.40625 34.074219 33.398438 C 34.203125 33.394531 34.359375 33.324219 34.347656 33.199219 C 34.132812 33.179688 33.929688 33.070312 33.796875 32.898438 C 34 32.972656 34.199219 33.050781 34.398438 33.125 C 34.460938 33.082031 34.511719 33.019531 34.535156 32.949219 C 34.371094 32.824219 34.234375 32.664062 34.136719 32.484375 M 35.53125 29.480469 C 35.570312 29.789062 35.570312 30.097656 35.574219 30.40625 C 35.578125 31.101562 35.582031 31.800781 35.585938 32.496094 C 35.664062 32.5 35.746094 32.507812 35.828125 32.511719 C 35.914062 32.320312 36.003906 32.128906 36.089844 31.941406 C 36.183594 32.039062 36.089844 32.191406 36.019531 32.304688 C 35.945312 32.414062 35.929688 32.617188 36.066406 32.636719 C 36.238281 32.238281 36.410156 31.839844 36.582031 31.441406 C 36.597656 31.414062 36.609375 31.378906 36.640625 31.367188 C 36.671875 31.355469 36.710938 31.378906 36.703125 31.410156 C 36.535156 31.785156 36.367188 32.160156 36.199219 32.535156 C 36.175781 32.585938 36.152344 32.644531 36.160156 32.703125 C 36.167969 32.765625 36.21875 32.820312 36.277344 32.808594 C 36.289062 32.539062 36.4375 32.28125 36.667969 32.136719 C 36.746094 32.089844 36.835938 32.050781 36.90625 31.984375 C 36.984375 31.910156 37.023438 31.808594 37.0625 31.707031 C 37.414062 30.738281 37.566406 29.691406 37.507812 28.664062 C 37.492188 28.40625 37.460938 28.136719 37.324219 27.917969 C 37.105469 27.578125 36.683594 27.4375 36.285156 27.355469 C 35.941406 27.277344 35.539062 27.242188 35.273438 27.476562 C 35.152344 27.578125 35.054688 27.734375 34.898438 27.734375 C 35.238281 28.257812 35.457031 28.859375 35.53125 29.480469 M 35.4375 55.75 C 35.636719 55.675781 35.832031 55.59375 36.019531 55.496094 C 36.304688 55.347656 36.566406 55.152344 36.824219 54.960938 C 37.761719 54.269531 38.699219 53.578125 39.632812 52.886719 C 39.953125 52.652344 40.316406 52.480469 40.703125 52.394531 C 40.457031 52.261719 40.175781 52.175781 39.894531 52.1875 C 39.699219 52.191406 39.511719 52.242188 39.324219 52.296875 C 36.957031 53.003906 34.941406 54.570312 33.152344 56.269531 C 33.929688 56.195312 34.703125 56.019531 35.4375 55.75 M 32.21875 43.082031 C 32.257812 43.558594 32.332031 44.046875 32.554688 44.472656 C 32.640625 42.414062 33.191406 40.371094 34.15625 38.550781 C 34.203125 38.691406 34.132812 38.84375 34.070312 38.976562 C 33.378906 40.398438 32.960938 41.945312 32.835938 43.519531 C 33.054688 42.316406 33.917969 41.332031 34.308594 40.175781 C 34.554688 39.441406 34.605469 38.65625 34.652344 37.878906 C 34.296875 38.226562 33.941406 38.574219 33.582031 38.921875 C 33.414062 39.085938 33.246094 39.25 33.097656 39.429688 C 32.277344 40.417969 32.113281 41.800781 32.21875 43.082031 M 33.628906 51.523438 C 33.632812 51.773438 33.609375 52.027344 33.589844 52.277344 C 33.5625 52.5625 33.539062 52.847656 33.515625 53.128906 C 33.914062 51.675781 34.316406 50.226562 34.71875 48.773438 C 34.949219 47.929688 35.183594 47.082031 35.324219 46.214844 C 34.605469 46.386719 33.976562 46.910156 33.679688 47.585938 C 33.558594 47.863281 33.488281 48.164062 33.429688 48.464844 C 33.398438 48.617188 33.371094 48.769531 33.355469 48.925781 C 33.273438 49.792969 33.609375 50.648438 33.628906 51.523438 M 39.519531 44.359375 C 38.847656 43.925781 38.019531 43.738281 37.226562 43.847656 C 36.433594 43.953125 35.683594 44.351562 35.15625 44.949219 C 35 45.125 34.863281 45.316406 34.730469 45.507812 C 34.394531 46.003906 34.085938 46.519531 33.8125 47.054688 C 34.113281 46.621094 34.589844 46.351562 35.074219 46.144531 C 35.554688 45.9375 36.0625 45.78125 36.507812 45.5 C 36.933594 45.234375 37.292969 44.863281 37.730469 44.617188 C 38.269531 44.320312 38.917969 44.226562 39.519531 44.359375 M 35.660156 35.46875 C 35.898438 35.484375 35.898438 35.03125 36.132812 34.980469 C 36.066406 35.113281 36 35.246094 35.933594 35.378906 C 36.273438 35.292969 36.574219 35.050781 36.730469 34.734375 C 36.925781 34.34375 37.300781 34.042969 37.726562 33.9375 C 37.523438 33.859375 37.296875 33.867188 37.082031 33.882812 C 36.289062 33.9375 35.457031 34.070312 34.726562 33.765625 C 34.523438 33.679688 34.285156 33.757812 34.117188 33.898438 C 33.953125 34.039062 33.84375 34.234375 33.738281 34.425781 C 33.722656 34.21875 33.828125 34.007812 34.007812 33.902344 C 33.738281 34.015625 33.46875 34.128906 33.195312 34.242188 C 33.628906 34.40625 34.023438 34.675781 34.332031 35.015625 C 34.65625 35.371094 35.183594 35.433594 35.660156 35.46875 M 29.335938 43.601562 C 29.609375 44.136719 29.628906 44.785156 29.980469 45.273438 C 30.132812 45.488281 30.34375 45.65625 30.554688 45.816406 C 31.082031 46.214844 31.652344 46.574219 32.070312 47.089844 C 31.828125 46.5 31.554688 45.921875 31.25 45.363281 C 30.910156 44.742188 30.527344 44.140625 30.042969 43.628906 C 29.554688 43.117188 28.960938 42.695312 28.28125 42.492188 C 28.40625 42.582031 28.53125 42.675781 28.648438 42.777344 C 28.917969 43.011719 29.167969 43.28125 29.335938 43.601562 M 38.578125 52.441406 C 38.964844 52.316406 39.351562 52.199219 39.746094 52.09375 C 38.796875 51.851562 37.773438 52.089844 36.910156 52.550781 C 36.046875 53.015625 35.320312 53.6875 34.613281 54.363281 C 34.023438 54.929688 33.429688 55.519531 33.050781 56.25 C 34.347656 54.914062 35.847656 53.773438 37.492188 52.894531 C 37.636719 52.816406 37.78125 52.742188 37.933594 52.675781 C 38.144531 52.582031 38.359375 52.511719 38.578125 52.441406 M 30.789062 31.066406 C 30.757812 30.933594 30.566406 30.925781 30.429688 30.960938 C 29.789062 31.136719 29.238281 31.625 28.984375 32.242188 C 29.144531 32.167969 29.339844 32.167969 29.5 32.238281 C 29.449219 32.128906 29.402344 32.015625 29.355469 31.902344 C 29.726562 32.367188 30.207031 32.75 30.75 33 C 30.382812 32.597656 30.015625 32.191406 29.644531 31.789062 C 29.671875 31.703125 29.804688 31.769531 29.855469 31.84375 C 30.195312 32.332031 30.617188 32.757812 31.105469 33.097656 C 31.132812 33.066406 31.101562 33.019531 31.070312 32.988281 C 30.550781 32.507812 29.96875 32.015625 29.808594 31.328125 C 30.324219 32.164062 30.996094 32.910156 31.769531 33.519531 C 31.914062 33.632812 32.074219 33.742188 32.253906 33.746094 C 31.433594 33.203125 30.722656 32.492188 30.1875 31.667969 C 30.144531 31.605469 30.109375 31.511719 30.171875 31.464844 C 30.691406 32.292969 31.367188 33.023438 32.15625 33.605469 C 32.378906 33.773438 32.625 33.929688 32.902344 33.960938 C 32 33.148438 31.082031 32.242188 30.789062 31.066406 M 33.035156 34.164062 C 32.78125 33.9375 32.390625 33.980469 32.074219 33.855469 C 31.746094 33.722656 31.519531 33.417969 31.207031 33.25 C 30.953125 33.117188 30.65625 33.082031 30.394531 32.957031 C 30.066406 32.800781 29.816406 32.515625 29.496094 32.34375 C 29.402344 32.296875 29.296875 32.257812 29.195312 32.285156 C 29.097656 32.3125 29.019531 32.433594 29.074219 32.523438 C 29.324219 32.929688 29.765625 33.171875 30.191406 33.394531 C 30.691406 33.660156 31.195312 33.925781 31.695312 34.191406 C 31.851562 34.273438 32.039062 34.355469 32.199219 34.285156 C 32.457031 34.164062 32.75 34.125 33.035156 34.164062 M 34.074219 28.230469 C 34.027344 28.292969 33.988281 28.367188 33.988281 28.449219 C 33.984375 28.527344 34.035156 28.613281 34.117188 28.625 C 34.386719 28.664062 34.621094 28.851562 34.78125 29.074219 C 34.945312 29.296875 35.042969 29.554688 35.136719 29.8125 C 35.253906 30.117188 35.367188 30.421875 35.480469 30.726562 C 35.570312 29.730469 35.355469 28.710938 34.871094 27.835938 C 34.839844 27.773438 34.777344 27.707031 34.714844 27.730469 C 34.457031 27.828125 34.230469 28.003906 34.074219 28.230469 M 29.632812 42.695312 C 29.308594 42.59375 28.972656 42.527344 28.636719 42.492188 C 29.457031 42.832031 30.132812 43.457031 30.65625 44.171875 C 31.179688 44.886719 31.566406 45.6875 31.9375 46.492188 C 31.722656 45.433594 31.300781 44.414062 30.699219 43.511719 C 30.578125 43.328125 30.445312 43.144531 30.269531 43.007812 C 30.085938 42.859375 29.859375 42.765625 29.632812 42.695312 M 36.65625 35.621094 C 36.738281 35.699219 36.808594 35.796875 36.910156 35.855469 C 36.980469 35.894531 37.0625 35.910156 37.140625 35.941406 C 37.480469 36.0625 37.722656 36.394531 38.074219 36.480469 C 38.433594 36.566406 38.738281 36.863281 38.828125 37.222656 C 38.980469 36.957031 38.832031 36.621094 38.644531 36.378906 C 38.371094 36.027344 38.007812 35.75 37.59375 35.578125 C 37.34375 35.476562 37.21875 35.152344 36.953125 35.105469 C 36.695312 35.058594 36.480469 35.296875 36.234375 35.386719 C 36.390625 35.425781 36.539062 35.507812 36.65625 35.621094 M 38.28125 43.753906 C 37.613281 43.34375 36.730469 43.414062 36.03125 43.777344 C 35.335938 44.136719 34.804688 44.746094 34.363281 45.394531 C 34.027344 45.886719 33.726562 46.429688 33.679688 47.023438 C 34.023438 46.34375 34.433594 45.703125 34.910156 45.109375 C 35.046875 44.9375 35.191406 44.769531 35.347656 44.617188 C 36.109375 43.882812 37.242188 43.550781 38.28125 43.753906 M 36.214844 32.964844 C 35.941406 32.613281 35.390625 32.515625 35.011719 32.75 C 34.953125 32.785156 34.898438 32.828125 34.847656 32.871094 C 34.625 33.054688 34.410156 33.273438 34.332031 33.550781 C 34.320312 33.589844 34.335938 33.652344 34.371094 33.640625 C 34.574219 33.582031 34.785156 33.683594 34.984375 33.75 C 35.113281 33.792969 35.25 33.820312 35.382812 33.828125 C 35.414062 33.832031 35.457031 33.820312 35.453125 33.789062 C 35.4375 33.660156 35.472656 33.53125 35.550781 33.425781 C 35.710938 33.207031 36.015625 33.148438 36.214844 32.964844 M 37.429688 31.554688 C 37.890625 30.6875 38.039062 29.683594 38.066406 28.699219 C 38.066406 28.550781 37.964844 28.417969 37.851562 28.320312 C 37.734375 28.226562 37.601562 28.148438 37.5 28.039062 C 37.792969 29.332031 37.523438 30.691406 37.082031 31.941406 C 37.242188 31.875 37.34375 31.714844 37.429688 31.554688 M 39.09375 51.867188 C 39.167969 51.9375 39.289062 51.921875 39.394531 51.917969 C 39.515625 51.917969 39.632812 51.941406 39.753906 51.96875 C 40.335938 52.109375 40.886719 52.351562 41.4375 52.59375 C 41.667969 52.691406 41.898438 52.792969 42.128906 52.894531 C 41.976562 52.585938 41.785156 52.292969 41.527344 52.0625 C 41.269531 51.832031 40.945312 51.667969 40.601562 51.640625 C 40.367188 51.621094 40.125 51.664062 39.890625 51.710938 C 39.625 51.761719 39.359375 51.8125 39.09375 51.867188 M 32.1875 34.464844 C 32.636719 34.488281 33.035156 34.746094 33.410156 34.992188 C 33.535156 35.078125 33.65625 35.160156 33.78125 35.242188 C 33.878906 35.308594 33.980469 35.375 34.082031 35.429688 C 34.523438 35.667969 35.058594 35.726562 35.539062 35.59375 C 35.527344 35.53125 35.4375 35.527344 35.375 35.53125 C 34.976562 35.566406 34.597656 35.355469 34.28125 35.113281 C 33.964844 34.867188 33.679688 34.578125 33.320312 34.40625 C 32.960938 34.230469 32.492188 34.203125 32.1875 34.464844 M 38.28125 30.820312 C 38.367188 30.710938 38.453125 30.605469 38.5 30.476562 C 38.714844 29.890625 38.605469 29.199219 38.214844 28.710938 C 38.1875 28.675781 38.15625 28.640625 38.113281 28.632812 C 38.167969 28.820312 38.160156 29.023438 38.144531 29.21875 C 38.085938 29.898438 37.9375 30.570312 37.703125 31.207031 C 37.945312 31.21875 38.132812 31.011719 38.28125 30.820312 M 39.503906 30.046875 C 39.496094 30.054688 39.484375 30.066406 39.484375 30.082031 C 39.480469 30.09375 39.488281 30.109375 39.492188 30.121094 C 39.601562 30.355469 39.757812 30.570312 39.949219 30.75 C 39.964844 30.765625 39.984375 30.78125 40.003906 30.78125 C 40.042969 30.785156 40.066406 30.746094 40.082031 30.710938 C 40.125 30.605469 40.15625 30.496094 40.144531 30.382812 C 40.140625 30.324219 40.125 30.265625 40.105469 30.210938 C 39.910156 29.652344 39.347656 29.238281 38.753906 29.222656 C 38.710938 29.222656 38.644531 29.246094 38.660156 29.289062 C 38.765625 29.632812 38.761719 30 38.65625 30.34375 C 38.644531 30.375 38.644531 30.429688 38.683594 30.433594 C 38.691406 30.433594 38.703125 30.433594 38.710938 30.425781 C 38.804688 30.382812 38.871094 30.28125 38.871094 30.171875 C 38.875 29.933594 38.898438 29.695312 38.949219 29.457031 C 39.09375 29.671875 38.875 29.980469 38.988281 30.210938 C 39.046875 30.035156 39.105469 29.859375 39.164062 29.6875 C 39.171875 29.65625 39.183594 29.625 39.210938 29.613281 C 39.238281 29.601562 39.28125 29.625 39.269531 29.652344 C 39.226562 29.78125 39.183594 29.914062 39.144531 30.042969 C 39.136719 30.066406 39.128906 30.09375 39.144531 30.109375 C 39.15625 30.117188 39.167969 30.117188 39.179688 30.121094 C 39.304688 30.125 39.414062 30.039062 39.488281 29.941406 C 39.515625 29.910156 39.539062 29.875 39.574219 29.855469 C 39.609375 29.839844 39.660156 29.839844 39.679688 29.875 C 39.621094 29.929688 39.566406 29.988281 39.503906 30.046875 M 39.582031 35.3125 C 39.640625 35.347656 39.707031 35.398438 39.777344 35.394531 C 39.691406 34.976562 39.328125 34.628906 38.90625 34.558594 C 38.585938 34.5 38.261719 34.59375 37.949219 34.671875 C 37.878906 34.691406 37.804688 34.707031 37.730469 34.699219 C 37.683594 34.695312 37.632812 34.679688 37.59375 34.703125 C 37.550781 34.722656 37.546875 34.804688 37.59375 34.804688 C 37.808594 34.816406 38.015625 34.925781 38.148438 35.09375 C 38.171875 35.121094 38.191406 35.15625 38.222656 35.175781 C 38.277344 35.21875 38.355469 35.214844 38.425781 35.214844 C 38.574219 35.210938 38.722656 35.203125 38.867188 35.199219 C 39.113281 35.191406 39.371094 35.1875 39.582031 35.3125 M 38.992188 37.035156 C 39.058594 36.984375 39.105469 36.90625 39.136719 36.828125 C 39.253906 36.503906 39.046875 36.15625 38.800781 35.917969 C 38.550781 35.683594 38.246094 35.496094 38.070312 35.199219 C 37.96875 35.027344 37.789062 34.902344 37.589844 34.871094 C 37.390625 34.835938 37.179688 34.894531 37.027344 35.023438 C 37.210938 35.054688 37.324219 35.238281 37.464844 35.359375 C 37.652344 35.523438 37.902344 35.582031 38.113281 35.714844 C 38.273438 35.816406 38.40625 35.953125 38.539062 36.09375 C 38.789062 36.359375 39.050781 36.679688 38.992188 37.035156 M 32.402344 34.742188 C 32.300781 34.960938 31.980469 34.96875 31.820312 35.148438 C 31.769531 35.203125 31.738281 35.277344 31.714844 35.347656 C 31.644531 35.546875 31.621094 35.761719 31.640625 35.96875 C 31.808594 35.832031 32.019531 35.761719 32.21875 35.679688 C 32.417969 35.59375 32.621094 35.488281 32.730469 35.300781 C 32.820312 35.152344 32.863281 34.949219 33.027344 34.90625 C 32.917969 34.847656 32.804688 34.789062 32.691406 34.730469 C 32.644531 34.707031 32.59375 34.679688 32.539062 34.675781 C 32.484375 34.667969 32.425781 34.691406 32.402344 34.742188 M 29.691406 34.167969 C 29.621094 34.117188 29.546875 34.0625 29.46875 34.015625 C 29.558594 34.207031 29.507812 34.476562 29.679688 34.59375 C 29.753906 34.644531 29.84375 34.652344 29.921875 34.6875 C 30.011719 34.734375 30.078125 34.816406 30.148438 34.890625 C 30.316406 35.066406 30.527344 35.1875 30.738281 35.308594 C 30.8125 35.351562 30.886719 35.394531 30.96875 35.40625 C 31.15625 35.4375 31.351562 35.292969 31.375 35.109375 C 31.378906 35.070312 31.425781 35.050781 31.460938 35.03125 C 31.5 35.011719 31.527344 34.960938 31.496094 34.933594 C 31.484375 34.921875 31.464844 34.921875 31.449219 34.921875 C 31.292969 34.921875 31.136719 34.917969 30.976562 34.917969 C 30.847656 34.917969 30.710938 34.917969 30.589844 34.867188 C 30.433594 34.804688 30.316406 34.675781 30.191406 34.558594 C 30.035156 34.414062 29.863281 34.292969 29.691406 34.167969 M 38.75 33.921875 C 38.722656 33.917969 38.683594 33.925781 38.683594 33.953125 C 38.679688 33.96875 38.695312 33.984375 38.707031 33.996094 C 38.75 34.054688 38.726562 34.136719 38.675781 34.183594 C 38.625 34.234375 38.558594 34.253906 38.492188 34.273438 C 38.230469 34.34375 37.957031 34.40625 37.75 34.578125 C 37.777344 34.632812 37.851562 34.613281 37.90625 34.589844 C 38.234375 34.453125 38.605469 34.386719 38.957031 34.460938 C 39.304688 34.535156 39.632812 34.757812 39.789062 35.074219 C 39.859375 35.21875 39.898438 35.378906 39.96875 35.523438 C 40.136719 35.351562 40.171875 35.0625 40.042969 34.855469 C 39.910156 34.648438 39.65625 34.558594 39.457031 34.410156 C 39.226562 34.234375 39.039062 33.960938 38.75 33.921875 M 36.699219 35.027344 C 36.914062 34.933594 37.125 34.835938 37.332031 34.726562 C 37.414062 34.683594 37.5 34.636719 37.570312 34.574219 C 37.867188 34.328125 38.253906 34.214844 38.625 34.109375 C 38.652344 34.101562 38.652344 34.058594 38.632812 34.039062 C 38.609375 34.019531 38.578125 34.015625 38.550781 34.015625 C 38.464844 34.011719 38.382812 34.011719 38.296875 34.007812 C 38.121094 34.003906 37.9375 33.996094 37.761719 34.035156 C 37.539062 34.089844 37.339844 34.214844 37.171875 34.367188 C 36.96875 34.550781 36.808594 34.777344 36.699219 35.027344 M 32.140625 34.449219 C 32.097656 34.433594 32.046875 34.449219 32.015625 34.480469 C 32.023438 34.515625 32.0625 34.542969 32.101562 34.53125 C 32.136719 34.523438 32.160156 34.480469 32.152344 34.445312 Z M 32.140625 34.449219 " fill-opacity="1" fill-rule="nonzero"/></g></g></g></svg>