<svg xmlns="http://www.w3.org/2000/svg" xmlns:xlink="http://www.w3.org/1999/xlink" width="500" zoomAndPan="magnify" viewBox="0 0 375 374.999991" height="500" preserveAspectRatio="xMidYMid meet" version="1.0"><defs><clipPath id="0de5134a0b"><path d="M 7.5 7.5 L 367.5 7.5 L 367.5 367.5 L 7.5 367.5 Z M 7.5 7.5 " clip-rule="nonzero"/></clipPath></defs><g clip-path="url(#0de5134a0b)"><path fill="#e5dfd0" d="M 185.269531 7.5 C 86.679688 7.5 7.5 87.320312 7.5 186.75 C 7.5 260.550781 50.824219 322.304688 113.578125 350.933594 C 113.578125 317.316406 113.339844 321.648438 138.957031 212.347656 C 124.882812 183.941406 135.824219 137.042969 167.347656 137.042969 C 211.085938 137.042969 181.367188 201.898438 176.3125 227.410156 C 171.824219 247 186.765625 262.0625 204.695312 262.0625 C 239.050781 262.0625 261.453125 218.375 261.453125 167.167969 C 261.453125 127.992188 234.582031 99.378906 188.261719 99.378906 C 105.910156 99.378906 85.03125 191.09375 113.578125 219.878906 C 120.761719 230.75 113.578125 231.261719 113.578125 245.488281 C 108.589844 260.535156 68.757812 238.667969 68.757812 182.238281 C 68.757812 131.015625 110.589844 70.773438 195.730469 70.773438 C 262.941406 70.773438 307.761719 120.46875 307.761719 173.199219 C 307.761719 243.992188 268.917969 295.210938 212.160156 295.210938 C 192.742188 295.210938 174.8125 284.664062 168.835938 272.601562 C 157.988281 314.824219 155.792969 336.230469 138.957031 359.96875 C 155.394531 364.484375 171.824219 367.5 189.753906 367.5 C 288.335938 367.5 367.5 287.679688 367.5 188.261719 C 363.035156 87.320312 283.851562 7.5 185.269531 7.5 " fill-opacity="1" fill-rule="evenodd"/></g></svg>